<REAPER_PROJECT 0.1 "5.95/x64" 1544982753
  RIPPLE 0
  GROUPOVERRIDE 0 0 0
  AUTOXFADE 1
  ENVATTACH 1
  POOLEDENVATTACH 0
  MIXERUIFLAGS 11 48
  PEAKGAIN 1
  FEEDBACK 0
  PANLAW 1
  PROJOFFS 0 0 0
  MAXPROJLEN 0 600
  GRID 3199 8 1 8 1 0 0 0
  TIMEMODE 1 0 -1 24 2
  PANMODE 3
  CURSOR 204
  ZOOM 98.05041108803402 18758 0
  VZOOMEX 7
  USE_REC_CFG 0
  RECMODE 1
  SMPTESYNC 0 23.976024 100 40 1000 300 0 0 1 0 0
  LOOP 1
  LOOPGRAN 0 4
  RECORD_PATH "TremoloFUSION" ""
  <RECORD_CFG
    ZXZhdxgAAA==
  >
  <APPLYFX_CFG
  >
  RENDER_FILE "C:\Users\Nicolas\Desktop\Test REAPER\Tremolo_recording_1.wav"
  RENDER_FMT 0 2 44100
  RENDER_1X 0
  RENDER_RANGE 2 0 0 18 1000
  RENDER_RESAMPLE 3 0 1
  RENDER_ADDTOPROJ 0
  RENDER_STEMS 0
  RENDER_DITHER 0
  TIMELOCKMODE 1
  TEMPOENVLOCKMODE 1
  ITEMMIX 0
  MISCOPTS 2
  DEFPITCHMODE 393216
  TAKELANE 1
  SAMPLERATE 44100 0 0
  <RENDER_CFG
    ZXZhdxgAAA==
  >
  LOCK 1
  <METRONOME 21 4
    VOL 0.172128 0.086064
    FREQ 800 1600 1
    BEATLEN 4
    SAMPLES "" ""
    PATTERN 2863311530 2863311529
  >
  GLOBAL_AUTO -1
  TEMPO 140 4 4
  PLAYRATE 1 0 0.25 4
  SELECTION 197.14285714285714 197.14285714285714
  SELECTION2 197.14285714285714 197.14285714285714
  MASTERAUTOMODE 0
  MASTERTRACKHEIGHT 0 0
  MASTERPEAKCOL 16576
  MASTERMUTESOLO 0
  MASTERTRACKVIEW 0 0.6667 0.5 0.5 0 0 0
  MASTERHWOUT 0 0 1 0 0 0 0 -1
  MASTERHWOUT 1024 0 1 0 0 0 0 -1
  MASTER_NCH 2 2
  MASTER_VOLUME 0.42898399552231 0 -1 -1 1
  MASTER_FX 1
  MASTER_SEL 0
  <MASTERFXLIST
    SHOW 0
    LASTSEL 0
    DOCKED 0
  >
  <MASTERPLAYSPEEDENV
    ACT 0 -1
    VIS 0 1 1
    LANEHEIGHT 0 0
    ARM 0
    DEFSHAPE 0 -1 -1
  >
  <TEMPOENVEX
    ACT 0 -1
    VIS 1 0 1
    LANEHEIGHT 0 0
    ARM 0
    DEFSHAPE 1 -1 -1
  >
  <PROJBAY
  >
  <TRACK {B15D9207-3EE8-4AE3-8869-1B46AAFE2860}
    NAME Basse
    PEAKCOL 16576
    BEAT -1
    AUTOMODE 0
    VOLPAN 0.55760551322897 0 -1 -1 1
    MUTESOLO 0 0 0
    IPHASE 0
    ISBUS 0 0
    BUSCOMP 0 0
    SHOWINMIX 1 0.6667 0.5 1 0.5 0 0 0
    FREEMODE 0
    SEL 0
    REC 0 0 0 0 0 0 0
    VU 2
    TRACKHEIGHT 0 0 0
    INQ 0 0 0 0.5 100 0 0 100
    NCHAN 2
    FX 1
    TRACKID {B15D9207-3EE8-4AE3-8869-1B46AAFE2860}
    PERF 0
    MIDIOUT -1
    MAINSEND 1 0
    <FXCHAIN
      SHOW 0
      LASTSEL 0
      DOCKED 0
    >
    <ITEM
      POSITION 0
      SNAPOFFS 0
      LENGTH 27.42857142862132
      LOOP 0
      ALLTAKES 0
      FADEIN 1 0.01 0 1 0 0
      FADEOUT 1 0.01 0 1 0 0
      MUTE 0
      SEL 0
      IGUID {D946C411-44DB-4776-9E9B-DDA3ED3FF81B}
      IID 32
      NAME 01-181209_1823.wav
      VOLPAN 1 0 2.352949 -1
      SOFFS 0
      PLAYRATE 1 1 0 -1 0 0.0025
      CHANMODE 0
      TAKECOLOR 25349772 R
      GUID {BADFD5AD-9B40-4C8D-A1EA-14295B5E2DAB}
      RECPASS 108
      <SOURCE WAVE
        FILE "01-181209_1823.wav"
      >
    >
    <ITEM
      POSITION 27.42857142857143
      SNAPOFFS 0
      LENGTH 3.42857142857143
      LOOP 0
      ALLTAKES 0
      FADEIN 1 0.01 0 1 0 0
      FADEOUT 1 0.01 0 1 0 0
      MUTE 0
      SEL 0
      IGUID {B12A2DEA-50E3-46C5-A14C-DFA8537C9869}
      IID 33
      NAME 01-181209_1823.wav
      VOLPAN 1 0 1 -1
      SOFFS 27.42857142857143
      PLAYRATE 1 1 0 -1 0 0.0025
      CHANMODE 0
      TAKECOLOR 25349772 R
      GUID {850FF758-D513-4811-A693-1F441EEE6ADA}
      RECPASS 108
      <SOURCE WAVE
        FILE "01-181209_1823.wav"
      >
    >
    <ITEM
      POSITION 30.85714285714286
      SNAPOFFS 0
      LENGTH 13.71428571428571
      LOOP 0
      ALLTAKES 0
      FADEIN 1 0.01 0 1 0 0
      FADEOUT 1 0.01 0 1 0 0
      MUTE 0
      SEL 0
      IGUID {91DD91DF-4B20-472D-882F-5E0CCC32FF8E}
      IID 18
      NAME 01-181206_2130.wav
      VOLPAN 1 0 1.392354 -1
      SOFFS 123.42854875283446
      PLAYRATE 1 1 0 -1 0 0.0025
      CHANMODE 0
      TAKECOLOR 24447420 R
      GUID {2FBE3168-48DB-4B66-ABA7-8B682F550336}
      RECPASS 36
      <SOURCE WAVE
        FILE "01-181206_2130.wav"
      >
    >
    <ITEM
      POSITION 31.28571428571429
      SNAPOFFS 0
      LENGTH 0.01950113378685
      LOOP 0
      ALLTAKES 0
      FADEIN 1 0.009501 0 1 0 0
      FADEOUT 1 0.01 0 1 0 0
      MUTE 0
      SEL 0
      IGUID {2DEA6F4D-E954-4C74-8F87-EFF710FA912B}
      IID 18
      NAME 01-181206_2126.wav
      VOLPAN 1 0 1 -1
      SOFFS 13.71428571428572
      PLAYRATE 1 1 0 -1 0 0.0025
      CHANMODE 0
      TAKECOLOR 18126016 R
      GUID {7D5AE2C0-6F8E-4F51-953A-69A69D703767}
      RECPASS 25
      <SOURCE WAVE
        FILE "01-181206_2126.wav"
      >
    >
    <ITEM
      POSITION 44.57142857142857
      SNAPOFFS 0
      LENGTH 13.71428571428572
      LOOP 0
      ALLTAKES 0
      FADEIN 1 0.01 0 1 0 0
      FADEOUT 1 0 0 1 0 0
      MUTE 0
      SEL 0
      IGUID {81DBF322-428E-4DFA-8939-676FC1BBE72C}
      IID 45
      NAME 01-181209_1614.wav
      VOLPAN 1 0 1.21666 -1
      SOFFS 0
      PLAYRATE 1 1 0 -1 0 0.0025
      CHANMODE 0
      TAKECOLOR 16888176 R
      GUID {99EA3CB2-9FCE-4C6E-AF03-5858AFFDAF00}
      RECPASS 53
      <SOURCE WAVE
        FILE "01-181209_1614.wav"
      >
    >
    <ITEM
      POSITION 58.28571428571429
      SNAPOFFS 0
      LENGTH 13.71428571428572
      LOOP 1
      ALLTAKES 0
      FADEIN 3 0.01 0 1 0 -1
      FADEOUT 1 0.01 0 1 0 0
      MUTE 0
      SEL 0
      IGUID {450CC0B9-6660-44FF-AF62-88585D90A118}
      IID 61
      NAME "01-181209_1838.wav glued"
      VOLPAN 1 0 1 -1
      SOFFS 0
      PLAYRATE 1 1 0 -1 0 0.0025
      CHANMODE 0
      GUID {53CA3D07-27D1-4205-BBBB-CE0B11C82C73}
      <SOURCE WAVE
        FILE "01-181209_1841.wav"
      >
    >
    <ITEM
      POSITION 72
      SNAPOFFS 0
      LENGTH 27.42857142857143
      LOOP 0
      ALLTAKES 0
      FADEIN 1 0.01 0 1 0 0
      FADEOUT 1 0.01 0 1 0 0
      MUTE 0
      SEL 0
      IGUID {18FE253E-5AAB-45E8-A736-7EDE600C5690}
      IID 46
      NAME 01-181209_1628.wav
      VOLPAN 1 0 1.477243 -1
      SOFFS 0
      PLAYRATE 1 1 0 -1 0 0.0025
      CHANMODE 0
      TAKECOLOR 25917695 R
      GUID {1D9543C2-0F8F-4F8D-8866-752F5C03EF27}
      RECPASS 55
      <SOURCE WAVE
        FILE "01-181209_1628.wav"
      >
      TAKE
      NAME 01-181209_1631.wav
      TAKEVOLPAN 0 1.416698 -1
      SOFFS 0
      PLAYRATE 1 1 0 -1 0 0.0025
      CHANMODE 0
      TAKECOLOR 32177748 R
      GUID {F5EF46DB-9156-404C-BAF0-0306BF1F3F05}
      RECPASS 57
      <SOURCE WAVE
        FILE "01-181209_1631.wav"
      >
    >
    <ITEM
      POSITION 113.14285714285714
      SNAPOFFS 0
      LENGTH 12.61532879818594
      LOOP 0
      ALLTAKES 0
      FADEIN 1 0 0 1 0 0
      FADEOUT 1 0.01 0 1 0 0
      MUTE 0
      SEL 0
      IGUID {06D771EA-84A0-4ADD-B1BD-21246992D7CD}
      IID 47
      NAME 01-181209_1843.wav
      VOLPAN 1 0 1.372389 -1
      SOFFS -0.0189342403628
      PLAYRATE 1 1 0 -1 0 0.0025
      CHANMODE 0
      TAKECOLOR 23157112 R
      GUID {81D58939-5513-49F7-B745-37A7F9FAEC52}
      RECPASS 118
      <SOURCE WAVE
        FILE "01-181209_1843.wav"
      >
    >
    <ITEM
      POSITION 113.14285714285714
      SNAPOFFS 0
      LENGTH 0.01893424036281
      LOOP 0
      ALLTAKES 0
      FADEIN 1 0 0 1 0 0
      FADEOUT 1 0 0 1 0 0
      MUTE 0
      SEL 0
      IGUID {C9C81332-91E1-4E1B-852C-529D5DFA40D2}
      IID 47
      NAME 01-181209_1704.wav
      VOLPAN 1 0 1 -1
      SOFFS 0
      PLAYRATE 1 1 0 -1 0 0.0025
      CHANMODE 0
      TAKECOLOR 24100624 R
      GUID {CB693AFA-CF49-45A6-9181-76538B386E60}
      RECPASS 59
      <SOURCE WAVE
        FILE "01-181209_1704.wav"
      >
      TAKE
      NAME 01-181209_1704.wav
      TAKEVOLPAN 0 1 -1
      SOFFS 27.42857142857143
      PLAYRATE 1 1 0 -1 0 0.0025
      CHANMODE 0
      TAKECOLOR 25202382 R
      GUID {BA0720B3-0D97-4C8F-942B-E6CF222E4424}
      RECPASS 60
      <SOURCE WAVE
        FILE "01-181209_1704.wav"
      >
      TAKE
      NAME 01-181209_1704.wav
      TAKEVOLPAN 0 1 -1
      SOFFS 54.85714285714285
      PLAYRATE 1 1 0 -1 0 0.0025
      CHANMODE 0
      TAKECOLOR 26148785 R
      GUID {6972A101-B4E3-4B50-BAC7-330A1B6AF112}
      RECPASS 61
      <SOURCE WAVE
        FILE "01-181209_1704.wav"
      >
      TAKE
      NAME 01-181209_1704.wav
      TAKEVOLPAN 0 1 -1
      SOFFS 82.28569160997732
      PLAYRATE 1 1 0 -1 0 0.0025
      CHANMODE 0
      TAKECOLOR 32302031 R
      GUID {C7F71E97-F244-4E48-8785-BCEBAAD422C2}
      RECPASS 62
      <SOURCE WAVE
        FILE "01-181209_1704.wav"
      >
      TAKE
      NAME 01-181209_1708.wav
      TAKEVOLPAN 0 1 -1
      SOFFS 0
      PLAYRATE 1 1 0 -1 0 0.0025
      CHANMODE 0
      TAKECOLOR 30334544 R
      GUID {1FB7B787-2211-4876-A610-2D0B1A128380}
      RECPASS 63
      <SOURCE WAVE
        FILE "01-181209_1708.wav"
      >
      TAKE
      NAME 01-181209_1708.wav
      TAKEVOLPAN 0 1 -1
      SOFFS 27.42857142857143
      PLAYRATE 1 1 0 -1 0 0.0025
      CHANMODE 0
      TAKECOLOR 24010099 R
      GUID {ECD76B38-BA01-4856-8CC6-6FD7D77B89D1}
      RECPASS 64
      <SOURCE WAVE
        FILE "01-181209_1708.wav"
      >
      TAKE
      NAME 01-181209_1708.wav
      TAKEVOLPAN 0 1 -1
      SOFFS 54.85714285714285
      PLAYRATE 1 1 0 -1 0 0.0025
      CHANMODE 0
      TAKECOLOR 30597744 R
      GUID {70D86AC9-6F22-4C27-904B-32EEC4995ECC}
      RECPASS 65
      <SOURCE WAVE
        FILE "01-181209_1708.wav"
      >
      TAKE
      NAME 01-181209_1708.wav
      TAKEVOLPAN 0 1 -1
      SOFFS 82.28569160997732
      PLAYRATE 1 1 0 -1 0 0.0025
      CHANMODE 0
      TAKECOLOR 26650352 R
      GUID {328F9FCA-CA17-49FF-8A12-58BA7F4A2A6E}
      RECPASS 66
      <SOURCE WAVE
        FILE "01-181209_1708.wav"
      >
      TAKE
      NAME 01-181209_1708.wav
      TAKEVOLPAN 0 1 -1
      SOFFS 109.71428571428571
      PLAYRATE 1 1 0 -1 0 0.0025
      CHANMODE 0
      TAKECOLOR 24044746 R
      GUID {B16EA16D-B7E7-42E1-9F22-2FBCBF4873A5}
      RECPASS 67
      <SOURCE WAVE
        FILE "01-181209_1708.wav"
      >
      TAKE
      NAME 01-181209_1708.wav
      TAKEVOLPAN 0 1 -1
      SOFFS 137.14285714285714
      PLAYRATE 1 1 0 -1 0 0.0025
      CHANMODE 0
      TAKECOLOR 29960608 R
      GUID {09C8A72E-0243-4F16-9EC4-0CC561C9598B}
      RECPASS 68
      <SOURCE WAVE
        FILE "01-181209_1708.wav"
      >
      TAKE
      NAME 01-181209_1720.wav
      TAKEVOLPAN 0 1 -1
      SOFFS 27.40963718820862
      PLAYRATE 1 1 0 -1 0 0.0025
      CHANMODE 0
      TAKECOLOR 24003437 R
      GUID {4301907B-3A49-4216-9F8D-1F416C7F1D44}
      RECPASS 70
      <SOURCE WAVE
        FILE "01-181209_1720.wav"
      >
      TAKE NULL
      TAKE
      NAME 01-181209_1722.wav
      TAKEVOLPAN 0 1 -1
      SOFFS 0
      PLAYRATE 1 1 0 -1 0 0.0025
      CHANMODE 0
      TAKECOLOR 33277820 R
      GUID {0DD27ABA-8D60-4393-8DC7-D95E6A7EDEF7}
      RECPASS 71
      <SOURCE WAVE
        FILE "01-181209_1722.wav"
      >
      TAKE
      NAME 01-181209_1722.wav
      TAKEVOLPAN 0 1 -1
      SOFFS 27.42857142857143
      PLAYRATE 1 1 0 -1 0 0.0025
      CHANMODE 0
      TAKECOLOR 21917822 R
      GUID {ED7FD34B-0798-40E5-A45F-207BA5A9465D}
      RECPASS 72
      <SOURCE WAVE
        FILE "01-181209_1722.wav"
      >
      TAKE
      NAME 01-181209_1722.wav
      TAKEVOLPAN 0 1 -1
      SOFFS 54.85714285714285
      PLAYRATE 1 1 0 -1 0 0.0025
      CHANMODE 0
      TAKECOLOR 25921858 R
      GUID {C1C2C6F9-6108-4D42-963B-E79BDA49743D}
      RECPASS 73
      <SOURCE WAVE
        FILE "01-181209_1722.wav"
      >
      TAKE
      NAME 01-181209_1722.wav
      TAKEVOLPAN 0 1 -1
      SOFFS 82.28569160997732
      PLAYRATE 1 1 0 -1 0 0.0025
      CHANMODE 0
      TAKECOLOR 25752379 R
      GUID {EA253FB3-663F-4CF8-B316-3CDDA45E5095}
      RECPASS 74
      <SOURCE WAVE
        FILE "01-181209_1722.wav"
      >
      TAKE SEL
      NAME 01-181209_1843.wav
      TAKEVOLPAN 0 1 -1
      SOFFS 27.40963718820862
      PLAYRATE 1 1 0 -1 0 0.0025
      CHANMODE 0
      TAKECOLOR 28941541 R
      GUID {39CC7690-4685-4712-91DF-008077469B4C}
      RECPASS 119
      <SOURCE WAVE
        FILE "01-181209_1843.wav"
      >
      TAKE NULL
    >
    <ITEM
      POSITION 125.75818594104308
      SNAPOFFS 0
      LENGTH 14.81324263038549
      LOOP 0
      ALLTAKES 0
      FADEIN 1 0.01 0 1 0 0
      FADEOUT 1 0.01 0 1 0 0
      MUTE 0
      SEL 0
      IGUID {CB7E8690-0AA5-431D-A89A-B8C24EB2DC52}
      IID 47
      NAME 01-181209_1843.wav
      VOLPAN 1 0 1.372389 -1
      SOFFS 12.59639455782313
      PLAYRATE 1 1 0 -1 0 0.0025
      CHANMODE 0
      TAKECOLOR 23157112 R
      GUID {BBDE9149-2BCD-4AFA-B229-5B5F4935253E}
      RECPASS 118
      <SOURCE WAVE
        FILE "01-181209_1843.wav"
      >
    >
    <ITEM
      POSITION 140.57142857142858
      SNAPOFFS 0
      LENGTH 15.42857142857143
      LOOP 0
      ALLTAKES 0
      FADEIN 1 0.01 0 1 0 0
      FADEOUT 1 0.01 0 1 0 0
      MUTE 0
      SEL 0
      IGUID {0FB413B5-BEE9-4113-8C3D-D81D6126D86E}
      IID 51
      NAME 01-181209_1736.wav
      VOLPAN 1 0 1.728769 -1
      SOFFS 0
      PLAYRATE 1 1 0 -1 0 0.0025
      CHANMODE 0
      TAKECOLOR 29754245 R
      GUID {EEC1C51E-F7C6-44AB-8924-04C02FAB912F}
      RECPASS 85
      <SOURCE WAVE
        FILE "01-181209_1736.wav"
      >
    >
    <ITEM
      POSITION 156
      SNAPOFFS 0
      LENGTH 34.28571428571429
      LOOP 0
      ALLTAKES 0
      FADEIN 1 0.01 0 1 0 0
      FADEOUT 1 0 0 1 0 0
      MUTE 0
      SEL 0
      IGUID {FE8BFE16-8A73-4A3E-BA72-1F5FAECE2D82}
      IID 52
      NAME 01-181209_1855.wav
      VOLPAN 1 0 1.741368 -1
      SOFFS 34.28571428571429
      PLAYRATE 1 1 0 -1 0 0.0025
      CHANMODE 0
      TAKECOLOR 24484351 R
      GUID {CB8E2BDB-1C05-481B-B7EC-AB8328CD625F}
      RECPASS 122
      <SOURCE WAVE
        FILE "01-181209_1855.wav"
      >
    >
    <ITEM
      POSITION 203.90990929705217
      SNAPOFFS 0
      LENGTH 0.09009070294783
      LOOP 1
      ALLTAKES 0
      FADEIN 1 0.01 0 1 0 0
      FADEOUT 1 0.01 0 1 0 0
      MUTE 0
      SEL 0
      IGUID {8FDC6C53-12F5-46FE-8781-C08E83EDBB4B}
      IID 53
      NAME 01-181209_1759.wav
      VOLPAN 1 0 1 -1
      SOFFS 0
      PLAYRATE 1 1 0 -1 0 0.0025
      CHANMODE 0
      TAKECOLOR 33534319 R
      GUID {806EBF57-7388-4CC6-85B3-06A95F73BA55}
      RECPASS 95
      <SOURCE WAVE
        FILE "01-181209_1759.wav"
      >
      TAKE NULL
    >
    <ITEM
      POSITION 204
      SNAPOFFS 0
      LENGTH 25.71428571428572
      LOOP 0
      ALLTAKES 0
      FADEIN 1 0.01 0 1 0 0
      FADEOUT 1 0.01 0 1 0 0
      MUTE 0
      SEL 0
      IGUID {E78F0E3B-6289-45D6-A78D-384BEBA48848}
      IID 53
      NAME 01-181209_1759.wav
      VOLPAN 1 0 1 -1
      SOFFS 0.09009070294783
      PLAYRATE 1 1 0 -1 0 0.0025
      CHANMODE 0
      TAKECOLOR 33534319 R
      GUID {381B314E-5D3B-42FF-851B-6674F5B06D15}
      RECPASS 95
      <SOURCE WAVE
        FILE "01-181209_1759.wav"
      >
      TAKE
      NAME 01-181209_1759.wav
      TAKEVOLPAN 0 1 -1
      SOFFS 25.80437641723359
      PLAYRATE 1 1 0 -1 0 0.0025
      CHANMODE 0
      TAKECOLOR 23991229 R
      GUID {DF9C2138-6C83-4512-8478-F96C1EE3A7C5}
      RECPASS 96
      <SOURCE WAVE
        FILE "01-181209_1759.wav"
      >
    >
    <ITEM
      POSITION 234.85714285714286
      SNAPOFFS 0
      LENGTH 20.57142857142856
      LOOP 0
      ALLTAKES 0
      FADEIN 1 0.01 0 1 0 0
      FADEOUT 1 0.01 0 1 0 0
      MUTE 0
      SEL 0
      IGUID {277C8166-731F-44B6-B062-5561746FDEC3}
      IID 36
      NAME 01-181206_2142.wav
      VOLPAN 1 0 1.438551 -1
      SOFFS 0
      PLAYRATE 1 1 0 -1 0 0.0025
      CHANMODE 0
      TAKECOLOR 24042485 R
      GUID {A5CA825A-1461-4F25-83A1-8E094FB3599A}
      RECPASS 42
      <SOURCE WAVE
        FILE "01-181206_2142.wav"
      >
    >
    <ITEM
      POSITION 255.42857142857142
      SNAPOFFS 0
      LENGTH 13.71428571428575
      LOOP 0
      ALLTAKES 0
      FADEIN 1 0.01 0 1 0 0
      FADEOUT 1 0.01 0 1 0 0
      MUTE 0
      SEL 0
      IGUID {B2538903-7002-4121-BCD4-AD16DCD23164}
      IID 18
      NAME 01-181206_2130.wav
      VOLPAN 1 0 1.392354 -1
      SOFFS 123.42854875283446
      PLAYRATE 1 1 0 -1 0 0.0025
      CHANMODE 0
      TAKECOLOR 24447420 R
      GUID {7F4AAB6C-A342-4291-BE51-4C76EE23EE4D}
      RECPASS 36
      <SOURCE WAVE
        FILE "01-181206_2130.wav"
      >
    >
    <ITEM
      POSITION 269.14285714285717
      SNAPOFFS 0
      LENGTH 13.71428571428567
      LOOP 0
      ALLTAKES 0
      FADEIN 1 0.01 0 1 0 0
      FADEOUT 1 0.01 0 1 0 0
      MUTE 0
      SEL 0
      IGUID {FE930A66-440C-43EF-AA54-6EB0C5969621}
      IID 18
      NAME 01-181206_2130.wav
      VOLPAN 1 0 1.392354 -1
      SOFFS 123.42854875283446
      PLAYRATE 1 1 0 -1 0 0.0025
      CHANMODE 0
      TAKECOLOR 24447420 R
      GUID {F604E667-264D-41A1-B57D-CB83C2A0CCE6}
      RECPASS 36
      <SOURCE WAVE
        FILE "01-181206_2130.wav"
      >
    >
  >
  <TRACK {6AE8E977-E06D-4EF3-BBBF-C2F486CC2931}
    NAME "Drumkit - tremolo"
    PEAKCOL 16576
    BEAT -1
    AUTOMODE 0
    VOLPAN 1.37177745379402 0 -1 -1 1
    MUTESOLO 0 0 0
    IPHASE 0
    ISBUS 0 0
    BUSCOMP 0 0
    SHOWINMIX 1 0.6667 0.5 1 0.5 0 0 0
    FREEMODE 0
    SEL 0
    REC 0 0 0 0 0 0 0
    VU 2
    TRACKHEIGHT 0 0 0
    INQ 0 0 0 0.5 100 0 0 100
    NCHAN 2
    FX 1
    TRACKID {6AE8E977-E06D-4EF3-BBBF-C2F486CC2931}
    PERF 0
    MIDIOUT -1
    MAINSEND 1 0
    <FXCHAIN
      WNDRECT 24 52 655 408
      SHOW 0
      LASTSEL 0
      DOCKED 0
      BYPASS 0 0 0
      <VST "VSTi: KVLT Drums REDUX (x64) (It Might Get Loud Productions) (32 out)" "KVLT Drums REDUX 64bit.dll" 0 "" 1263946834
        UkxWS+5e7f4AAAAAIAAAAAEAAAAAAAAAAgAAAAAAAAAEAAAAAAAAAAgAAAAAAAAAEAAAAAAAAAAgAAAAAAAAAEAAAAAAAAAAgAAAAAAAAAAAAQAAAAAAAAACAAAAAAAA
        AAQAAAAAAAAACAAAAAAAAAAQAAAAAAAAACAAAAAAAAAAQAAAAAAAAACAAAAAAAAAAAABAAAAAAAAAAIAAAAAAAAABAAAAAAAAAAIAAAAAAAAABAAAAAAAAAAIAAAAAAA
        AABAAAAAAAAAAIAAAAAAAAAAAAEAAAAAAAAAAgAAAAAAAAAEAAAAAAAAAAgAAAAAAAAAEAAAAAAAAAAgAAAAAAAAAEAAAAAAAAAAgAAAAACSAgAAAQAAAAAAEAA=
        VkMyIYkCAAA8Um9vdD48QWxsVXNlclBhcmFtPjAuMjgzNDY1LDAuMjk5MjEzLDAuMzA3MDg3LDAuMzE0OTYxLDAuMzIyODM1LDAuMjkxMzM5LDAuMzc3OTUzLDAuMzcw
        MDc5LDAuMzM4NTgzLDAuMzMwNzA5LDAuMzQ2NDU3LDAuMzYyMjA1LDAuMjA0NzI0LDAuMzg1ODI3LDAuNDI1MTk3LDAuNDQ4ODE5LDAuNDQwOTQ1LDAuMjM2MjIsMC40
        MzMwNzEsMC40MDk0NDksMC40MTczMjMsMC40MDE1NzUsMC40NjQ1NjcsMC4yMTI1OTgsMC4yNDQwOTQsMCwwLDAsMCwwLDAsMCwwLDAsMCwwLDAsMCwwLDAsMCwwLjc0
        NTI4MywwLjUsMCwwLDAuNzkyNDUzLDAuNSwwLDAsMC43OTI0NTMsMC41LDAsMCwwLjc5MjQ1MywwLjUsMCwwLDAuNzkyNDUzLDAuNSwwLDAsMC43OTI0NTMsMC41LDAs
        MCwwLjcsMC4zNSwwLDAsMC43LDAuNjUsMCwwLDAuNywwLjgsMCwwLDAuNywwLjMsMCwwLDAuNywwLjMsMCwwLDAuNywwLjMsMCwwLDAuNywwLjMsMCwwLDAuNywwLjM1
        LDAsMCwwLjcsMC4zNSwwLDAsMC43LDAuNjUsMCwwLDAuNywwLjY1LDAsMCwwLjcsMC4yNSwwLDAsMC43LDAuMjUsMCwwLDAuNywwLjc1LDAsMCwwLjcsMC44LDAsMCww
        LjcsMC44LDAsMCwwLjcsMC44LDAsMCwwLjcsMC42NSwwLDAsMC43LDAuNjUsMC44LDAsMC41MzE5MTU8L0FsbFVzZXJQYXJhbT48L1Jvb3Q+AA==
        AAAQAAAA
      >
      FLOATPOS 0 0 0 0
      FXID {B5A27033-F8E5-4CF7-B20E-F960128B7708}
      WAK 0
    >
    <ITEM
      POSITION 0
      SNAPOFFS 0
      LENGTH 289.71428571423581
      LOOP 1
      ALLTAKES 0
      FADEIN 1 0 0 1 0 0
      FADEOUT 1 0 0 1 0 0
      MUTE 0
      SEL 0
      IGUID {DD802DAB-16EA-45E0-AF31-41CC89253EB3}
      IID 44
      NAME "Drumkit - tremolo19.mid"
      VOLPAN 1 0 1 -1
      SOFFS 0.00000000004989 0.00000000011641
      PLAYRATE 1 1 0 -1 0 0.0025
      CHANMODE 0
      GUID {56C9E8C3-C464-4A81-ABEF-9070F621CFFD}
      <SOURCE MIDI
        HASDATA 1 480 QN
        POOLEDEVTS {A08E0324-ED77-4E7A-A6C7-0F5A2E0D4DD7}
        <X 0 0 0 0 3 Drumkit
          /wNEcnVta2l0
        >
        E 0 c9 00 00
        E 0 99 2a 48
        E 960 89 2a 40
        E 0 99 2a 48
        E 960 89 2a 40
        E 0 99 2a 48
        E 960 89 2a 40
        E 0 99 2a 48
        E 960 89 2a 40
        E 0 99 2a 48
        E 960 89 2a 40
        E 0 99 2a 48
        E 960 89 2a 40
        E 0 99 2a 48
        E 960 89 2a 40
        E 0 99 2a 48
        E 960 89 2a 40
        E 0 99 2a 48
        E 960 89 2a 40
        E 0 99 2a 48
        E 960 89 2a 40
        E 0 99 2a 48
        E 960 89 2a 40
        E 0 99 2a 48
        E 960 89 2a 40
        E 0 99 2a 48
        E 960 89 2a 40
        E 0 99 2a 48
        E 960 89 2a 40
        E 0 99 2a 48
        E 960 89 2a 40
        E 0 99 2a 48
        E 960 89 2a 40
        E 0 99 2a 48
        E 960 89 2a 40
        E 0 99 2a 48
        E 960 89 2a 40
        E 0 99 2a 48
        E 960 89 2a 40
        E 0 99 2a 48
        E 960 89 2a 40
        E 0 99 2a 48
        E 960 89 2a 40
        E 0 99 2a 48
        E 960 89 2a 40
        E 0 99 2a 48
        E 960 89 2a 40
        E 0 99 2a 48
        E 960 89 2a 40
        E 0 99 2a 48
        E 960 89 2a 40
        E 0 99 2a 48
        E 960 89 2a 40
        E 0 99 2a 48
        E 960 89 2a 40
        E 0 99 2a 48
        E 960 89 2a 40
        E 0 99 2a 48
        E 960 89 2a 40
        E 0 99 2a 48
        E 960 89 2a 40
        E 0 99 2a 48
        E 960 89 2a 40
        E 0 99 2a 48
        E 960 89 2a 40
        E 0 99 31 48
        E 1920 89 31 40
        E 0 99 39 50
        E 0 99 24 50
        E 120 89 39 40
        E 0 89 24 40
        E 0 99 24 50
        E 120 89 24 40
        E 0 99 24 50
        E 120 89 24 40
        E 0 99 24 50
        E 120 89 24 40
        E 0 99 31 50
        E 0 99 26 50
        E 0 99 24 50
        E 120 89 31 40
        E 0 89 26 40
        E 0 89 24 40
        E 0 99 24 50
        E 120 89 24 40
        E 0 99 24 50
        E 120 89 24 40
        E 0 99 24 50
        E 120 89 24 40
        E 0 99 24 50
        E 120 89 24 40
        E 0 99 24 50
        E 120 89 24 40
        E 0 99 24 50
        E 120 89 24 40
        E 0 99 24 50
        E 120 89 24 40
        E 0 99 26 50
        E 0 99 24 50
        E 120 89 26 40
        E 0 89 24 40
        E 0 99 26 50
        E 0 99 24 50
        E 120 89 26 40
        E 0 89 24 40
        E 0 99 26 50
        E 0 99 24 50
        E 120 89 26 40
        E 0 89 24 40
        E 0 99 26 50
        E 0 99 24 50
        E 120 89 26 40
        E 0 89 24 40
        E 0 99 2e 58
        E 0 99 24 58
        E 120 89 2e 40
        E 0 89 24 40
        E 0 99 24 58
        E 120 89 24 40
        E 0 99 24 58
        E 120 89 24 40
        E 0 99 24 58
        E 120 89 24 40
        E 0 99 2e 58
        E 0 99 26 58
        E 0 99 24 58
        E 120 89 2e 40
        E 0 89 26 40
        E 0 89 24 40
        E 0 99 24 58
        E 120 89 24 40
        E 0 99 24 58
        E 120 89 24 40
        E 0 99 24 58
        E 120 89 24 40
        E 0 99 2e 58
        E 0 99 24 58
        E 120 89 2e 40
        E 0 89 24 40
        E 0 99 24 58
        E 120 89 24 40
        E 0 99 24 58
        E 120 89 24 40
        E 0 99 24 58
        E 120 89 24 40
        E 0 99 2e 58
        E 0 99 26 58
        E 0 99 24 58
        E 120 89 2e 40
        E 0 89 26 40
        E 0 89 24 40
        E 0 99 24 58
        E 120 89 24 40
        E 0 99 24 58
        E 120 89 24 40
        E 0 99 24 58
        E 120 89 24 40
        E 0 99 2e 58
        E 0 99 24 58
        E 120 89 2e 40
        E 0 89 24 40
        E 0 99 24 58
        E 120 89 24 40
        E 0 99 24 58
        E 120 89 24 40
        E 0 99 24 58
        E 120 89 24 40
        E 0 99 2e 58
        E 0 99 26 58
        E 0 99 24 58
        E 120 89 2e 40
        E 0 89 26 40
        E 0 89 24 40
        E 0 99 24 58
        E 120 89 24 40
        E 0 99 24 58
        E 120 89 24 40
        E 0 99 24 58
        E 120 89 24 40
        E 0 99 2e 58
        E 0 99 24 58
        E 120 89 2e 40
        E 0 89 24 40
        E 0 99 24 58
        E 120 89 24 40
        E 0 99 24 58
        E 120 89 24 40
        E 0 99 24 58
        E 120 89 24 40
        E 0 99 2e 58
        E 0 99 26 58
        E 0 99 24 58
        E 120 89 2e 40
        E 0 89 26 40
        E 0 89 24 40
        E 0 99 24 58
        E 120 89 24 40
        E 0 99 24 58
        E 120 89 24 40
        E 0 99 26 58
        E 0 99 24 58
        E 120 89 26 40
        E 0 89 24 40
        E 0 99 2e 58
        E 0 99 24 58
        E 120 89 2e 40
        E 0 89 24 40
        E 0 99 24 58
        E 120 89 24 40
        E 0 99 24 58
        E 120 89 24 40
        E 0 99 24 58
        E 120 89 24 40
        E 0 99 2e 58
        E 0 99 26 58
        E 0 99 24 58
        E 120 89 2e 40
        E 0 89 26 40
        E 0 89 24 40
        E 0 99 24 58
        E 120 89 24 40
        E 0 99 24 58
        E 120 89 24 40
        E 0 99 24 58
        E 120 89 24 40
        E 0 99 2e 58
        E 0 99 24 58
        E 120 89 2e 40
        E 0 89 24 40
        E 0 99 24 58
        E 120 89 24 40
        E 0 99 24 58
        E 120 89 24 40
        E 0 99 24 58
        E 120 89 24 40
        E 0 99 2e 58
        E 0 99 26 58
        E 0 99 24 58
        E 120 89 2e 40
        E 0 89 26 40
        E 0 89 24 40
        E 0 99 24 58
        E 120 89 24 40
        E 0 99 24 58
        E 120 89 24 40
        E 0 99 24 58
        E 120 89 24 40
        E 0 99 2e 58
        E 0 99 26 58
        E 0 99 24 58
        E 120 89 2e 40
        E 0 89 26 40
        E 0 89 24 40
        E 0 99 24 58
        E 120 89 24 40
        E 0 99 24 58
        E 120 89 24 40
        E 0 99 2e 58
        E 0 99 26 58
        E 0 99 24 58
        E 120 89 2e 40
        E 0 89 26 40
        E 0 89 24 40
        E 0 99 24 58
        E 120 89 24 40
        E 0 99 24 58
        E 120 89 24 40
        E 0 99 2e 58
        E 0 99 26 58
        E 0 99 24 58
        E 120 89 2e 40
        E 0 89 26 40
        E 0 89 24 40
        E 0 99 24 58
        E 120 89 24 40
        E 0 99 24 58
        E 120 89 24 40
        E 0 99 2e 58
        E 0 99 26 58
        E 0 99 24 58
        E 120 89 2e 40
        E 0 89 26 40
        E 0 89 24 40
        E 0 99 24 58
        E 120 89 24 40
        E 0 99 24 58
        E 120 89 24 40
        E 0 99 2e 58
        E 0 99 26 58
        E 0 99 24 58
        E 120 89 2e 40
        E 0 89 26 40
        E 0 89 24 40
        E 0 99 24 58
        E 120 89 24 40
        E 0 99 37 58
        E 0 99 26 58
        E 0 99 24 58
        E 120 89 37 40
        E 0 89 26 40
        E 0 89 24 40
        E 0 99 26 58
        E 0 99 24 58
        E 120 89 26 40
        E 0 89 24 40
        E 0 99 2e 58
        E 0 99 24 58
        E 120 89 2e 40
        E 0 89 24 40
        E 0 99 24 58
        E 120 89 24 40
        E 0 99 24 58
        E 120 89 24 40
        E 0 99 24 58
        E 120 89 24 40
        E 0 99 2e 58
        E 0 99 26 58
        E 0 99 24 58
        E 120 89 2e 40
        E 0 89 26 40
        E 0 89 24 40
        E 0 99 24 58
        E 120 89 24 40
        E 0 99 24 58
        E 120 89 24 40
        E 0 99 24 58
        E 120 89 24 40
        E 0 99 2e 58
        E 0 99 24 58
        E 120 89 2e 40
        E 0 89 24 40
        E 0 99 24 58
        E 120 89 24 40
        E 0 99 24 58
        E 120 89 24 40
        E 0 99 24 58
        E 120 89 24 40
        E 0 99 2e 58
        E 0 99 26 58
        E 0 99 24 58
        E 120 89 2e 40
        E 0 89 26 40
        E 0 89 24 40
        E 0 99 24 58
        E 120 89 24 40
        E 0 99 24 58
        E 120 89 24 40
        E 0 99 24 58
        E 120 89 24 40
        E 0 99 2e 58
        E 0 99 24 58
        E 120 89 2e 40
        E 0 89 24 40
        E 0 99 24 58
        E 120 89 24 40
        E 0 99 24 58
        E 120 89 24 40
        E 0 99 24 58
        E 120 89 24 40
        E 0 99 2e 58
        E 0 99 26 58
        E 0 99 24 58
        E 120 89 2e 40
        E 0 89 26 40
        E 0 89 24 40
        E 0 99 24 58
        E 120 89 24 40
        E 0 99 24 58
        E 120 89 24 40
        E 0 99 24 58
        E 120 89 24 40
        E 0 99 2e 58
        E 0 99 24 58
        E 120 89 2e 40
        E 0 89 24 40
        E 0 99 24 58
        E 120 89 24 40
        E 0 99 24 58
        E 120 89 24 40
        E 0 99 24 58
        E 120 89 24 40
        E 0 99 2e 58
        E 0 99 26 58
        E 0 99 24 58
        E 120 89 2e 40
        E 0 89 26 40
        E 0 89 24 40
        E 0 99 24 58
        E 120 89 24 40
        E 0 99 24 58
        E 120 89 24 40
        E 0 99 24 58
        E 120 89 24 40
        E 0 99 39 48
        E 0 99 26 48
        E 0 99 24 48
        E 120 89 39 40
        E 0 89 26 40
        E 0 89 24 40
        E 0 99 26 48
        E 0 99 24 48
        E 120 89 26 40
        E 0 89 24 40
        E 0 99 24 48
        E 120 89 24 40
        E 0 99 24 48
        E 120 89 24 40
        E 0 99 26 48
        E 0 99 24 48
        E 120 89 26 40
        E 0 89 24 40
        E 0 99 26 48
        E 0 99 24 48
        E 120 89 26 40
        E 0 89 24 40
        E 0 99 26 48
        E 0 99 24 48
        E 120 89 26 40
        E 0 89 24 40
        E 0 99 26 48
        E 0 99 24 48
        E 120 89 26 40
        E 0 89 24 40
        E 0 99 2d 48
        E 0 99 24 48
        E 120 89 2d 40
        E 0 89 24 40
        E 0 99 2d 48
        E 0 99 24 48
        E 120 89 2d 40
        E 0 89 24 40
        E 0 99 2d 48
        E 0 99 24 48
        E 120 89 2d 40
        E 0 89 24 40
        E 0 99 2d 48
        E 0 99 24 48
        E 120 89 2d 40
        E 0 89 24 40
        E 0 99 2b 48
        E 0 99 24 48
        E 120 89 2b 40
        E 0 89 24 40
        E 0 99 2b 48
        E 0 99 24 48
        E 120 89 2b 40
        E 0 89 24 40
        E 0 99 2b 48
        E 0 99 24 48
        E 120 89 2b 40
        E 0 89 24 40
        E 0 99 2b 48
        E 0 99 24 48
        E 120 89 2b 40
        E 0 89 24 40
        E 0 99 2e 48
        E 0 99 26 48
        E 0 99 24 48
        E 120 89 2e 40
        E 0 89 26 40
        E 0 89 24 40
        E 0 99 24 48
        E 120 89 24 40
        E 0 99 24 48
        E 120 89 24 40
        E 0 99 24 48
        E 120 89 24 40
        E 0 99 2e 48
        E 0 99 26 48
        E 0 99 24 48
        E 120 89 2e 40
        E 0 89 26 40
        E 0 89 24 40
        E 0 99 24 48
        E 120 89 24 40
        E 0 99 24 48
        E 120 89 24 40
        E 0 99 24 48
        E 120 89 24 40
        E 0 99 2e 48
        E 0 99 26 48
        E 0 99 24 48
        E 120 89 2e 40
        E 0 89 26 40
        E 0 89 24 40
        E 0 99 24 48
        E 120 89 24 40
        E 0 99 24 48
        E 120 89 24 40
        E 0 99 24 48
        E 120 89 24 40
        E 0 99 31 48
        E 0 99 26 48
        E 0 99 24 48
        E 120 89 31 40
        E 0 89 26 40
        E 0 89 24 40
        E 0 99 24 48
        E 120 89 24 40
        E 0 99 31 48
        E 0 99 26 48
        E 0 99 24 48
        E 120 89 31 40
        E 0 89 26 40
        E 0 89 24 40
        E 0 99 26 48
        E 0 99 24 48
        E 120 89 26 40
        E 0 89 24 40
        E 0 99 26 58
        E 0 99 24 58
        E 0 99 2e 58
        E 120 89 26 40
        E 0 89 24 40
        E 0 89 2e 40
        E 0 99 24 58
        E 120 89 24 40
        E 0 99 24 58
        E 120 89 24 40
        E 0 99 24 58
        E 120 89 24 40
        E 0 99 26 58
        E 0 99 24 58
        E 120 89 26 40
        E 0 89 24 40
        E 0 99 24 58
        E 120 89 24 40
        E 0 99 24 58
        E 120 89 24 40
        E 0 99 24 58
        E 120 89 24 40
        E 0 99 26 58
        E 0 99 24 58
        E 120 89 26 40
        E 0 89 24 40
        E 0 99 24 58
        E 120 89 24 40
        E 0 99 24 58
        E 120 89 24 40
        E 0 99 24 58
        E 120 89 24 40
        E 0 99 26 58
        E 0 99 24 58
        E 120 89 26 40
        E 0 89 24 40
        E 0 99 24 58
        E 120 89 24 40
        E 0 99 24 58
        E 120 89 24 40
        E 0 99 24 58
        E 120 89 24 40
        E 0 99 26 58
        E 0 99 24 58
        E 0 99 2e 58
        E 120 89 26 40
        E 0 89 24 40
        E 0 89 2e 40
        E 0 99 24 58
        E 120 89 24 40
        E 0 99 24 58
        E 120 89 24 40
        E 0 99 24 58
        E 120 89 24 40
        E 0 99 26 58
        E 0 99 24 58
        E 120 89 26 40
        E 0 89 24 40
        E 0 99 24 58
        E 120 89 24 40
        E 0 99 24 58
        E 120 89 24 40
        E 0 99 24 58
        E 120 89 24 40
        E 0 99 26 58
        E 0 99 24 58
        E 120 89 26 40
        E 0 89 24 40
        E 0 99 24 58
        E 120 89 24 40
        E 0 99 24 58
        E 120 89 24 40
        E 0 99 24 58
        E 120 89 24 40
        E 0 99 26 58
        E 0 99 24 58
        E 120 89 26 40
        E 0 89 24 40
        E 0 99 24 58
        E 120 89 24 40
        E 0 99 24 58
        E 120 89 24 40
        E 0 99 24 58
        E 120 89 24 40
        E 0 99 26 58
        E 0 99 24 58
        E 120 89 26 40
        E 0 89 24 40
        E 0 99 24 58
        E 120 89 24 40
        E 0 99 24 58
        E 120 89 24 40
        E 0 99 24 58
        E 120 89 24 40
        E 0 99 26 58
        E 0 99 24 58
        E 120 89 26 40
        E 0 89 24 40
        E 0 99 24 58
        E 120 89 24 40
        E 0 99 24 58
        E 120 89 24 40
        E 0 99 24 58
        E 120 89 24 40
        E 0 99 26 58
        E 0 99 24 58
        E 120 89 26 40
        E 0 89 24 40
        E 0 99 24 58
        E 120 89 24 40
        E 0 99 24 58
        E 120 89 24 40
        E 0 99 24 58
        E 120 89 24 40
        E 0 99 2e 58
        E 0 99 26 58
        E 0 99 24 58
        E 120 89 2e 40
        E 0 89 26 40
        E 0 89 24 40
        E 0 99 24 58
        E 120 89 24 40
        E 0 99 24 58
        E 0 99 5c 58
        E 120 89 24 40
        E 0 89 5c 40
        E 0 99 24 58
        E 120 89 24 40
        E 0 99 2e 58
        E 0 99 26 58
        E 0 99 24 58
        E 120 89 2e 40
        E 0 89 26 40
        E 0 89 24 40
        E 0 99 24 58
        E 120 89 24 40
        E 0 99 24 58
        E 120 89 24 40
        E 0 99 24 58
        E 120 89 24 40
        E 0 99 26 58
        E 0 99 24 58
        E 120 89 26 40
        E 0 89 24 40
        E 0 99 24 58
        E 120 89 24 40
        E 0 99 24 58
        E 120 89 24 40
        E 0 99 24 58
        E 120 89 24 40
        E 0 99 2e 58
        E 0 99 26 58
        E 0 99 24 58
        E 120 89 2e 40
        E 0 89 26 40
        E 0 89 24 40
        E 0 99 24 58
        E 120 89 24 40
        E 0 99 24 58
        E 120 89 24 40
        E 0 99 24 58
        E 120 89 24 40
        E 0 99 26 58
        E 0 99 24 58
        E 120 89 26 40
        E 0 89 24 40
        E 0 99 24 58
        E 120 89 24 40
        E 0 99 24 58
        E 120 89 24 40
        E 0 99 24 58
        E 120 89 24 40
        E 0 99 26 58
        E 0 99 24 58
        E 0 99 2e 58
        E 120 89 26 40
        E 0 89 24 40
        E 0 89 2e 40
        E 0 99 24 58
        E 120 89 24 40
        E 0 99 24 58
        E 120 89 24 40
        E 0 99 24 58
        E 120 89 24 40
        E 0 99 26 58
        E 0 99 24 58
        E 120 89 26 40
        E 0 89 24 40
        E 0 99 24 58
        E 120 89 24 40
        E 0 99 24 58
        E 120 89 24 40
        E 0 99 24 58
        E 120 89 24 40
        E 0 99 26 58
        E 0 99 24 58
        E 120 89 26 40
        E 0 89 24 40
        E 0 99 24 58
        E 120 89 24 40
        E 0 99 24 58
        E 120 89 24 40
        E 0 99 24 58
        E 120 89 24 40
        E 0 99 26 58
        E 0 99 24 58
        E 120 89 26 40
        E 0 89 24 40
        E 0 99 24 58
        E 120 89 24 40
        E 0 99 24 58
        E 120 89 24 40
        E 0 99 24 58
        E 120 89 24 40
        E 0 99 2e 58
        E 0 99 26 58
        E 0 99 24 58
        E 120 89 2e 40
        E 0 89 26 40
        E 0 89 24 40
        E 0 99 24 58
        E 120 89 24 40
        E 0 99 24 58
        E 120 89 24 40
        E 0 99 24 58
        E 120 89 24 40
        E 0 99 26 58
        E 0 99 24 58
        E 120 89 26 40
        E 0 89 24 40
        E 0 99 24 58
        E 120 89 24 40
        E 0 99 24 58
        E 120 89 24 40
        E 0 99 24 58
        E 120 89 24 40
        E 0 99 26 58
        E 0 99 24 58
        E 120 89 26 40
        E 0 89 24 40
        E 0 99 24 58
        E 120 89 24 40
        E 0 99 24 58
        E 120 89 24 40
        E 0 99 24 58
        E 120 89 24 40
        E 0 99 26 58
        E 0 99 24 58
        E 120 89 26 40
        E 0 89 24 40
        E 0 99 24 58
        E 120 89 24 40
        E 0 99 24 58
        E 120 89 24 40
        E 0 99 24 58
        E 120 89 24 40
        E 0 99 2e 58
        E 0 99 26 58
        E 0 99 24 58
        E 120 89 2e 40
        E 0 89 26 40
        E 0 89 24 40
        E 0 99 24 58
        E 120 89 24 40
        E 0 99 24 58
        E 120 89 24 40
        E 0 99 24 58
        E 120 89 24 40
        E 0 99 26 58
        E 0 99 24 58
        E 120 89 26 40
        E 0 89 24 40
        E 0 99 24 58
        E 120 89 24 40
        E 0 99 24 58
        E 120 89 24 40
        E 0 99 24 58
        E 120 89 24 40
        E 0 99 26 58
        E 0 99 24 58
        E 120 89 26 40
        E 0 89 24 40
        E 0 99 24 58
        E 120 89 24 40
        E 0 99 24 58
        E 120 89 24 40
        E 0 99 24 58
        E 120 89 24 40
        E 0 99 2e 58
        E 0 99 26 58
        E 0 99 24 58
        E 120 89 2e 40
        E 0 89 26 40
        E 0 89 24 40
        E 0 99 24 58
        E 120 89 24 40
        E 0 99 24 58
        E 0 99 5c 58
        E 120 89 24 40
        E 0 89 5c 40
        E 0 99 24 58
        E 120 89 24 40
        E 0 99 2e 58
        E 0 99 26 58
        E 0 99 24 58
        E 120 89 2e 40
        E 0 89 26 40
        E 0 89 24 40
        E 0 99 24 58
        E 120 89 24 40
        E 0 99 24 58
        E 120 89 24 40
        E 0 99 24 58
        E 120 89 24 40
        E 0 99 26 58
        E 0 99 24 58
        E 120 89 26 40
        E 0 89 24 40
        E 0 99 24 58
        E 120 89 24 40
        E 0 99 24 58
        E 120 89 24 40
        E 0 99 24 58
        E 120 89 24 40
        E 0 99 2e 58
        E 0 99 26 58
        E 0 99 24 58
        E 120 89 2e 40
        E 0 89 26 40
        E 0 89 24 40
        E 0 99 24 58
        E 120 89 24 40
        E 0 99 24 58
        E 120 89 24 40
        E 0 99 24 58
        E 120 89 24 40
        E 0 99 2e 58
        E 0 99 26 58
        E 0 99 24 58
        E 120 89 2e 40
        E 0 89 26 40
        E 0 89 24 40
        E 0 99 24 58
        E 120 89 24 40
        E 0 99 24 58
        E 120 89 24 40
        E 0 99 24 58
        E 120 89 24 40
        E 0 99 24 58
        E 0 99 39 58
        E 1920 89 24 40
        E 0 89 39 40
        E 13440 99 24 48
        E 0 99 35 48
        E 240 89 24 40
        E 0 89 35 40
        E 0 99 26 48
        E 0 99 24 48
        E 240 89 26 40
        E 0 89 24 40
        E 0 99 24 48
        E 0 99 35 48
        E 120 89 24 40
        E 0 89 35 40
        E 0 99 24 48
        E 120 89 24 40
        E 0 99 26 48
        E 0 99 24 48
        E 0 99 35 48
        E 240 89 26 40
        E 0 89 24 40
        E 0 89 35 40
        E 0 99 24 48
        E 240 89 24 40
        E 0 99 26 48
        E 0 99 24 48
        E 0 99 35 48
        E 240 89 26 40
        E 0 89 24 40
        E 0 89 35 40
        E 0 99 24 48
        E 120 89 24 40
        E 0 99 24 48
        E 120 89 24 40
        E 0 99 26 48
        E 0 99 24 48
        E 0 99 35 48
        E 240 89 26 40
        E 0 89 24 40
        E 0 89 35 40
        E 0 99 24 48
        E 0 99 35 48
        E 240 89 24 40
        E 0 89 35 40
        E 0 99 26 48
        E 0 99 24 48
        E 240 89 26 40
        E 0 89 24 40
        E 0 99 24 48
        E 0 99 35 48
        E 120 89 24 40
        E 0 89 35 40
        E 0 99 24 48
        E 120 89 24 40
        E 0 99 26 48
        E 0 99 24 48
        E 240 89 26 40
        E 0 89 24 40
        E 0 99 24 48
        E 0 99 35 48
        E 240 89 24 40
        E 0 89 35 40
        E 0 99 26 48
        E 0 99 24 48
        E 240 89 26 40
        E 0 89 24 40
        E 0 99 24 48
        E 0 99 35 48
        E 120 89 24 40
        E 0 89 35 40
        E 0 99 24 48
        E 120 89 24 40
        E 0 99 26 48
        E 0 99 24 48
        E 240 89 26 40
        E 0 89 24 40
        E 0 99 24 48
        E 0 99 35 48
        E 240 89 24 40
        E 0 89 35 40
        E 0 99 26 48
        E 0 99 24 48
        E 240 89 26 40
        E 0 89 24 40
        E 0 99 24 48
        E 0 99 35 48
        E 120 89 24 40
        E 0 89 35 40
        E 0 99 24 48
        E 120 89 24 40
        E 0 99 26 48
        E 0 99 24 48
        E 0 99 35 48
        E 240 89 26 40
        E 0 89 24 40
        E 0 89 35 40
        E 0 99 24 48
        E 240 89 24 40
        E 0 99 26 48
        E 0 99 24 48
        E 0 99 35 48
        E 240 89 26 40
        E 0 89 24 40
        E 0 89 35 40
        E 0 99 24 48
        E 0 99 35 48
        E 120 89 24 40
        E 0 89 35 40
        E 0 99 24 48
        E 120 89 24 40
        E 0 99 26 48
        E 0 99 24 48
        E 0 99 35 48
        E 240 89 26 40
        E 0 89 24 40
        E 0 89 35 40
        E 0 99 24 48
        E 0 99 35 48
        E 240 89 24 40
        E 0 89 35 40
        E 0 99 26 48
        E 0 99 24 48
        E 240 89 26 40
        E 0 89 24 40
        E 0 99 24 48
        E 0 99 35 48
        E 120 89 24 40
        E 0 89 35 40
        E 0 99 24 48
        E 120 89 24 40
        E 0 99 26 48
        E 0 99 24 48
        E 0 99 35 48
        E 240 89 26 40
        E 0 89 24 40
        E 0 89 35 40
        E 0 99 24 48
        E 240 89 24 40
        E 0 99 26 48
        E 0 99 24 48
        E 0 99 35 48
        E 240 89 26 40
        E 0 89 24 40
        E 0 89 35 40
        E 0 99 24 48
        E 0 99 35 48
        E 120 89 24 40
        E 0 89 35 40
        E 0 99 24 48
        E 120 89 24 40
        E 0 99 26 48
        E 0 99 24 48
        E 0 99 35 48
        E 240 89 26 40
        E 0 89 24 40
        E 0 89 35 40
        E 0 99 24 48
        E 0 99 35 48
        E 240 89 24 40
        E 0 89 35 40
        E 0 99 26 48
        E 0 99 24 48
        E 240 89 26 40
        E 0 89 24 40
        E 0 99 24 48
        E 0 99 35 48
        E 120 89 24 40
        E 0 89 35 40
        E 0 99 24 48
        E 120 89 24 40
        E 0 99 26 48
        E 0 99 24 48
        E 0 99 35 48
        E 240 89 26 40
        E 0 89 24 40
        E 0 89 35 40
        E 0 99 24 48
        E 240 89 24 40
        E 0 99 26 48
        E 0 99 24 48
        E 0 99 35 48
        E 240 89 26 40
        E 0 89 24 40
        E 0 89 35 40
        E 0 99 24 48
        E 120 89 24 40
        E 0 99 24 48
        E 120 89 24 40
        E 0 99 26 48
        E 0 99 24 48
        E 0 99 35 48
        E 240 89 26 40
        E 0 89 24 40
        E 0 89 35 40
        E 0 99 24 48
        E 0 99 35 48
        E 240 89 24 40
        E 0 89 35 40
        E 0 99 26 48
        E 0 99 24 48
        E 240 89 26 40
        E 0 89 24 40
        E 0 99 24 48
        E 0 99 35 48
        E 120 89 24 40
        E 0 89 35 40
        E 0 99 24 48
        E 120 89 24 40
        E 0 99 26 48
        E 0 99 24 48
        E 240 89 26 40
        E 0 89 24 40
        E 0 99 24 48
        E 0 99 35 48
        E 240 89 24 40
        E 0 89 35 40
        E 0 99 26 48
        E 0 99 24 48
        E 240 89 26 40
        E 0 89 24 40
        E 0 99 24 48
        E 0 99 35 48
        E 120 89 24 40
        E 0 89 35 40
        E 0 99 24 48
        E 120 89 24 40
        E 0 99 26 48
        E 0 99 24 48
        E 240 89 26 40
        E 0 89 24 40
        E 0 99 24 48
        E 0 99 35 48
        E 240 89 24 40
        E 0 89 35 40
        E 0 99 26 48
        E 0 99 24 48
        E 240 89 26 40
        E 0 89 24 40
        E 0 99 24 48
        E 0 99 35 48
        E 120 89 24 40
        E 0 89 35 40
        E 0 99 24 48
        E 120 89 24 40
        E 0 99 26 48
        E 0 99 24 48
        E 0 99 35 48
        E 240 89 26 40
        E 0 89 24 40
        E 0 89 35 40
        E 0 99 24 48
        E 240 89 24 40
        E 0 99 26 48
        E 0 99 24 48
        E 0 99 35 48
        E 240 89 26 40
        E 0 89 24 40
        E 0 89 35 40
        E 0 99 24 48
        E 0 99 35 48
        E 120 89 24 40
        E 0 89 35 40
        E 0 99 24 48
        E 120 89 24 40
        E 0 99 26 48
        E 0 99 24 48
        E 0 99 35 48
        E 240 89 26 40
        E 0 89 24 40
        E 0 89 35 40
        E 0 99 24 48
        E 0 99 35 48
        E 240 89 24 40
        E 0 89 35 40
        E 0 99 26 48
        E 0 99 24 48
        E 240 89 26 40
        E 0 89 24 40
        E 0 99 24 48
        E 0 99 35 48
        E 120 89 24 40
        E 0 89 35 40
        E 0 99 24 48
        E 120 89 24 40
        E 0 99 26 48
        E 0 99 24 48
        E 240 89 26 40
        E 0 89 24 40
        E 0 99 24 48
        E 0 99 35 48
        E 240 89 24 40
        E 0 89 35 40
        E 0 99 26 48
        E 0 99 24 48
        E 240 89 26 40
        E 0 89 24 40
        E 0 99 24 48
        E 0 99 35 48
        E 120 89 24 40
        E 0 89 35 40
        E 0 99 24 48
        E 120 89 24 40
        E 0 99 26 48
        E 0 99 24 48
        E 240 89 26 40
        E 0 89 24 40
        E 0 99 24 48
        E 0 99 35 48
        E 240 89 24 40
        E 0 89 35 40
        E 0 99 26 48
        E 0 99 24 48
        E 240 89 26 40
        E 0 89 24 40
        E 0 99 24 48
        E 0 99 35 48
        E 120 89 24 40
        E 0 89 35 40
        E 0 99 24 48
        E 120 89 24 40
        E 0 99 26 48
        E 0 99 24 48
        E 0 99 35 48
        E 240 89 26 40
        E 0 89 24 40
        E 0 89 35 40
        E 0 99 24 48
        E 240 89 24 40
        E 0 99 26 48
        E 0 99 24 48
        E 0 99 35 48
        E 240 89 26 40
        E 0 89 24 40
        E 0 89 35 40
        E 0 99 24 48
        E 120 89 24 40
        E 0 99 24 48
        E 120 89 24 40
        E 0 99 26 48
        E 0 99 24 48
        E 0 99 35 48
        E 240 89 26 40
        E 0 89 24 40
        E 0 89 35 40
        E 0 99 24 48
        E 0 99 35 48
        E 240 89 24 40
        E 0 89 35 40
        E 0 99 26 48
        E 0 99 24 48
        E 240 89 26 40
        E 0 89 24 40
        E 0 99 24 48
        E 0 99 35 48
        E 120 89 24 40
        E 0 89 35 40
        E 0 99 24 48
        E 120 89 24 40
        E 0 99 26 48
        E 0 99 24 48
        E 240 89 26 40
        E 0 89 24 40
        E 0 99 24 48
        E 0 99 35 48
        E 240 89 24 40
        E 0 89 35 40
        E 0 99 26 48
        E 0 99 24 48
        E 240 89 26 40
        E 0 89 24 40
        E 0 99 24 48
        E 0 99 35 48
        E 120 89 24 40
        E 0 89 35 40
        E 0 99 24 48
        E 120 89 24 40
        E 0 99 26 48
        E 0 99 24 48
        E 240 89 26 40
        E 0 89 24 40
        E 0 99 24 48
        E 0 99 35 48
        E 240 89 24 40
        E 0 89 35 40
        E 0 99 26 48
        E 0 99 24 48
        E 240 89 26 40
        E 0 89 24 40
        E 0 99 24 48
        E 0 99 35 48
        E 120 89 24 40
        E 0 89 35 40
        E 0 99 24 48
        E 120 89 24 40
        E 0 99 26 48
        E 0 99 24 48
        E 0 99 35 48
        E 240 89 26 40
        E 0 89 24 40
        E 0 89 35 40
        E 0 99 24 48
        E 240 89 24 40
        E 0 99 26 48
        E 0 99 24 48
        E 0 99 35 48
        E 240 89 26 40
        E 0 89 24 40
        E 0 89 35 40
        E 0 99 24 48
        E 0 99 35 48
        E 120 89 24 40
        E 0 89 35 40
        E 0 99 24 48
        E 120 89 24 40
        E 0 99 26 48
        E 0 99 24 48
        E 0 99 35 48
        E 240 89 26 40
        E 0 89 24 40
        E 0 89 35 40
        E 0 99 24 48
        E 0 99 35 48
        E 240 89 24 40
        E 0 89 35 40
        E 0 99 26 48
        E 0 99 24 48
        E 240 89 26 40
        E 0 89 24 40
        E 0 99 24 48
        E 0 99 35 48
        E 120 89 24 40
        E 0 89 35 40
        E 0 99 24 48
        E 120 89 24 40
        E 0 99 26 48
        E 0 99 24 48
        E 0 99 35 48
        E 240 89 26 40
        E 0 89 24 40
        E 0 89 35 40
        E 0 99 24 48
        E 240 89 24 40
        E 0 99 26 48
        E 0 99 24 48
        E 0 99 35 48
        E 240 89 26 40
        E 0 89 24 40
        E 0 89 35 40
        E 0 99 24 48
        E 0 99 35 48
        E 120 89 24 40
        E 0 89 35 40
        E 0 99 24 48
        E 120 89 24 40
        E 0 99 26 48
        E 0 99 24 48
        E 0 99 35 48
        E 240 89 26 40
        E 0 89 24 40
        E 0 89 35 40
        E 0 99 24 48
        E 0 99 35 48
        E 240 89 24 40
        E 0 89 35 40
        E 0 99 26 48
        E 0 99 24 48
        E 240 89 26 40
        E 0 89 24 40
        E 0 99 24 48
        E 0 99 35 48
        E 120 89 24 40
        E 0 89 35 40
        E 0 99 24 48
        E 120 89 24 40
        E 0 99 26 48
        E 0 99 24 48
        E 0 99 35 48
        E 240 89 26 40
        E 0 89 24 40
        E 0 89 35 40
        E 0 99 24 48
        E 240 89 24 40
        E 0 99 26 48
        E 0 99 24 48
        E 0 99 35 48
        E 240 89 26 40
        E 0 89 24 40
        E 0 89 35 40
        E 0 99 24 48
        E 120 89 24 40
        E 0 99 24 48
        E 120 89 24 40
        E 0 99 26 48
        E 0 99 24 48
        E 0 99 35 48
        E 240 89 26 40
        E 0 89 24 40
        E 0 89 35 40
        E 0 99 24 48
        E 0 99 35 48
        E 240 89 24 40
        E 0 89 35 40
        E 0 99 26 48
        E 0 99 24 48
        E 240 89 26 40
        E 0 89 24 40
        E 0 99 24 48
        E 0 99 35 48
        E 120 89 24 40
        E 0 89 35 40
        E 0 99 24 48
        E 120 89 24 40
        E 0 99 26 48
        E 0 99 24 48
        E 240 89 26 40
        E 0 89 24 40
        E 0 99 24 48
        E 0 99 35 48
        E 240 89 24 40
        E 0 89 35 40
        E 0 99 26 48
        E 0 99 24 48
        E 240 89 26 40
        E 0 89 24 40
        E 0 99 24 48
        E 0 99 35 48
        E 120 89 24 40
        E 0 89 35 40
        E 0 99 24 48
        E 120 89 24 40
        E 0 99 26 48
        E 0 99 24 48
        E 240 89 26 40
        E 0 89 24 40
        E 0 99 24 48
        E 0 99 35 48
        E 240 89 24 40
        E 0 89 35 40
        E 0 99 26 48
        E 0 99 24 48
        E 240 89 26 40
        E 0 89 24 40
        E 0 99 24 48
        E 0 99 35 48
        E 120 89 24 40
        E 0 89 35 40
        E 0 99 24 48
        E 120 89 24 40
        E 0 99 26 48
        E 0 99 24 48
        E 0 99 35 48
        E 240 89 26 40
        E 0 89 24 40
        E 0 89 35 40
        E 0 99 24 48
        E 240 89 24 40
        E 0 99 26 48
        E 0 99 24 48
        E 0 99 35 48
        E 240 89 26 40
        E 0 89 24 40
        E 0 89 35 40
        E 0 99 24 48
        E 0 99 35 48
        E 120 89 24 40
        E 0 89 35 40
        E 0 99 24 48
        E 120 89 24 40
        E 0 99 26 48
        E 0 99 24 48
        E 0 99 35 48
        E 240 89 26 40
        E 0 89 24 40
        E 0 89 35 40
        E 0 99 24 48
        E 0 99 35 48
        E 240 89 24 40
        E 0 89 35 40
        E 0 99 26 48
        E 0 99 24 48
        E 240 89 26 40
        E 0 89 24 40
        E 0 99 24 48
        E 0 99 35 48
        E 120 89 24 40
        E 0 89 35 40
        E 0 99 24 48
        E 120 89 24 40
        E 0 99 26 48
        E 0 99 24 48
        E 0 99 35 48
        E 240 89 26 40
        E 0 89 24 40
        E 0 89 35 40
        E 0 99 2e 48
        E 0 99 26 48
        E 0 99 24 48
        E 120 89 2e 40
        E 0 89 26 40
        E 0 89 24 40
        E 0 99 24 48
        E 120 89 24 40
        E 0 99 24 48
        E 120 89 24 40
        E 0 99 24 48
        E 120 89 24 40
        E 0 99 31 48
        E 0 99 26 48
        E 0 99 24 48
        E 120 89 31 40
        E 0 89 26 40
        E 0 89 24 40
        E 0 99 24 48
        E 120 89 24 40
        E 0 99 31 48
        E 0 99 26 48
        E 0 99 24 48
        E 120 89 31 40
        E 0 89 26 40
        E 0 89 24 40
        E 0 99 26 48
        E 0 99 24 48
        E 120 89 26 40
        E 0 89 24 40
        E 0 99 26 60
        E 0 99 2f 60
        E 0 99 2a 60
        E 480 89 26 40
        E 0 89 2f 40
        E 0 89 2a 40
        E 0 99 2d 60
        E 0 99 2a 60
        E 120 89 2d 40
        E 0 89 2a 40
        E 0 99 2d 60
        E 120 89 2d 40
        E 0 99 2d 60
        E 120 89 2d 40
        E 0 99 2d 60
        E 120 89 2d 40
        E 0 99 2f 60
        E 0 99 24 60
        E 0 99 2a 60
        E 480 89 2f 40
        E 0 89 24 40
        E 0 89 2a 40
        E 0 99 2d 60
        E 0 99 2a 60
        E 120 89 2d 40
        E 0 89 2a 40
        E 0 99 2d 60
        E 120 89 2d 40
        E 0 99 2d 60
        E 120 89 2d 40
        E 0 99 2d 60
        E 120 89 2d 40
        E 0 99 26 60
        E 0 99 2f 60
        E 0 99 2a 60
        E 480 89 26 40
        E 0 89 2f 40
        E 0 89 2a 40
        E 0 99 2d 60
        E 0 99 2a 60
        E 120 89 2d 40
        E 0 89 2a 40
        E 0 99 2d 60
        E 120 89 2d 40
        E 0 99 2d 60
        E 120 89 2d 40
        E 0 99 2d 60
        E 120 89 2d 40
        E 0 99 2f 60
        E 0 99 24 60
        E 0 99 2a 60
        E 480 89 2f 40
        E 0 89 24 40
        E 0 89 2a 40
        E 0 99 2d 60
        E 0 99 2a 60
        E 120 89 2d 40
        E 0 89 2a 40
        E 0 99 2d 60
        E 120 89 2d 40
        E 0 99 2d 60
        E 120 89 2d 40
        E 0 99 2d 60
        E 120 89 2d 40
        E 0 99 26 60
        E 0 99 2f 60
        E 0 99 2a 60
        E 480 89 26 40
        E 0 89 2f 40
        E 0 89 2a 40
        E 0 99 2d 60
        E 0 99 2a 60
        E 120 89 2d 40
        E 0 89 2a 40
        E 0 99 2d 60
        E 120 89 2d 40
        E 0 99 2d 60
        E 120 89 2d 40
        E 0 99 2d 60
        E 120 89 2d 40
        E 0 99 2f 60
        E 0 99 24 60
        E 0 99 2a 60
        E 480 89 2f 40
        E 0 89 24 40
        E 0 89 2a 40
        E 0 99 2d 60
        E 0 99 2a 60
        E 120 89 2d 40
        E 0 89 2a 40
        E 0 99 2d 60
        E 120 89 2d 40
        E 0 99 2d 60
        E 120 89 2d 40
        E 0 99 2d 60
        E 120 89 2d 40
        E 0 99 26 60
        E 0 99 2f 60
        E 0 99 2a 60
        E 480 89 26 40
        E 0 89 2f 40
        E 0 89 2a 40
        E 0 99 2d 60
        E 0 99 2a 60
        E 120 89 2d 40
        E 0 89 2a 40
        E 0 99 2d 60
        E 120 89 2d 40
        E 0 99 2d 60
        E 120 89 2d 40
        E 0 99 2d 60
        E 120 89 2d 40
        E 0 99 2f 60
        E 0 99 24 60
        E 0 99 2a 60
        E 480 89 2f 40
        E 0 89 24 40
        E 0 89 2a 40
        E 0 99 2d 60
        E 0 99 2a 60
        E 120 89 2d 40
        E 0 89 2a 40
        E 0 99 2d 60
        E 120 89 2d 40
        E 0 99 2d 60
        E 120 89 2d 40
        E 0 99 2d 60
        E 120 89 2d 40
        E 0 99 26 60
        E 0 99 2f 60
        E 0 99 2a 60
        E 480 89 26 40
        E 0 89 2f 40
        E 0 89 2a 40
        E 0 99 2d 60
        E 0 99 2a 60
        E 120 89 2d 40
        E 0 89 2a 40
        E 0 99 2d 60
        E 120 89 2d 40
        E 0 99 2d 60
        E 120 89 2d 40
        E 0 99 2d 60
        E 120 89 2d 40
        E 0 99 2f 60
        E 0 99 24 60
        E 0 99 2a 60
        E 480 89 2f 40
        E 0 89 24 40
        E 0 89 2a 40
        E 0 99 2d 60
        E 0 99 2a 60
        E 120 89 2d 40
        E 0 89 2a 40
        E 0 99 2d 60
        E 120 89 2d 40
        E 0 99 2d 60
        E 120 89 2d 40
        E 0 99 2d 60
        E 120 89 2d 40
        E 0 99 26 60
        E 0 99 2f 60
        E 0 99 2a 60
        E 480 89 26 40
        E 0 89 2f 40
        E 0 89 2a 40
        E 0 99 2d 60
        E 0 99 2a 60
        E 120 89 2d 40
        E 0 89 2a 40
        E 0 99 2d 60
        E 120 89 2d 40
        E 0 99 2d 60
        E 120 89 2d 40
        E 0 99 2d 60
        E 120 89 2d 40
        E 0 99 2f 60
        E 0 99 24 60
        E 0 99 2a 60
        E 480 89 2f 40
        E 0 89 24 40
        E 0 89 2a 40
        E 0 99 2d 60
        E 0 99 2a 60
        E 120 89 2d 40
        E 0 89 2a 40
        E 0 99 2d 60
        E 120 89 2d 40
        E 0 99 2d 60
        E 120 89 2d 40
        E 0 99 2d 60
        E 120 89 2d 40
        E 0 99 26 60
        E 0 99 2f 60
        E 0 99 2a 60
        E 480 89 26 40
        E 0 89 2f 40
        E 0 89 2a 40
        E 0 99 2d 60
        E 0 99 2a 60
        E 120 89 2d 40
        E 0 89 2a 40
        E 0 99 2d 60
        E 120 89 2d 40
        E 0 99 2d 60
        E 120 89 2d 40
        E 0 99 2d 60
        E 120 89 2d 40
        E 0 99 2f 60
        E 0 99 24 60
        E 0 99 2a 60
        E 480 89 2f 40
        E 0 89 24 40
        E 0 89 2a 40
        E 0 99 2d 60
        E 0 99 2a 60
        E 120 89 2d 40
        E 0 89 2a 40
        E 0 99 2d 60
        E 120 89 2d 40
        E 0 99 2d 60
        E 120 89 2d 40
        E 0 99 2d 60
        E 120 89 2d 40
        E 0 99 26 60
        E 0 99 2f 60
        E 0 99 2a 60
        E 480 89 26 40
        E 0 89 2f 40
        E 0 89 2a 40
        E 0 99 2d 60
        E 0 99 2a 60
        E 120 89 2d 40
        E 0 89 2a 40
        E 0 99 2d 60
        E 120 89 2d 40
        E 0 99 2d 60
        E 120 89 2d 40
        E 0 99 2d 60
        E 120 89 2d 40
        E 0 99 24 50
        E 0 99 26 50
        E 120 89 24 40
        E 0 89 26 40
        E 0 99 24 50
        E 0 99 26 50
        E 120 89 24 40
        E 0 89 26 40
        E 0 99 24 50
        E 0 99 26 50
        E 120 89 24 40
        E 0 89 26 40
        E 0 99 24 50
        E 0 99 26 50
        E 120 89 24 40
        E 0 89 26 40
        E 0 99 24 50
        E 0 99 31 50
        E 120 89 24 40
        E 0 89 31 40
        E 0 99 24 50
        E 0 99 31 50
        E 120 89 24 40
        E 0 89 31 40
        E 0 99 24 50
        E 0 99 39 50
        E 120 89 24 40
        E 0 89 39 40
        E 0 99 24 50
        E 0 99 39 50
        E 120 89 24 40
        E 0 89 39 40
        E 0 99 31 50
        E 0 99 26 50
        E 0 99 24 50
        E 120 89 31 40
        E 0 89 26 40
        E 0 89 24 40
        E 0 99 24 50
        E 120 89 24 40
        E 0 99 24 50
        E 120 89 24 40
        E 0 99 24 50
        E 120 89 24 40
        E 0 99 2e 50
        E 0 99 26 50
        E 0 99 24 50
        E 120 89 2e 40
        E 0 89 26 40
        E 0 89 24 40
        E 0 99 24 50
        E 120 89 24 40
        E 0 99 24 50
        E 120 89 24 40
        E 0 99 24 50
        E 120 89 24 40
        E 0 99 2e 50
        E 0 99 26 50
        E 0 99 24 50
        E 120 89 2e 40
        E 0 89 26 40
        E 0 89 24 40
        E 0 99 24 50
        E 120 89 24 40
        E 0 99 24 50
        E 120 89 24 40
        E 0 99 24 50
        E 120 89 24 40
        E 0 99 2e 50
        E 0 99 26 50
        E 0 99 24 50
        E 120 89 2e 40
        E 0 89 26 40
        E 0 89 24 40
        E 0 99 24 50
        E 120 89 24 40
        E 0 99 24 50
        E 120 89 24 40
        E 0 99 24 50
        E 120 89 24 40
        E 0 99 31 50
        E 0 99 26 50
        E 0 99 24 50
        E 120 89 31 40
        E 0 89 26 40
        E 0 89 24 40
        E 0 99 24 50
        E 120 89 24 40
        E 0 99 24 50
        E 0 99 39 50
        E 120 89 24 40
        E 0 89 39 40
        E 0 99 24 50
        E 120 89 24 40
        E 0 99 2e 50
        E 0 99 26 50
        E 0 99 24 50
        E 120 89 2e 40
        E 0 89 26 40
        E 0 89 24 40
        E 0 99 24 50
        E 120 89 24 40
        E 0 99 24 50
        E 120 89 24 40
        E 0 99 24 50
        E 120 89 24 40
        E 0 99 26 50
        E 0 99 24 50
        E 0 99 39 50
        E 120 89 26 40
        E 0 89 24 40
        E 0 89 39 40
        E 0 99 24 50
        E 120 89 24 40
        E 0 99 24 50
        E 120 89 24 40
        E 0 99 24 50
        E 120 89 24 40
        E 0 99 2e 50
        E 0 99 26 50
        E 0 99 24 50
        E 120 89 2e 40
        E 0 89 26 40
        E 0 89 24 40
        E 0 99 24 50
        E 120 89 24 40
        E 0 99 24 50
        E 120 89 24 40
        E 0 99 24 50
        E 120 89 24 40
        E 0 99 31 50
        E 0 99 26 50
        E 0 99 24 50
        E 120 89 31 40
        E 0 89 26 40
        E 0 89 24 40
        E 0 99 24 50
        E 120 89 24 40
        E 0 99 24 50
        E 120 89 24 40
        E 0 99 24 50
        E 120 89 24 40
        E 0 99 2e 50
        E 0 99 26 50
        E 0 99 24 50
        E 120 89 2e 40
        E 0 89 26 40
        E 0 89 24 40
        E 0 99 24 50
        E 120 89 24 40
        E 0 99 24 50
        E 120 89 24 40
        E 0 99 24 50
        E 120 89 24 40
        E 0 99 2e 50
        E 0 99 26 50
        E 0 99 24 50
        E 120 89 2e 40
        E 0 89 26 40
        E 0 89 24 40
        E 0 99 24 50
        E 120 89 24 40
        E 0 99 24 50
        E 120 89 24 40
        E 0 99 24 50
        E 120 89 24 40
        E 0 99 2e 50
        E 0 99 26 50
        E 0 99 24 50
        E 120 89 2e 40
        E 0 89 26 40
        E 0 89 24 40
        E 0 99 24 50
        E 120 89 24 40
        E 0 99 24 50
        E 120 89 24 40
        E 0 99 24 50
        E 120 89 24 40
        E 0 99 26 50
        E 0 99 24 50
        E 0 99 39 50
        E 120 89 26 40
        E 0 89 24 40
        E 0 89 39 40
        E 0 99 24 50
        E 120 89 24 40
        E 0 99 24 50
        E 120 89 24 40
        E 0 99 24 50
        E 120 89 24 40
        E 0 99 2e 50
        E 0 99 26 50
        E 0 99 24 50
        E 120 89 2e 40
        E 0 89 26 40
        E 0 89 24 40
        E 0 99 24 50
        E 0 99 26 50
        E 120 89 24 40
        E 0 89 26 40
        E 0 99 24 50
        E 0 99 26 50
        E 120 89 24 40
        E 0 89 26 40
        E 0 99 24 50
        E 0 99 26 50
        E 120 89 24 40
        E 0 89 26 40
        E 0 99 24 50
        E 0 99 2b 50
        E 0 99 2d 50
        E 120 89 24 40
        E 0 89 2b 40
        E 0 89 2d 40
        E 0 99 24 50
        E 0 99 2d 50
        E 120 89 24 40
        E 0 89 2d 40
        E 0 99 24 50
        E 0 99 2d 50
        E 120 89 24 40
        E 0 89 2d 40
        E 0 99 24 50
        E 0 99 2d 50
        E 120 89 24 40
        E 0 89 2d 40
        E 0 99 30 50
        E 0 99 2f 50
        E 0 99 24 50
        E 120 89 30 40
        E 0 89 2f 40
        E 0 89 24 40
        E 0 99 24 50
        E 0 99 30 50
        E 120 89 24 40
        E 0 89 30 40
        E 0 99 30 50
        E 0 99 24 50
        E 120 89 30 40
        E 0 89 24 40
        E 0 99 30 50
        E 0 99 24 50
        E 120 89 30 40
        E 0 89 24 40
        E 0 99 31 50
        E 0 99 26 50
        E 0 99 24 50
        E 120 89 31 40
        E 0 89 26 40
        E 0 89 24 40
        E 0 99 24 50
        E 120 89 24 40
        E 0 99 24 50
        E 120 89 24 40
        E 0 99 24 50
        E 120 89 24 40
        E 0 99 2e 50
        E 0 99 26 50
        E 0 99 24 50
        E 120 89 2e 40
        E 0 89 26 40
        E 0 89 24 40
        E 0 99 24 50
        E 120 89 24 40
        E 0 99 24 50
        E 120 89 24 40
        E 0 99 24 50
        E 120 89 24 40
        E 0 99 2e 50
        E 0 99 26 50
        E 0 99 24 50
        E 120 89 2e 40
        E 0 89 26 40
        E 0 89 24 40
        E 0 99 24 50
        E 120 89 24 40
        E 0 99 24 50
        E 120 89 24 40
        E 0 99 24 50
        E 120 89 24 40
        E 0 99 2e 50
        E 0 99 26 50
        E 0 99 24 50
        E 120 89 2e 40
        E 0 89 26 40
        E 0 89 24 40
        E 0 99 24 50
        E 120 89 24 40
        E 0 99 24 50
        E 120 89 24 40
        E 0 99 24 50
        E 120 89 24 40
        E 0 99 31 50
        E 0 99 26 50
        E 0 99 24 50
        E 120 89 31 40
        E 0 89 26 40
        E 0 89 24 40
        E 0 99 24 50
        E 120 89 24 40
        E 0 99 24 50
        E 0 99 39 50
        E 120 89 24 40
        E 0 89 39 40
        E 0 99 24 50
        E 120 89 24 40
        E 0 99 2e 50
        E 0 99 26 50
        E 0 99 24 50
        E 120 89 2e 40
        E 0 89 26 40
        E 0 89 24 40
        E 0 99 24 50
        E 120 89 24 40
        E 0 99 24 50
        E 120 89 24 40
        E 0 99 24 50
        E 120 89 24 40
        E 0 99 26 50
        E 0 99 24 50
        E 0 99 39 50
        E 120 89 26 40
        E 0 89 24 40
        E 0 89 39 40
        E 0 99 24 50
        E 120 89 24 40
        E 0 99 24 50
        E 120 89 24 40
        E 0 99 24 50
        E 120 89 24 40
        E 0 99 2e 50
        E 0 99 26 50
        E 0 99 24 50
        E 120 89 2e 40
        E 0 89 26 40
        E 0 89 24 40
        E 0 99 24 50
        E 120 89 24 40
        E 0 99 24 50
        E 120 89 24 40
        E 0 99 24 50
        E 120 89 24 40
        E 0 99 31 50
        E 0 99 26 50
        E 0 99 24 50
        E 120 89 31 40
        E 0 89 26 40
        E 0 89 24 40
        E 0 99 24 50
        E 120 89 24 40
        E 0 99 24 50
        E 120 89 24 40
        E 0 99 24 50
        E 120 89 24 40
        E 0 99 2e 50
        E 0 99 26 50
        E 0 99 24 50
        E 120 89 2e 40
        E 0 89 26 40
        E 0 89 24 40
        E 0 99 24 50
        E 120 89 24 40
        E 0 99 24 50
        E 120 89 24 40
        E 0 99 24 50
        E 120 89 24 40
        E 0 99 2e 50
        E 0 99 26 50
        E 0 99 24 50
        E 120 89 2e 40
        E 0 89 26 40
        E 0 89 24 40
        E 0 99 24 50
        E 120 89 24 40
        E 0 99 24 50
        E 120 89 24 40
        E 0 99 24 50
        E 120 89 24 40
        E 0 99 2e 50
        E 0 99 26 50
        E 0 99 24 50
        E 120 89 2e 40
        E 0 89 26 40
        E 0 89 24 40
        E 0 99 24 50
        E 120 89 24 40
        E 0 99 24 50
        E 120 89 24 40
        E 0 99 24 50
        E 120 89 24 40
        E 0 99 26 50
        E 0 99 24 50
        E 0 99 39 50
        E 120 89 26 40
        E 0 89 24 40
        E 0 89 39 40
        E 0 99 24 50
        E 120 89 24 40
        E 0 99 24 50
        E 120 89 24 40
        E 0 99 24 50
        E 120 89 24 40
        E 0 99 2e 50
        E 0 99 26 50
        E 0 99 24 50
        E 120 89 2e 40
        E 0 89 26 40
        E 0 89 24 40
        E 0 99 24 50
        E 0 99 26 50
        E 120 89 24 40
        E 0 89 26 40
        E 0 99 24 50
        E 0 99 26 50
        E 120 89 24 40
        E 0 89 26 40
        E 0 99 24 50
        E 0 99 26 50
        E 120 89 24 40
        E 0 89 26 40
        E 0 99 24 50
        E 0 99 2b 50
        E 0 99 2d 50
        E 120 89 24 40
        E 0 89 2b 40
        E 0 89 2d 40
        E 0 99 24 50
        E 0 99 2d 50
        E 120 89 24 40
        E 0 89 2d 40
        E 0 99 24 50
        E 0 99 2d 50
        E 120 89 24 40
        E 0 89 2d 40
        E 0 99 24 50
        E 0 99 2d 50
        E 120 89 24 40
        E 0 89 2d 40
        E 0 99 30 50
        E 0 99 2f 50
        E 0 99 24 50
        E 120 89 30 40
        E 0 89 2f 40
        E 0 89 24 40
        E 0 99 24 50
        E 0 99 30 50
        E 120 89 24 40
        E 0 89 30 40
        E 0 99 30 50
        E 0 99 24 50
        E 120 89 30 40
        E 0 89 24 40
        E 0 99 30 50
        E 0 99 24 50
        E 120 89 30 40
        E 0 89 24 40
        E 0 99 31 50
        E 0 99 26 50
        E 0 99 24 50
        E 120 89 31 40
        E 0 89 26 40
        E 0 89 24 40
        E 0 99 24 50
        E 120 89 24 40
        E 0 99 24 50
        E 120 89 24 40
        E 0 99 24 50
        E 120 89 24 40
        E 0 99 2e 50
        E 0 99 26 50
        E 0 99 24 50
        E 120 89 2e 40
        E 0 89 26 40
        E 0 89 24 40
        E 0 99 24 50
        E 120 89 24 40
        E 0 99 24 50
        E 120 89 24 40
        E 0 99 24 50
        E 120 89 24 40
        E 0 99 2e 50
        E 0 99 26 50
        E 0 99 24 50
        E 120 89 2e 40
        E 0 89 26 40
        E 0 89 24 40
        E 0 99 24 50
        E 120 89 24 40
        E 0 99 24 50
        E 120 89 24 40
        E 0 99 24 50
        E 120 89 24 40
        E 0 99 2e 50
        E 0 99 26 50
        E 0 99 24 50
        E 120 89 2e 40
        E 0 89 26 40
        E 0 89 24 40
        E 0 99 24 50
        E 120 89 24 40
        E 0 99 24 50
        E 120 89 24 40
        E 0 99 24 50
        E 120 89 24 40
        E 0 99 31 50
        E 0 99 26 50
        E 0 99 24 50
        E 120 89 31 40
        E 0 89 26 40
        E 0 89 24 40
        E 0 99 24 50
        E 120 89 24 40
        E 0 99 24 50
        E 0 99 39 50
        E 120 89 24 40
        E 0 89 39 40
        E 0 99 24 50
        E 120 89 24 40
        E 0 99 2e 50
        E 0 99 26 50
        E 0 99 24 50
        E 120 89 2e 40
        E 0 89 26 40
        E 0 89 24 40
        E 0 99 24 50
        E 120 89 24 40
        E 0 99 24 50
        E 120 89 24 40
        E 0 99 24 50
        E 120 89 24 40
        E 0 99 26 50
        E 0 99 24 50
        E 0 99 39 50
        E 120 89 26 40
        E 0 89 24 40
        E 0 89 39 40
        E 0 99 24 50
        E 120 89 24 40
        E 0 99 24 50
        E 120 89 24 40
        E 0 99 24 50
        E 120 89 24 40
        E 0 99 2e 50
        E 0 99 26 50
        E 0 99 24 50
        E 120 89 2e 40
        E 0 89 26 40
        E 0 89 24 40
        E 0 99 24 50
        E 120 89 24 40
        E 0 99 24 50
        E 120 89 24 40
        E 0 99 24 50
        E 120 89 24 40
        E 0 99 31 50
        E 0 99 26 50
        E 0 99 24 50
        E 120 89 31 40
        E 0 89 26 40
        E 0 89 24 40
        E 0 99 24 50
        E 120 89 24 40
        E 0 99 24 50
        E 120 89 24 40
        E 0 99 24 50
        E 120 89 24 40
        E 0 99 2e 50
        E 0 99 26 50
        E 0 99 24 50
        E 120 89 2e 40
        E 0 89 26 40
        E 0 89 24 40
        E 0 99 24 50
        E 120 89 24 40
        E 0 99 24 50
        E 120 89 24 40
        E 0 99 24 50
        E 120 89 24 40
        E 0 99 2e 50
        E 0 99 26 50
        E 0 99 24 50
        E 120 89 2e 40
        E 0 89 26 40
        E 0 89 24 40
        E 0 99 24 50
        E 120 89 24 40
        E 0 99 24 50
        E 120 89 24 40
        E 0 99 24 50
        E 120 89 24 40
        E 0 99 2e 50
        E 0 99 26 50
        E 0 99 24 50
        E 120 89 2e 40
        E 0 89 26 40
        E 0 89 24 40
        E 0 99 24 50
        E 120 89 24 40
        E 0 99 24 50
        E 120 89 24 40
        E 0 99 24 50
        E 120 89 24 40
        E 0 99 26 50
        E 0 99 24 50
        E 0 99 39 50
        E 120 89 26 40
        E 0 89 24 40
        E 0 89 39 40
        E 0 99 24 50
        E 120 89 24 40
        E 0 99 24 50
        E 120 89 24 40
        E 0 99 24 50
        E 120 89 24 40
        E 0 99 2e 50
        E 0 99 26 50
        E 0 99 24 50
        E 120 89 2e 40
        E 0 89 26 40
        E 0 89 24 40
        E 0 99 24 50
        E 0 99 26 50
        E 120 89 24 40
        E 0 89 26 40
        E 0 99 24 50
        E 0 99 26 50
        E 120 89 24 40
        E 0 89 26 40
        E 0 99 24 50
        E 0 99 26 50
        E 120 89 24 40
        E 0 89 26 40
        E 0 99 24 50
        E 0 99 2b 50
        E 0 99 2d 50
        E 120 89 24 40
        E 0 89 2b 40
        E 0 89 2d 40
        E 0 99 24 50
        E 0 99 2d 50
        E 120 89 24 40
        E 0 89 2d 40
        E 0 99 24 50
        E 0 99 2d 50
        E 120 89 24 40
        E 0 89 2d 40
        E 0 99 24 50
        E 0 99 2d 50
        E 120 89 24 40
        E 0 89 2d 40
        E 0 99 30 50
        E 0 99 2f 50
        E 0 99 24 50
        E 120 89 30 40
        E 0 89 2f 40
        E 0 89 24 40
        E 0 99 24 50
        E 0 99 30 50
        E 120 89 24 40
        E 0 89 30 40
        E 0 99 30 50
        E 0 99 24 50
        E 120 89 30 40
        E 0 89 24 40
        E 0 99 30 50
        E 0 99 24 50
        E 120 89 30 40
        E 0 89 24 40
        E 0 99 31 50
        E 0 99 26 50
        E 0 99 24 50
        E 120 89 31 40
        E 0 89 26 40
        E 0 89 24 40
        E 0 99 24 50
        E 120 89 24 40
        E 0 99 24 50
        E 120 89 24 40
        E 0 99 24 50
        E 120 89 24 40
        E 0 99 2e 50
        E 0 99 26 50
        E 0 99 24 50
        E 120 89 2e 40
        E 0 89 26 40
        E 0 89 24 40
        E 0 99 24 50
        E 120 89 24 40
        E 0 99 24 50
        E 120 89 24 40
        E 0 99 24 50
        E 120 89 24 40
        E 0 99 2e 50
        E 0 99 26 50
        E 0 99 24 50
        E 120 89 2e 40
        E 0 89 26 40
        E 0 89 24 40
        E 0 99 24 50
        E 120 89 24 40
        E 0 99 24 50
        E 120 89 24 40
        E 0 99 24 50
        E 120 89 24 40
        E 0 99 2e 50
        E 0 99 26 50
        E 0 99 24 50
        E 120 89 2e 40
        E 0 89 26 40
        E 0 89 24 40
        E 0 99 24 50
        E 120 89 24 40
        E 0 99 24 50
        E 120 89 24 40
        E 0 99 24 50
        E 120 89 24 40
        E 0 99 31 50
        E 0 99 26 50
        E 0 99 24 50
        E 120 89 31 40
        E 0 89 26 40
        E 0 89 24 40
        E 0 99 24 50
        E 120 89 24 40
        E 0 99 24 50
        E 0 99 39 50
        E 120 89 24 40
        E 0 89 39 40
        E 0 99 24 50
        E 120 89 24 40
        E 0 99 2e 50
        E 0 99 26 50
        E 0 99 24 50
        E 120 89 2e 40
        E 0 89 26 40
        E 0 89 24 40
        E 0 99 24 50
        E 120 89 24 40
        E 0 99 24 50
        E 120 89 24 40
        E 0 99 24 50
        E 120 89 24 40
        E 0 99 26 50
        E 0 99 24 50
        E 0 99 39 50
        E 120 89 26 40
        E 0 89 24 40
        E 0 89 39 40
        E 0 99 24 50
        E 120 89 24 40
        E 0 99 24 50
        E 120 89 24 40
        E 0 99 24 50
        E 120 89 24 40
        E 0 99 2e 50
        E 0 99 26 50
        E 0 99 24 50
        E 120 89 2e 40
        E 0 89 26 40
        E 0 89 24 40
        E 0 99 24 50
        E 120 89 24 40
        E 0 99 24 50
        E 120 89 24 40
        E 0 99 24 50
        E 120 89 24 40
        E 0 99 31 50
        E 0 99 26 50
        E 0 99 24 50
        E 120 89 31 40
        E 0 89 26 40
        E 0 89 24 40
        E 0 99 24 50
        E 120 89 24 40
        E 0 99 24 50
        E 120 89 24 40
        E 0 99 24 50
        E 120 89 24 40
        E 0 99 2e 50
        E 0 99 26 50
        E 0 99 24 50
        E 120 89 2e 40
        E 0 89 26 40
        E 0 89 24 40
        E 0 99 24 50
        E 120 89 24 40
        E 0 99 24 50
        E 120 89 24 40
        E 0 99 24 50
        E 120 89 24 40
        E 0 99 2e 50
        E 0 99 26 50
        E 0 99 24 50
        E 120 89 2e 40
        E 0 89 26 40
        E 0 89 24 40
        E 0 99 24 50
        E 120 89 24 40
        E 0 99 24 50
        E 120 89 24 40
        E 0 99 24 50
        E 120 89 24 40
        E 0 99 2e 50
        E 0 99 26 50
        E 0 99 24 50
        E 120 89 2e 40
        E 0 89 26 40
        E 0 89 24 40
        E 0 99 24 50
        E 120 89 24 40
        E 0 99 24 50
        E 120 89 24 40
        E 0 99 24 50
        E 120 89 24 40
        E 0 99 26 50
        E 0 99 24 50
        E 0 99 39 50
        E 120 89 26 40
        E 0 89 24 40
        E 0 89 39 40
        E 0 99 24 50
        E 120 89 24 40
        E 0 99 24 50
        E 120 89 24 40
        E 0 99 24 50
        E 120 89 24 40
        E 0 99 2e 50
        E 0 99 26 50
        E 0 99 24 50
        E 120 89 2e 40
        E 0 89 26 40
        E 0 89 24 40
        E 0 99 24 50
        E 0 99 26 50
        E 120 89 24 40
        E 0 89 26 40
        E 0 99 24 50
        E 0 99 26 50
        E 120 89 24 40
        E 0 89 26 40
        E 0 99 24 50
        E 0 99 26 50
        E 120 89 24 40
        E 0 89 26 40
        E 0 99 24 50
        E 0 99 2b 50
        E 0 99 2d 50
        E 120 89 24 40
        E 0 89 2b 40
        E 0 89 2d 40
        E 0 99 24 50
        E 0 99 2d 50
        E 120 89 24 40
        E 0 89 2d 40
        E 0 99 24 50
        E 0 99 2d 50
        E 120 89 24 40
        E 0 89 2d 40
        E 0 99 24 50
        E 0 99 2d 50
        E 120 89 24 40
        E 0 89 2d 40
        E 0 99 30 50
        E 0 99 2f 50
        E 0 99 24 50
        E 120 89 30 40
        E 0 89 2f 40
        E 0 89 24 40
        E 0 99 24 50
        E 0 99 30 50
        E 120 89 24 40
        E 0 89 30 40
        E 0 99 30 50
        E 0 99 24 50
        E 120 89 30 40
        E 0 89 24 40
        E 0 99 30 50
        E 0 99 24 50
        E 120 89 30 40
        E 0 89 24 40
        E 0 99 39 48
        E 0 99 26 48
        E 0 99 24 48
        E 120 89 39 40
        E 0 89 26 40
        E 0 89 24 40
        E 0 99 24 48
        E 120 89 24 40
        E 0 99 24 48
        E 120 89 24 40
        E 0 99 24 48
        E 120 89 24 40
        E 0 99 2e 48
        E 0 99 26 48
        E 0 99 24 48
        E 120 89 2e 40
        E 0 89 26 40
        E 0 89 24 40
        E 0 99 24 48
        E 120 89 24 40
        E 0 99 24 48
        E 120 89 24 40
        E 0 99 24 48
        E 120 89 24 40
        E 0 99 2e 48
        E 0 99 26 48
        E 0 99 24 48
        E 120 89 2e 40
        E 0 89 26 40
        E 0 89 24 40
        E 0 99 24 48
        E 120 89 24 40
        E 0 99 24 48
        E 120 89 24 40
        E 0 99 24 48
        E 120 89 24 40
        E 0 99 2e 48
        E 0 99 26 48
        E 0 99 24 48
        E 120 89 2e 40
        E 0 89 26 40
        E 0 89 24 40
        E 0 99 24 48
        E 120 89 24 40
        E 0 99 24 48
        E 120 89 24 40
        E 0 99 24 48
        E 120 89 24 40
        E 0 99 2e 48
        E 0 99 26 48
        E 0 99 24 48
        E 120 89 2e 40
        E 0 89 26 40
        E 0 89 24 40
        E 0 99 24 48
        E 120 89 24 40
        E 0 99 24 48
        E 120 89 24 40
        E 0 99 24 48
        E 120 89 24 40
        E 0 99 2e 48
        E 0 99 26 48
        E 0 99 24 48
        E 120 89 2e 40
        E 0 89 26 40
        E 0 89 24 40
        E 0 99 24 48
        E 120 89 24 40
        E 0 99 24 48
        E 120 89 24 40
        E 0 99 24 48
        E 120 89 24 40
        E 0 99 2e 48
        E 0 99 26 48
        E 0 99 24 48
        E 120 89 2e 40
        E 0 89 26 40
        E 0 89 24 40
        E 0 99 24 48
        E 120 89 24 40
        E 0 99 24 48
        E 120 89 24 40
        E 0 99 24 48
        E 120 89 24 40
        E 0 99 2e 48
        E 0 99 26 48
        E 0 99 24 48
        E 120 89 2e 40
        E 0 89 26 40
        E 0 89 24 40
        E 0 99 24 48
        E 120 89 24 40
        E 0 99 24 48
        E 120 89 24 40
        E 0 99 24 48
        E 120 89 24 40
        E 0 99 31 48
        E 0 99 26 48
        E 0 99 24 48
        E 120 89 31 40
        E 0 89 26 40
        E 0 89 24 40
        E 0 99 24 48
        E 120 89 24 40
        E 0 99 24 48
        E 120 89 24 40
        E 0 99 24 48
        E 120 89 24 40
        E 0 99 2e 48
        E 0 99 26 48
        E 0 99 24 48
        E 120 89 2e 40
        E 0 89 26 40
        E 0 89 24 40
        E 0 99 24 48
        E 120 89 24 40
        E 0 99 24 48
        E 120 89 24 40
        E 0 99 24 48
        E 120 89 24 40
        E 0 99 2e 48
        E 0 99 26 48
        E 0 99 24 48
        E 120 89 2e 40
        E 0 89 26 40
        E 0 89 24 40
        E 0 99 24 48
        E 120 89 24 40
        E 0 99 24 48
        E 120 89 24 40
        E 0 99 24 48
        E 120 89 24 40
        E 0 99 2e 48
        E 0 99 26 48
        E 0 99 24 48
        E 120 89 2e 40
        E 0 89 26 40
        E 0 89 24 40
        E 0 99 24 48
        E 120 89 24 40
        E 0 99 24 48
        E 120 89 24 40
        E 0 99 24 48
        E 120 89 24 40
        E 0 99 2e 48
        E 0 99 26 48
        E 0 99 24 48
        E 120 89 2e 40
        E 0 89 26 40
        E 0 89 24 40
        E 0 99 24 48
        E 120 89 24 40
        E 0 99 24 48
        E 120 89 24 40
        E 0 99 24 48
        E 120 89 24 40
        E 0 99 2e 48
        E 0 99 26 48
        E 0 99 24 48
        E 120 89 2e 40
        E 0 89 26 40
        E 0 89 24 40
        E 0 99 24 48
        E 120 89 24 40
        E 0 99 24 48
        E 120 89 24 40
        E 0 99 24 48
        E 120 89 24 40
        E 0 99 2e 48
        E 0 99 26 48
        E 0 99 24 48
        E 120 89 2e 40
        E 0 89 26 40
        E 0 89 24 40
        E 0 99 24 48
        E 120 89 24 40
        E 0 99 24 48
        E 120 89 24 40
        E 0 99 24 48
        E 120 89 24 40
        E 0 99 2e 48
        E 0 99 26 48
        E 0 99 24 48
        E 120 89 2e 40
        E 0 89 26 40
        E 0 89 24 40
        E 0 99 24 48
        E 120 89 24 40
        E 0 99 24 48
        E 120 89 24 40
        E 0 99 24 48
        E 120 89 24 40
        E 0 99 39 48
        E 0 99 26 48
        E 0 99 24 48
        E 120 89 39 40
        E 0 89 26 40
        E 0 89 24 40
        E 0 99 24 48
        E 120 89 24 40
        E 0 99 24 48
        E 120 89 24 40
        E 0 99 24 48
        E 120 89 24 40
        E 0 99 2e 48
        E 0 99 26 48
        E 0 99 24 48
        E 120 89 2e 40
        E 0 89 26 40
        E 0 89 24 40
        E 0 99 24 48
        E 120 89 24 40
        E 0 99 24 48
        E 120 89 24 40
        E 0 99 24 48
        E 120 89 24 40
        E 0 99 2e 48
        E 0 99 26 48
        E 0 99 24 48
        E 120 89 2e 40
        E 0 89 26 40
        E 0 89 24 40
        E 0 99 24 48
        E 120 89 24 40
        E 0 99 24 48
        E 120 89 24 40
        E 0 99 24 48
        E 120 89 24 40
        E 0 99 2e 48
        E 0 99 26 48
        E 0 99 24 48
        E 120 89 2e 40
        E 0 89 26 40
        E 0 89 24 40
        E 0 99 24 48
        E 120 89 24 40
        E 0 99 24 48
        E 120 89 24 40
        E 0 99 24 48
        E 120 89 24 40
        E 0 99 2e 48
        E 0 99 26 48
        E 0 99 24 48
        E 120 89 2e 40
        E 0 89 26 40
        E 0 89 24 40
        E 0 99 24 48
        E 120 89 24 40
        E 0 99 24 48
        E 120 89 24 40
        E 0 99 24 48
        E 120 89 24 40
        E 0 99 2e 48
        E 0 99 26 48
        E 0 99 24 48
        E 120 89 2e 40
        E 0 89 26 40
        E 0 89 24 40
        E 0 99 24 48
        E 120 89 24 40
        E 0 99 24 48
        E 120 89 24 40
        E 0 99 24 48
        E 120 89 24 40
        E 0 99 2e 48
        E 0 99 26 48
        E 0 99 24 48
        E 120 89 2e 40
        E 0 89 26 40
        E 0 89 24 40
        E 0 99 24 48
        E 120 89 24 40
        E 0 99 24 48
        E 120 89 24 40
        E 0 99 24 48
        E 120 89 24 40
        E 0 99 2e 48
        E 0 99 26 48
        E 0 99 24 48
        E 120 89 2e 40
        E 0 89 26 40
        E 0 89 24 40
        E 0 99 24 48
        E 120 89 24 40
        E 0 99 24 48
        E 120 89 24 40
        E 0 99 24 48
        E 120 89 24 40
        E 0 99 31 48
        E 0 99 26 48
        E 0 99 24 48
        E 120 89 31 40
        E 0 89 26 40
        E 0 89 24 40
        E 0 99 24 48
        E 120 89 24 40
        E 0 99 24 48
        E 120 89 24 40
        E 0 99 24 48
        E 120 89 24 40
        E 0 99 2e 48
        E 0 99 26 48
        E 0 99 24 48
        E 120 89 2e 40
        E 0 89 26 40
        E 0 89 24 40
        E 0 99 24 48
        E 120 89 24 40
        E 0 99 24 48
        E 120 89 24 40
        E 0 99 24 48
        E 120 89 24 40
        E 0 99 2e 48
        E 0 99 26 48
        E 0 99 24 48
        E 120 89 2e 40
        E 0 89 26 40
        E 0 89 24 40
        E 0 99 24 48
        E 120 89 24 40
        E 0 99 24 48
        E 120 89 24 40
        E 0 99 24 48
        E 120 89 24 40
        E 0 99 2e 48
        E 0 99 26 48
        E 0 99 24 48
        E 120 89 2e 40
        E 0 89 26 40
        E 0 89 24 40
        E 0 99 24 48
        E 120 89 24 40
        E 0 99 24 48
        E 120 89 24 40
        E 0 99 24 48
        E 120 89 24 40
        E 0 99 2e 48
        E 0 99 26 48
        E 0 99 24 48
        E 120 89 2e 40
        E 0 89 26 40
        E 0 89 24 40
        E 0 99 24 48
        E 120 89 24 40
        E 0 99 24 48
        E 120 89 24 40
        E 0 99 24 48
        E 120 89 24 40
        E 0 99 2e 48
        E 0 99 26 48
        E 0 99 24 48
        E 120 89 2e 40
        E 0 89 26 40
        E 0 89 24 40
        E 0 99 24 48
        E 120 89 24 40
        E 0 99 24 48
        E 120 89 24 40
        E 0 99 24 48
        E 120 89 24 40
        E 0 99 2e 48
        E 0 99 26 48
        E 0 99 24 48
        E 120 89 2e 40
        E 0 89 26 40
        E 0 89 24 40
        E 0 99 24 48
        E 120 89 24 40
        E 0 99 24 48
        E 120 89 24 40
        E 0 99 24 48
        E 120 89 24 40
        E 0 99 2e 48
        E 0 99 26 48
        E 0 99 24 48
        E 120 89 2e 40
        E 0 89 26 40
        E 0 89 24 40
        E 0 99 24 48
        E 120 89 24 40
        E 0 99 24 48
        E 120 89 24 40
        E 0 99 24 48
        E 120 89 24 40
        E 0 99 2e 48
        E 0 99 26 48
        E 0 99 24 48
        E 120 89 2e 40
        E 0 89 26 40
        E 0 89 24 40
        E 0 99 24 48
        E 120 89 24 40
        E 0 99 24 48
        E 120 89 24 40
        E 0 99 24 48
        E 120 89 24 40
        E 0 99 2e 48
        E 0 99 26 48
        E 0 99 24 48
        E 120 89 2e 40
        E 0 89 26 40
        E 0 89 24 40
        E 0 99 24 48
        E 120 89 24 40
        E 0 99 24 48
        E 120 89 24 40
        E 0 99 24 48
        E 120 89 24 40
        E 0 99 24 50
        E 0 99 2b 50
        E 0 99 2d 50
        E 120 89 24 40
        E 0 89 2b 40
        E 0 89 2d 40
        E 0 99 24 50
        E 0 99 2d 50
        E 120 89 24 40
        E 0 89 2d 40
        E 0 99 24 50
        E 0 99 2d 50
        E 120 89 24 40
        E 0 89 2d 40
        E 0 99 24 50
        E 0 99 2d 50
        E 120 89 24 40
        E 0 89 2d 40
        E 0 99 30 50
        E 0 99 2f 50
        E 0 99 24 50
        E 120 89 30 40
        E 0 89 2f 40
        E 0 89 24 40
        E 0 99 24 50
        E 0 99 30 50
        E 120 89 24 40
        E 0 89 30 40
        E 0 99 30 50
        E 0 99 24 50
        E 120 89 30 40
        E 0 89 24 40
        E 0 99 30 50
        E 0 99 24 50
        E 120 89 30 40
        E 0 89 24 40
        E 0 99 31 50
        E 0 99 24 50
        E 240 89 31 40
        E 0 89 24 40
        E 0 99 33 50
        E 0 99 26 50
        E 120 89 33 40
        E 0 89 26 40
        E 0 99 24 50
        E 120 89 24 40
        E 0 99 33 50
        E 120 89 33 40
        E 0 99 24 50
        E 120 89 24 40
        E 0 99 33 50
        E 0 99 26 50
        E 240 89 33 40
        E 0 89 26 40
        E 0 99 33 50
        E 0 99 24 50
        E 240 89 33 40
        E 0 89 24 40
        E 0 99 33 50
        E 0 99 26 50
        E 120 89 33 40
        E 0 89 26 40
        E 0 99 24 50
        E 120 89 24 40
        E 0 99 33 50
        E 120 89 33 40
        E 0 99 24 50
        E 120 89 24 40
        E 0 99 33 50
        E 0 99 26 50
        E 240 89 33 40
        E 0 89 26 40
        E 0 99 31 50
        E 0 99 24 50
        E 240 89 31 40
        E 0 89 24 40
        E 0 99 33 50
        E 0 99 26 50
        E 120 89 33 40
        E 0 89 26 40
        E 0 99 24 50
        E 120 89 24 40
        E 0 99 33 50
        E 120 89 33 40
        E 0 99 24 50
        E 120 89 24 40
        E 0 99 33 50
        E 0 99 26 50
        E 240 89 33 40
        E 0 89 26 40
        E 0 99 33 50
        E 0 99 24 50
        E 240 89 33 40
        E 0 89 24 40
        E 0 99 33 50
        E 0 99 26 50
        E 120 89 33 40
        E 0 89 26 40
        E 0 99 24 50
        E 120 89 24 40
        E 0 99 33 50
        E 120 89 33 40
        E 0 99 24 50
        E 120 89 24 40
        E 0 99 33 50
        E 0 99 26 50
        E 240 89 33 40
        E 0 89 26 40
        E 0 99 31 50
        E 0 99 24 50
        E 240 89 31 40
        E 0 89 24 40
        E 0 99 33 50
        E 0 99 26 50
        E 120 89 33 40
        E 0 89 26 40
        E 0 99 24 50
        E 120 89 24 40
        E 0 99 33 50
        E 120 89 33 40
        E 0 99 24 50
        E 120 89 24 40
        E 0 99 33 50
        E 0 99 26 50
        E 240 89 33 40
        E 0 89 26 40
        E 0 99 33 50
        E 0 99 24 50
        E 240 89 33 40
        E 0 89 24 40
        E 0 99 33 50
        E 0 99 26 50
        E 120 89 33 40
        E 0 89 26 40
        E 0 99 24 50
        E 120 89 24 40
        E 0 99 33 50
        E 120 89 33 40
        E 0 99 24 50
        E 120 89 24 40
        E 0 99 33 50
        E 0 99 26 50
        E 240 89 33 40
        E 0 89 26 40
        E 0 99 31 50
        E 0 99 24 50
        E 240 89 31 40
        E 0 89 24 40
        E 0 99 33 50
        E 0 99 26 50
        E 120 89 33 40
        E 0 89 26 40
        E 0 99 24 50
        E 120 89 24 40
        E 0 99 33 50
        E 120 89 33 40
        E 0 99 24 50
        E 120 89 24 40
        E 0 99 33 50
        E 0 99 26 50
        E 240 89 33 40
        E 0 89 26 40
        E 0 99 33 50
        E 0 99 24 50
        E 240 89 33 40
        E 0 89 24 40
        E 0 99 33 50
        E 0 99 26 50
        E 120 89 33 40
        E 0 89 26 40
        E 0 99 24 50
        E 120 89 24 40
        E 0 99 33 50
        E 120 89 33 40
        E 0 99 24 50
        E 120 89 24 40
        E 0 99 33 50
        E 0 99 26 50
        E 240 89 33 40
        E 0 89 26 40
        E 0 99 31 50
        E 0 99 24 50
        E 240 89 31 40
        E 0 89 24 40
        E 0 99 33 50
        E 0 99 26 50
        E 120 89 33 40
        E 0 89 26 40
        E 0 99 24 50
        E 120 89 24 40
        E 0 99 33 50
        E 120 89 33 40
        E 0 99 24 50
        E 120 89 24 40
        E 0 99 33 50
        E 0 99 26 50
        E 240 89 33 40
        E 0 89 26 40
        E 0 99 33 50
        E 0 99 24 50
        E 240 89 33 40
        E 0 89 24 40
        E 0 99 33 50
        E 0 99 26 50
        E 120 89 33 40
        E 0 89 26 40
        E 0 99 24 50
        E 120 89 24 40
        E 0 99 33 50
        E 120 89 33 40
        E 0 99 24 50
        E 120 89 24 40
        E 0 99 33 50
        E 0 99 26 50
        E 240 89 33 40
        E 0 89 26 40
        E 0 99 31 50
        E 0 99 24 50
        E 240 89 31 40
        E 0 89 24 40
        E 0 99 33 50
        E 0 99 26 50
        E 120 89 33 40
        E 0 89 26 40
        E 0 99 24 50
        E 120 89 24 40
        E 0 99 33 50
        E 120 89 33 40
        E 0 99 24 50
        E 120 89 24 40
        E 0 99 33 50
        E 0 99 26 50
        E 240 89 33 40
        E 0 89 26 40
        E 0 99 33 50
        E 0 99 24 50
        E 240 89 33 40
        E 0 89 24 40
        E 0 99 33 50
        E 0 99 26 50
        E 120 89 33 40
        E 0 89 26 40
        E 0 99 24 50
        E 120 89 24 40
        E 0 99 33 50
        E 120 89 33 40
        E 0 99 24 50
        E 120 89 24 40
        E 0 99 33 50
        E 0 99 26 50
        E 240 89 33 40
        E 0 89 26 40
        E 0 99 31 50
        E 0 99 24 50
        E 240 89 31 40
        E 0 89 24 40
        E 0 99 33 50
        E 0 99 26 50
        E 120 89 33 40
        E 0 89 26 40
        E 0 99 24 50
        E 120 89 24 40
        E 0 99 33 50
        E 120 89 33 40
        E 0 99 24 50
        E 120 89 24 40
        E 0 99 33 50
        E 0 99 26 50
        E 240 89 33 40
        E 0 89 26 40
        E 0 99 33 50
        E 0 99 24 50
        E 240 89 33 40
        E 0 89 24 40
        E 0 99 33 50
        E 0 99 26 50
        E 120 89 33 40
        E 0 89 26 40
        E 0 99 24 50
        E 120 89 24 40
        E 0 99 33 50
        E 120 89 33 40
        E 0 99 24 50
        E 120 89 24 40
        E 0 99 33 50
        E 0 99 26 50
        E 240 89 33 40
        E 0 89 26 40
        E 0 99 31 50
        E 0 99 24 50
        E 240 89 31 40
        E 0 89 24 40
        E 0 99 33 50
        E 0 99 26 50
        E 120 89 33 40
        E 0 89 26 40
        E 0 99 24 50
        E 120 89 24 40
        E 0 99 33 50
        E 120 89 33 40
        E 0 99 24 50
        E 120 89 24 40
        E 0 99 33 50
        E 0 99 26 50
        E 240 89 33 40
        E 0 89 26 40
        E 0 99 33 50
        E 0 99 24 50
        E 240 89 33 40
        E 0 89 24 40
        E 0 99 33 50
        E 0 99 26 50
        E 120 89 33 40
        E 0 89 26 40
        E 0 99 24 50
        E 120 89 24 40
        E 0 99 33 50
        E 120 89 33 40
        E 0 99 24 50
        E 120 89 24 40
        E 0 99 33 50
        E 0 99 26 50
        E 240 89 33 40
        E 0 89 26 40
        E 0 99 31 50
        E 0 99 24 50
        E 240 89 31 40
        E 0 89 24 40
        E 0 99 33 50
        E 0 99 26 50
        E 120 89 33 40
        E 0 89 26 40
        E 0 99 24 50
        E 120 89 24 40
        E 0 99 33 50
        E 120 89 33 40
        E 0 99 24 50
        E 120 89 24 40
        E 0 99 33 50
        E 0 99 26 50
        E 240 89 33 40
        E 0 89 26 40
        E 0 99 33 50
        E 0 99 24 50
        E 240 89 33 40
        E 0 89 24 40
        E 0 99 33 50
        E 0 99 26 50
        E 120 89 33 40
        E 0 89 26 40
        E 0 99 24 50
        E 120 89 24 40
        E 0 99 33 50
        E 120 89 33 40
        E 0 99 24 50
        E 120 89 24 40
        E 0 99 33 50
        E 0 99 26 50
        E 240 89 33 40
        E 0 89 26 40
        E 0 99 31 50
        E 0 99 24 50
        E 240 89 31 40
        E 0 89 24 40
        E 0 99 33 50
        E 0 99 26 50
        E 120 89 33 40
        E 0 89 26 40
        E 0 99 24 50
        E 120 89 24 40
        E 0 99 33 50
        E 120 89 33 40
        E 0 99 24 50
        E 120 89 24 40
        E 0 99 33 50
        E 0 99 26 50
        E 240 89 33 40
        E 0 89 26 40
        E 0 99 33 50
        E 0 99 24 50
        E 240 89 33 40
        E 0 89 24 40
        E 0 99 33 50
        E 0 99 26 50
        E 120 89 33 40
        E 0 89 26 40
        E 0 99 24 50
        E 120 89 24 40
        E 0 99 33 50
        E 120 89 33 40
        E 0 99 24 50
        E 120 89 24 40
        E 0 99 33 50
        E 0 99 26 50
        E 240 89 33 40
        E 0 89 26 40
        E 0 99 31 50
        E 0 99 24 50
        E 240 89 31 40
        E 0 89 24 40
        E 0 99 33 50
        E 0 99 26 50
        E 120 89 33 40
        E 0 89 26 40
        E 0 99 24 50
        E 120 89 24 40
        E 0 99 33 50
        E 120 89 33 40
        E 0 99 24 50
        E 120 89 24 40
        E 0 99 33 50
        E 0 99 26 50
        E 240 89 33 40
        E 0 89 26 40
        E 0 99 33 50
        E 0 99 24 50
        E 240 89 33 40
        E 0 89 24 40
        E 0 99 33 50
        E 0 99 26 50
        E 120 89 33 40
        E 0 89 26 40
        E 0 99 24 50
        E 120 89 24 40
        E 0 99 33 50
        E 120 89 33 40
        E 0 99 24 50
        E 120 89 24 40
        E 0 99 33 50
        E 0 99 26 50
        E 240 89 33 40
        E 0 89 26 40
        E 0 99 31 50
        E 0 99 24 50
        E 240 89 31 40
        E 0 89 24 40
        E 0 99 33 50
        E 0 99 26 50
        E 120 89 33 40
        E 0 89 26 40
        E 0 99 24 50
        E 120 89 24 40
        E 0 99 33 50
        E 120 89 33 40
        E 0 99 24 50
        E 120 89 24 40
        E 0 99 33 50
        E 0 99 26 50
        E 240 89 33 40
        E 0 89 26 40
        E 0 99 33 50
        E 0 99 24 50
        E 240 89 33 40
        E 0 89 24 40
        E 0 99 33 50
        E 0 99 26 50
        E 120 89 33 40
        E 0 89 26 40
        E 0 99 24 50
        E 120 89 24 40
        E 0 99 33 50
        E 120 89 33 40
        E 0 99 24 50
        E 120 89 24 40
        E 0 99 33 50
        E 0 99 26 50
        E 240 89 33 40
        E 0 89 26 40
        E 0 99 31 50
        E 0 99 24 50
        E 240 89 31 40
        E 0 89 24 40
        E 0 99 33 50
        E 0 99 26 50
        E 120 89 33 40
        E 0 89 26 40
        E 0 99 24 50
        E 120 89 24 40
        E 0 99 33 50
        E 120 89 33 40
        E 0 99 24 50
        E 120 89 24 40
        E 0 99 33 50
        E 0 99 26 50
        E 240 89 33 40
        E 0 89 26 40
        E 0 99 33 50
        E 0 99 24 50
        E 240 89 33 40
        E 0 89 24 40
        E 0 99 33 50
        E 0 99 26 50
        E 120 89 33 40
        E 0 89 26 40
        E 0 99 24 50
        E 120 89 24 40
        E 0 99 33 50
        E 120 89 33 40
        E 0 99 24 50
        E 120 89 24 40
        E 0 99 33 50
        E 0 99 26 50
        E 240 89 33 40
        E 0 89 26 40
        E 0 99 31 50
        E 0 99 24 50
        E 240 89 31 40
        E 0 89 24 40
        E 0 99 33 50
        E 0 99 26 50
        E 120 89 33 40
        E 0 89 26 40
        E 0 99 24 50
        E 120 89 24 40
        E 0 99 33 50
        E 120 89 33 40
        E 0 99 24 50
        E 120 89 24 40
        E 0 99 33 50
        E 0 99 26 50
        E 240 89 33 40
        E 0 89 26 40
        E 0 99 33 50
        E 0 99 24 50
        E 240 89 33 40
        E 0 89 24 40
        E 0 99 33 50
        E 0 99 26 50
        E 120 89 33 40
        E 0 89 26 40
        E 0 99 24 50
        E 120 89 24 40
        E 0 99 33 50
        E 120 89 33 40
        E 0 99 24 50
        E 120 89 24 40
        E 0 99 33 50
        E 0 99 26 50
        E 240 89 33 40
        E 0 89 26 40
        E 0 99 31 50
        E 0 99 24 50
        E 240 89 31 40
        E 0 89 24 40
        E 0 99 33 50
        E 0 99 26 50
        E 120 89 33 40
        E 0 89 26 40
        E 0 99 24 50
        E 120 89 24 40
        E 0 99 33 50
        E 120 89 33 40
        E 0 99 24 50
        E 120 89 24 40
        E 0 99 33 50
        E 0 99 26 50
        E 240 89 33 40
        E 0 89 26 40
        E 0 99 33 50
        E 0 99 24 50
        E 240 89 33 40
        E 0 89 24 40
        E 0 99 33 50
        E 0 99 26 50
        E 120 89 33 40
        E 0 89 26 40
        E 0 99 24 50
        E 120 89 24 40
        E 0 99 33 50
        E 120 89 33 40
        E 0 99 24 50
        E 120 89 24 40
        E 0 99 33 50
        E 0 99 26 50
        E 240 89 33 40
        E 0 89 26 40
        E 0 99 31 50
        E 0 99 24 50
        E 240 89 31 40
        E 0 89 24 40
        E 0 99 33 50
        E 0 99 26 50
        E 120 89 33 40
        E 0 89 26 40
        E 0 99 24 50
        E 120 89 24 40
        E 0 99 33 50
        E 120 89 33 40
        E 0 99 24 50
        E 120 89 24 40
        E 0 99 33 50
        E 0 99 26 50
        E 240 89 33 40
        E 0 89 26 40
        E 0 99 33 50
        E 0 99 24 50
        E 240 89 33 40
        E 0 89 24 40
        E 0 99 33 50
        E 0 99 26 50
        E 120 89 33 40
        E 0 89 26 40
        E 0 99 24 50
        E 120 89 24 40
        E 0 99 33 50
        E 120 89 33 40
        E 0 99 24 50
        E 120 89 24 40
        E 0 99 33 50
        E 0 99 26 50
        E 240 89 33 40
        E 0 89 26 40
        E 0 99 31 50
        E 0 99 24 50
        E 240 89 31 40
        E 0 89 24 40
        E 0 99 33 50
        E 0 99 26 50
        E 120 89 33 40
        E 0 89 26 40
        E 0 99 24 50
        E 120 89 24 40
        E 0 99 33 50
        E 120 89 33 40
        E 0 99 24 50
        E 120 89 24 40
        E 0 99 33 50
        E 0 99 26 50
        E 240 89 33 40
        E 0 89 26 40
        E 0 99 33 50
        E 0 99 24 50
        E 240 89 33 40
        E 0 89 24 40
        E 0 99 33 50
        E 0 99 26 50
        E 120 89 33 40
        E 0 89 26 40
        E 0 99 24 50
        E 120 89 24 40
        E 0 99 33 50
        E 120 89 33 40
        E 0 99 24 50
        E 120 89 24 40
        E 0 99 33 50
        E 0 99 26 50
        E 240 89 33 40
        E 0 89 26 40
        E 0 99 31 50
        E 0 99 24 50
        E 240 89 31 40
        E 0 89 24 40
        E 0 99 33 50
        E 0 99 26 50
        E 120 89 33 40
        E 0 89 26 40
        E 0 99 24 50
        E 120 89 24 40
        E 0 99 33 50
        E 120 89 33 40
        E 0 99 24 50
        E 120 89 24 40
        E 0 99 33 50
        E 0 99 26 50
        E 240 89 33 40
        E 0 89 26 40
        E 0 99 33 50
        E 0 99 24 50
        E 240 89 33 40
        E 0 89 24 40
        E 0 99 33 50
        E 0 99 26 50
        E 120 89 33 40
        E 0 89 26 40
        E 0 99 24 50
        E 120 89 24 40
        E 0 99 33 50
        E 120 89 33 40
        E 0 99 24 50
        E 120 89 24 40
        E 0 99 33 50
        E 0 99 26 50
        E 240 89 33 40
        E 0 89 26 40
        E 0 99 31 50
        E 0 99 24 50
        E 240 89 31 40
        E 0 89 24 40
        E 0 99 33 50
        E 0 99 26 50
        E 120 89 33 40
        E 0 89 26 40
        E 0 99 24 50
        E 120 89 24 40
        E 0 99 33 50
        E 120 89 33 40
        E 0 99 24 50
        E 120 89 24 40
        E 0 99 33 50
        E 0 99 26 50
        E 240 89 33 40
        E 0 89 26 40
        E 0 99 33 50
        E 0 99 24 50
        E 240 89 33 40
        E 0 89 24 40
        E 0 99 33 50
        E 0 99 26 50
        E 120 89 33 40
        E 0 89 26 40
        E 0 99 24 50
        E 120 89 24 40
        E 0 99 33 50
        E 120 89 33 40
        E 0 99 24 50
        E 120 89 24 40
        E 0 99 33 50
        E 0 99 26 50
        E 240 89 33 40
        E 0 89 26 40
        E 0 99 31 50
        E 0 99 24 50
        E 240 89 31 40
        E 0 89 24 40
        E 0 99 33 50
        E 0 99 26 50
        E 120 89 33 40
        E 0 89 26 40
        E 0 99 24 50
        E 120 89 24 40
        E 0 99 33 50
        E 120 89 33 40
        E 0 99 24 50
        E 120 89 24 40
        E 0 99 33 50
        E 0 99 26 50
        E 240 89 33 40
        E 0 89 26 40
        E 0 99 33 50
        E 0 99 24 50
        E 240 89 33 40
        E 0 89 24 40
        E 0 99 33 50
        E 0 99 26 50
        E 120 89 33 40
        E 0 89 26 40
        E 0 99 24 50
        E 120 89 24 40
        E 0 99 33 50
        E 120 89 33 40
        E 0 99 24 50
        E 120 89 24 40
        E 0 99 33 50
        E 0 99 26 50
        E 240 89 33 40
        E 0 89 26 40
        E 0 99 26 48
        E 480 89 26 40
        E 0 99 26 48
        E 240 89 26 40
        E 0 99 26 48
        E 120 89 26 40
        E 0 99 26 48
        E 120 89 26 40
        E 0 99 26 48
        E 120 89 26 40
        E 0 99 26 48
        E 120 89 26 40
        E 0 99 26 48
        E 120 89 26 40
        E 0 99 26 48
        E 120 89 26 40
        E 0 99 26 48
        E 240 89 26 40
        E 0 99 26 48
        E 240 89 26 40
        E 0 99 26 48
        E 480 89 26 40
        E 0 99 26 48
        E 240 89 26 40
        E 0 99 26 48
        E 120 89 26 40
        E 0 99 26 48
        E 120 89 26 40
        E 0 99 26 48
        E 120 89 26 40
        E 0 99 26 48
        E 120 89 26 40
        E 0 99 26 48
        E 120 89 26 40
        E 0 99 26 48
        E 120 89 26 40
        E 0 99 26 48
        E 240 89 26 40
        E 0 99 26 48
        E 240 89 26 40
        E 0 99 26 48
        E 480 89 26 40
        E 0 99 26 48
        E 240 89 26 40
        E 0 99 26 48
        E 120 89 26 40
        E 0 99 26 48
        E 120 89 26 40
        E 0 99 26 48
        E 120 89 26 40
        E 0 99 26 48
        E 120 89 26 40
        E 0 99 26 48
        E 120 89 26 40
        E 0 99 26 48
        E 120 89 26 40
        E 0 99 26 48
        E 240 89 26 40
        E 0 99 26 48
        E 240 89 26 40
        E 0 99 26 48
        E 480 89 26 40
        E 0 99 26 48
        E 240 89 26 40
        E 0 99 26 48
        E 120 89 26 40
        E 0 99 26 48
        E 120 89 26 40
        E 0 99 26 48
        E 120 89 26 40
        E 0 99 26 48
        E 120 89 26 40
        E 0 99 26 48
        E 120 89 26 40
        E 0 99 26 48
        E 120 89 26 40
        E 0 99 26 48
        E 240 89 26 40
        E 0 99 26 48
        E 240 89 26 40
        E 0 99 26 48
        E 480 89 26 40
        E 0 99 26 48
        E 240 89 26 40
        E 0 99 26 48
        E 120 89 26 40
        E 0 99 26 48
        E 120 89 26 40
        E 0 99 26 48
        E 120 89 26 40
        E 0 99 26 48
        E 120 89 26 40
        E 0 99 26 48
        E 120 89 26 40
        E 0 99 26 48
        E 120 89 26 40
        E 0 99 26 48
        E 240 89 26 40
        E 0 99 26 48
        E 240 89 26 40
        E 0 99 26 48
        E 480 89 26 40
        E 0 99 26 48
        E 240 89 26 40
        E 0 99 26 48
        E 120 89 26 40
        E 0 99 26 48
        E 120 89 26 40
        E 0 99 26 48
        E 120 89 26 40
        E 0 99 26 48
        E 120 89 26 40
        E 0 99 26 48
        E 120 89 26 40
        E 0 99 26 48
        E 120 89 26 40
        E 0 99 26 48
        E 240 89 26 40
        E 0 99 26 48
        E 240 89 26 40
        E 0 99 26 48
        E 480 89 26 40
        E 0 99 26 48
        E 240 89 26 40
        E 0 99 26 48
        E 120 89 26 40
        E 0 99 26 48
        E 120 89 26 40
        E 0 99 26 48
        E 120 89 26 40
        E 0 99 26 48
        E 120 89 26 40
        E 0 99 26 48
        E 120 89 26 40
        E 0 99 26 48
        E 120 89 26 40
        E 0 99 26 48
        E 240 89 26 40
        E 0 99 26 48
        E 240 89 26 40
        E 0 99 26 48
        E 480 89 26 40
        E 0 99 26 48
        E 240 89 26 40
        E 0 99 26 48
        E 120 89 26 40
        E 0 99 26 48
        E 120 89 26 40
        E 0 99 26 48
        E 120 89 26 40
        E 0 99 26 48
        E 120 89 26 40
        E 0 99 26 48
        E 120 89 26 40
        E 0 99 26 48
        E 120 89 26 40
        E 0 99 26 48
        E 240 89 26 40
        E 0 99 26 48
        E 240 89 26 40
        E 0 99 2a 48
        E 0 99 24 48
        E 0 99 26 48
        E 240 89 2a 40
        E 0 89 24 40
        E 0 89 26 40
        E 0 99 24 48
        E 240 89 24 40
        E 0 99 24 48
        E 0 99 2a 48
        E 0 99 2d 48
        E 240 89 24 40
        E 0 89 2a 40
        E 0 89 2d 40
        E 0 99 24 48
        E 0 99 2f 48
        E 240 89 24 40
        E 0 89 2f 40
        E 0 99 24 48
        E 0 99 2a 48
        E 0 99 26 48
        E 240 89 24 40
        E 0 89 2a 40
        E 0 89 26 40
        E 0 99 24 48
        E 240 89 24 40
        E 0 99 24 48
        E 0 99 2d 48
        E 0 99 39 48
        E 240 89 24 40
        E 0 89 2d 40
        E 0 89 39 40
        E 0 99 24 48
        E 240 89 24 40
        E 0 99 2a 48
        E 0 99 24 48
        E 0 99 26 48
        E 240 89 2a 40
        E 0 89 24 40
        E 0 89 26 40
        E 0 99 24 48
        E 240 89 24 40
        E 0 99 24 48
        E 0 99 2a 48
        E 240 89 24 40
        E 0 89 2a 40
        E 0 99 24 48
        E 0 99 2d 48
        E 240 89 24 40
        E 0 89 2d 40
        E 0 99 24 48
        E 0 99 26 48
        E 0 99 39 48
        E 240 89 24 40
        E 0 89 26 40
        E 0 89 39 40
        E 0 99 24 48
        E 240 89 24 40
        E 0 99 24 48
        E 0 99 2a 48
        E 240 89 24 40
        E 0 89 2a 40
        E 0 99 24 48
        E 240 89 24 40
        E 0 99 2a 48
        E 0 99 24 48
        E 0 99 26 48
        E 240 89 2a 40
        E 0 89 24 40
        E 0 89 26 40
        E 0 99 24 48
        E 0 99 2f 48
        E 240 89 24 40
        E 0 89 2f 40
        E 0 99 24 48
        E 0 99 31 48
        E 240 89 24 40
        E 0 89 31 40
        E 0 99 24 48
        E 240 89 24 40
        E 0 99 24 48
        E 0 99 2a 48
        E 0 99 26 48
        E 240 89 24 40
        E 0 89 2a 40
        E 0 89 26 40
        E 0 99 24 48
        E 240 89 24 40
        E 0 99 24 48
        E 0 99 2a 48
        E 240 89 24 40
        E 0 89 2a 40
        E 0 99 24 48
        E 240 89 24 40
        E 0 99 2a 48
        E 0 99 24 48
        E 0 99 26 48
        E 240 89 2a 40
        E 0 89 24 40
        E 0 89 26 40
        E 0 99 24 48
        E 240 89 24 40
        E 0 99 24 48
        E 0 99 2a 48
        E 240 89 24 40
        E 0 89 2a 40
        E 0 99 24 48
        E 240 89 24 40
        E 0 99 24 48
        E 0 99 2a 48
        E 0 99 26 48
        E 240 89 24 40
        E 0 89 2a 40
        E 0 89 26 40
        E 0 99 24 48
        E 240 89 24 40
        E 0 99 24 48
        E 0 99 2a 48
        E 240 89 24 40
        E 0 89 2a 40
        E 0 99 24 48
        E 240 89 24 40
        E 0 99 2a 48
        E 0 99 24 48
        E 0 99 26 48
        E 240 89 2a 40
        E 0 89 24 40
        E 0 89 26 40
        E 0 99 24 48
        E 240 89 24 40
        E 0 99 24 48
        E 0 99 2a 48
        E 0 99 2d 48
        E 240 89 24 40
        E 0 89 2a 40
        E 0 89 2d 40
        E 0 99 24 48
        E 0 99 2f 48
        E 240 89 24 40
        E 0 89 2f 40
        E 0 99 24 48
        E 0 99 2a 48
        E 0 99 26 48
        E 240 89 24 40
        E 0 89 2a 40
        E 0 89 26 40
        E 0 99 24 48
        E 240 89 24 40
        E 0 99 24 48
        E 0 99 31 48
        E 0 99 2d 48
        E 240 89 24 40
        E 0 89 31 40
        E 0 89 2d 40
        E 0 99 24 48
        E 240 89 24 40
        E 0 99 2a 48
        E 0 99 24 48
        E 0 99 26 48
        E 240 89 2a 40
        E 0 89 24 40
        E 0 89 26 40
        E 0 99 24 48
        E 240 89 24 40
        E 0 99 24 48
        E 0 99 2a 48
        E 240 89 24 40
        E 0 89 2a 40
        E 0 99 24 48
        E 0 99 2d 48
        E 240 89 24 40
        E 0 89 2d 40
        E 0 99 24 48
        E 0 99 26 48
        E 0 99 39 48
        E 240 89 24 40
        E 0 89 26 40
        E 0 89 39 40
        E 0 99 24 48
        E 240 89 24 40
        E 0 99 24 48
        E 0 99 2a 48
        E 240 89 24 40
        E 0 89 2a 40
        E 0 99 24 48
        E 240 89 24 40
        E 0 99 2a 48
        E 0 99 24 48
        E 0 99 26 48
        E 240 89 2a 40
        E 0 89 24 40
        E 0 89 26 40
        E 0 99 24 48
        E 240 89 24 40
        E 0 99 24 48
        E 0 99 2a 48
        E 0 99 2b 48
        E 240 89 24 40
        E 0 89 2a 40
        E 0 89 2b 40
        E 0 99 24 48
        E 0 99 2d 48
        E 240 89 24 40
        E 0 89 2d 40
        E 0 99 24 48
        E 0 99 26 48
        E 0 99 2a 48
        E 240 89 24 40
        E 0 89 26 40
        E 0 89 2a 40
        E 0 99 24 48
        E 0 99 2f 48
        E 240 89 24 40
        E 0 89 2f 40
        E 0 99 24 48
        E 0 99 2d 48
        E 0 99 31 48
        E 240 89 24 40
        E 0 89 2d 40
        E 0 89 31 40
        E 0 99 24 48
        E 240 89 24 40
        E 0 99 24 48
        E 0 99 26 48
        E 0 99 2a 48
        E 240 89 24 40
        E 0 89 26 40
        E 0 89 2a 40
        E 0 99 24 48
        E 240 89 24 40
        E 0 99 24 48
        E 0 99 2a 48
        E 240 89 24 40
        E 0 89 2a 40
        E 0 99 24 48
        E 240 89 24 40
        E 0 99 24 48
        E 0 99 26 48
        E 0 99 2a 48
        E 240 89 24 40
        E 0 89 26 40
        E 0 89 2a 40
        E 0 99 24 48
        E 240 89 24 40
        E 0 99 24 48
        E 0 99 2a 48
        E 240 89 24 40
        E 0 89 2a 40
        E 0 99 24 48
        E 240 89 24 40
        E 0 99 2a 48
        E 0 99 24 48
        E 0 99 26 48
        E 240 89 2a 40
        E 0 89 24 40
        E 0 89 26 40
        E 0 99 24 48
        E 240 89 24 40
        E 0 99 24 48
        E 0 99 2a 48
        E 0 99 2d 48
        E 240 89 24 40
        E 0 89 2a 40
        E 0 89 2d 40
        E 0 99 24 48
        E 0 99 2f 48
        E 240 89 24 40
        E 0 89 2f 40
        E 0 99 24 48
        E 0 99 2a 48
        E 0 99 26 48
        E 240 89 24 40
        E 0 89 2a 40
        E 0 89 26 40
        E 0 99 24 48
        E 240 89 24 40
        E 0 99 24 48
        E 0 99 2d 48
        E 0 99 39 48
        E 240 89 24 40
        E 0 89 2d 40
        E 0 89 39 40
        E 0 99 24 48
        E 240 89 24 40
        E 0 99 2a 48
        E 0 99 24 48
        E 0 99 26 48
        E 240 89 2a 40
        E 0 89 24 40
        E 0 89 26 40
        E 0 99 24 48
        E 240 89 24 40
        E 0 99 24 48
        E 0 99 2a 48
        E 240 89 24 40
        E 0 89 2a 40
        E 0 99 24 48
        E 0 99 2d 48
        E 240 89 24 40
        E 0 89 2d 40
        E 0 99 24 48
        E 0 99 26 48
        E 0 99 39 48
        E 240 89 24 40
        E 0 89 26 40
        E 0 89 39 40
        E 0 99 24 48
        E 240 89 24 40
        E 0 99 24 48
        E 0 99 2a 48
        E 240 89 24 40
        E 0 89 2a 40
        E 0 99 24 48
        E 240 89 24 40
        E 0 99 2a 48
        E 0 99 24 48
        E 0 99 26 48
        E 240 89 2a 40
        E 0 89 24 40
        E 0 89 26 40
        E 0 99 24 48
        E 0 99 2f 48
        E 240 89 24 40
        E 0 89 2f 40
        E 0 99 24 48
        E 0 99 31 48
        E 240 89 24 40
        E 0 89 31 40
        E 0 99 24 48
        E 240 89 24 40
        E 0 99 24 48
        E 0 99 2a 48
        E 0 99 26 48
        E 240 89 24 40
        E 0 89 2a 40
        E 0 89 26 40
        E 0 99 24 48
        E 240 89 24 40
        E 0 99 24 48
        E 0 99 2a 48
        E 240 89 24 40
        E 0 89 2a 40
        E 0 99 24 48
        E 240 89 24 40
        E 0 99 2a 48
        E 0 99 24 48
        E 0 99 26 48
        E 240 89 2a 40
        E 0 89 24 40
        E 0 89 26 40
        E 0 99 24 48
        E 240 89 24 40
        E 0 99 24 48
        E 0 99 2a 48
        E 240 89 24 40
        E 0 89 2a 40
        E 0 99 24 48
        E 240 89 24 40
        E 0 99 24 48
        E 0 99 2a 48
        E 0 99 26 48
        E 240 89 24 40
        E 0 89 2a 40
        E 0 89 26 40
        E 0 99 24 48
        E 240 89 24 40
        E 0 99 24 48
        E 0 99 2a 48
        E 240 89 24 40
        E 0 89 2a 40
        E 0 99 24 48
        E 240 89 24 40
        E 0 99 2a 48
        E 0 99 24 48
        E 0 99 26 48
        E 240 89 2a 40
        E 0 89 24 40
        E 0 89 26 40
        E 0 99 24 48
        E 240 89 24 40
        E 0 99 24 48
        E 0 99 2a 48
        E 0 99 2d 48
        E 240 89 24 40
        E 0 89 2a 40
        E 0 89 2d 40
        E 0 99 24 48
        E 0 99 2f 48
        E 240 89 24 40
        E 0 89 2f 40
        E 0 99 24 48
        E 0 99 2a 48
        E 0 99 26 48
        E 240 89 24 40
        E 0 89 2a 40
        E 0 89 26 40
        E 0 99 24 48
        E 240 89 24 40
        E 0 99 24 48
        E 0 99 31 48
        E 0 99 2d 48
        E 240 89 24 40
        E 0 89 31 40
        E 0 89 2d 40
        E 0 99 24 48
        E 240 89 24 40
        E 0 99 2a 48
        E 0 99 24 48
        E 0 99 26 48
        E 240 89 2a 40
        E 0 89 24 40
        E 0 89 26 40
        E 0 99 24 48
        E 240 89 24 40
        E 0 99 24 48
        E 0 99 2a 48
        E 240 89 24 40
        E 0 89 2a 40
        E 0 99 24 48
        E 0 99 2d 48
        E 240 89 24 40
        E 0 89 2d 40
        E 0 99 24 48
        E 0 99 26 48
        E 0 99 39 48
        E 240 89 24 40
        E 0 89 26 40
        E 0 89 39 40
        E 0 99 24 48
        E 240 89 24 40
        E 0 99 24 48
        E 0 99 2a 48
        E 240 89 24 40
        E 0 89 2a 40
        E 0 99 24 48
        E 240 89 24 40
        E 0 99 2a 48
        E 0 99 24 48
        E 0 99 26 48
        E 240 89 2a 40
        E 0 89 24 40
        E 0 89 26 40
        E 0 99 24 48
        E 240 89 24 40
        E 0 99 24 48
        E 0 99 2a 48
        E 0 99 2b 48
        E 240 89 24 40
        E 0 89 2a 40
        E 0 89 2b 40
        E 0 99 24 48
        E 0 99 2d 48
        E 240 89 24 40
        E 0 89 2d 40
        E 0 99 24 48
        E 0 99 26 48
        E 0 99 2a 48
        E 240 89 24 40
        E 0 89 26 40
        E 0 89 2a 40
        E 0 99 24 48
        E 0 99 2f 48
        E 240 89 24 40
        E 0 89 2f 40
        E 0 99 24 48
        E 0 99 2d 48
        E 0 99 31 48
        E 240 89 24 40
        E 0 89 2d 40
        E 0 89 31 40
        E 0 99 24 48
        E 240 89 24 40
        E 5760 99 24 48
        E 480 89 24 40
        E 0 99 2a 48
        E 0 99 2d 48
        E 480 89 2a 40
        E 0 89 2d 40
        E 0 99 24 48
        E 480 89 24 40
        E 0 99 2a 48
        E 0 99 2d 48
        E 480 89 2a 40
        E 0 89 2d 40
        E 0 99 24 48
        E 480 89 24 40
        E 0 99 2a 48
        E 0 99 2d 48
        E 480 89 2a 40
        E 0 89 2d 40
        E 0 99 24 48
        E 480 89 24 40
        E 0 99 2a 48
        E 0 99 2d 48
        E 480 89 2a 40
        E 0 89 2d 40
        E 0 99 24 48
        E 480 89 24 40
        E 0 99 2a 48
        E 0 99 2d 48
        E 480 89 2a 40
        E 0 89 2d 40
        E 0 99 24 48
        E 480 89 24 40
        E 0 99 2a 48
        E 0 99 2d 48
        E 480 89 2a 40
        E 0 89 2d 40
        E 0 99 24 48
        E 480 89 24 40
        E 0 99 2a 48
        E 0 99 2d 48
        E 480 89 2a 40
        E 0 89 2d 40
        E 0 99 24 48
        E 480 89 24 40
        E 0 99 2a 48
        E 0 99 2d 48
        E 480 89 2a 40
        E 0 89 2d 40
        E 0 99 24 48
        E 480 89 24 40
        E 0 99 2a 48
        E 0 99 2d 48
        E 480 89 2a 40
        E 0 89 2d 40
        E 0 99 24 48
        E 480 89 24 40
        E 0 99 2a 48
        E 0 99 2d 48
        E 480 89 2a 40
        E 0 89 2d 40
        E 0 99 24 48
        E 480 89 24 40
        E 0 99 2a 48
        E 0 99 2d 48
        E 480 89 2a 40
        E 0 89 2d 40
        E 0 99 24 48
        E 480 89 24 40
        E 0 99 2a 48
        E 0 99 2d 48
        E 480 89 2a 40
        E 0 89 2d 40
        E 0 99 24 48
        E 480 89 24 40
        E 0 99 2a 48
        E 0 99 2d 48
        E 480 89 2a 40
        E 0 89 2d 40
        E 0 99 24 48
        E 480 89 24 40
        E 0 99 2a 48
        E 0 99 2d 48
        E 480 89 2a 40
        E 0 89 2d 40
        E 0 99 24 48
        E 480 89 24 40
        E 0 99 2a 48
        E 0 99 2d 48
        E 480 89 2a 40
        E 0 89 2d 40
        E 0 99 24 48
        E 480 89 24 40
        E 0 99 2a 48
        E 0 99 2d 48
        E 480 89 2a 40
        E 0 89 2d 40
        E 0 99 24 48
        E 480 89 24 40
        E 0 99 2a 48
        E 0 99 2d 48
        E 0 99 24 48
        E 480 89 2a 40
        E 0 89 2d 40
        E 0 89 24 40
        E 0 99 24 48
        E 480 89 24 40
        E 0 99 2a 48
        E 0 99 2d 48
        E 0 99 24 48
        E 480 89 2a 40
        E 0 89 2d 40
        E 0 89 24 40
        E 0 99 24 48
        E 480 89 24 40
        E 0 99 2a 48
        E 0 99 2d 48
        E 0 99 24 48
        E 480 89 2a 40
        E 0 89 2d 40
        E 0 89 24 40
        E 0 99 24 48
        E 480 89 24 40
        E 0 99 2a 48
        E 0 99 2d 48
        E 0 99 24 48
        E 480 89 2a 40
        E 0 89 2d 40
        E 0 89 24 40
        E 0 99 33 48
        E 0 99 24 48
        E 240 89 33 40
        E 0 89 24 40
        E 0 99 24 48
        E 240 89 24 40
        E 0 99 2d 48
        E 0 99 33 48
        E 0 99 24 48
        E 240 89 2d 40
        E 0 89 33 40
        E 0 89 24 40
        E 0 99 24 48
        E 240 89 24 40
        E 0 99 33 48
        E 0 99 24 48
        E 240 89 33 40
        E 0 89 24 40
        E 0 99 24 48
        E 240 89 24 40
        E 0 99 2d 48
        E 0 99 33 48
        E 0 99 24 48
        E 240 89 2d 40
        E 0 89 33 40
        E 0 89 24 40
        E 0 99 33 48
        E 0 99 24 48
        E 240 89 33 40
        E 0 89 24 40
        E 0 99 2f 48
        E 0 99 24 48
        E 0 99 33 48
        E 240 89 2f 40
        E 0 89 24 40
        E 0 89 33 40
        E 0 99 2f 48
        E 0 99 24 48
        E 240 89 2f 40
        E 0 89 24 40
        E 0 99 2f 48
        E 0 99 24 48
        E 0 99 33 48
        E 240 89 2f 40
        E 0 89 24 40
        E 0 89 33 40
        E 0 99 2f 48
        E 0 99 24 48
        E 240 89 2f 40
        E 0 89 24 40
        E 0 99 2f 48
        E 0 99 24 48
        E 0 99 33 48
        E 240 89 2f 40
        E 0 89 24 40
        E 0 89 33 40
        E 0 99 2f 48
        E 0 99 24 48
        E 0 99 33 48
        E 240 89 2f 40
        E 0 89 24 40
        E 0 89 33 40
        E 0 99 2f 48
        E 0 99 24 48
        E 0 99 33 48
        E 240 89 2f 40
        E 0 89 24 40
        E 0 89 33 40
        E 0 99 2f 48
        E 0 99 24 48
        E 0 99 33 48
        E 240 89 2f 40
        E 0 89 24 40
        E 0 89 33 40
        E 0 99 2e 58
        E 0 99 24 58
        E 120 89 2e 40
        E 0 89 24 40
        E 0 99 24 58
        E 120 89 24 40
        E 0 99 24 58
        E 120 89 24 40
        E 0 99 24 58
        E 120 89 24 40
        E 0 99 2e 58
        E 0 99 26 58
        E 0 99 24 58
        E 120 89 2e 40
        E 0 89 26 40
        E 0 89 24 40
        E 0 99 24 58
        E 120 89 24 40
        E 0 99 24 58
        E 120 89 24 40
        E 0 99 24 58
        E 120 89 24 40
        E 0 99 2e 58
        E 0 99 24 58
        E 120 89 2e 40
        E 0 89 24 40
        E 0 99 24 58
        E 120 89 24 40
        E 0 99 24 58
        E 120 89 24 40
        E 0 99 24 58
        E 120 89 24 40
        E 0 99 2e 58
        E 0 99 26 58
        E 0 99 24 58
        E 120 89 2e 40
        E 0 89 26 40
        E 0 89 24 40
        E 0 99 24 58
        E 120 89 24 40
        E 0 99 24 58
        E 120 89 24 40
        E 0 99 24 58
        E 120 89 24 40
        E 0 99 2e 58
        E 0 99 24 58
        E 120 89 2e 40
        E 0 89 24 40
        E 0 99 24 58
        E 120 89 24 40
        E 0 99 24 58
        E 120 89 24 40
        E 0 99 24 58
        E 120 89 24 40
        E 0 99 2e 58
        E 0 99 26 58
        E 0 99 24 58
        E 120 89 2e 40
        E 0 89 26 40
        E 0 89 24 40
        E 0 99 24 58
        E 120 89 24 40
        E 0 99 24 58
        E 120 89 24 40
        E 0 99 24 58
        E 120 89 24 40
        E 0 99 2e 58
        E 0 99 24 58
        E 120 89 2e 40
        E 0 89 24 40
        E 0 99 24 58
        E 120 89 24 40
        E 0 99 24 58
        E 120 89 24 40
        E 0 99 24 58
        E 120 89 24 40
        E 0 99 2e 58
        E 0 99 26 58
        E 0 99 24 58
        E 120 89 2e 40
        E 0 89 26 40
        E 0 89 24 40
        E 0 99 24 58
        E 120 89 24 40
        E 0 99 24 58
        E 120 89 24 40
        E 0 99 26 58
        E 0 99 24 58
        E 120 89 26 40
        E 0 89 24 40
        E 0 99 2e 58
        E 0 99 24 58
        E 120 89 2e 40
        E 0 89 24 40
        E 0 99 24 58
        E 120 89 24 40
        E 0 99 24 58
        E 120 89 24 40
        E 0 99 24 58
        E 120 89 24 40
        E 0 99 2e 58
        E 0 99 26 58
        E 0 99 24 58
        E 120 89 2e 40
        E 0 89 26 40
        E 0 89 24 40
        E 0 99 24 58
        E 120 89 24 40
        E 0 99 24 58
        E 120 89 24 40
        E 0 99 24 58
        E 120 89 24 40
        E 0 99 2e 58
        E 0 99 24 58
        E 120 89 2e 40
        E 0 89 24 40
        E 0 99 24 58
        E 120 89 24 40
        E 0 99 24 58
        E 120 89 24 40
        E 0 99 24 58
        E 120 89 24 40
        E 0 99 2e 58
        E 0 99 26 58
        E 0 99 24 58
        E 120 89 2e 40
        E 0 89 26 40
        E 0 89 24 40
        E 0 99 24 58
        E 120 89 24 40
        E 0 99 24 58
        E 120 89 24 40
        E 0 99 24 58
        E 120 89 24 40
        E 0 99 2e 58
        E 0 99 26 58
        E 0 99 24 58
        E 120 89 2e 40
        E 0 89 26 40
        E 0 89 24 40
        E 0 99 24 58
        E 120 89 24 40
        E 0 99 24 58
        E 120 89 24 40
        E 0 99 2e 58
        E 0 99 26 58
        E 0 99 24 58
        E 120 89 2e 40
        E 0 89 26 40
        E 0 89 24 40
        E 0 99 24 58
        E 120 89 24 40
        E 0 99 24 58
        E 120 89 24 40
        E 0 99 2e 58
        E 0 99 26 58
        E 0 99 24 58
        E 120 89 2e 40
        E 0 89 26 40
        E 0 89 24 40
        E 0 99 24 58
        E 120 89 24 40
        E 0 99 24 58
        E 120 89 24 40
        E 0 99 2e 58
        E 0 99 26 58
        E 0 99 24 58
        E 120 89 2e 40
        E 0 89 26 40
        E 0 89 24 40
        E 0 99 24 58
        E 120 89 24 40
        E 0 99 24 58
        E 120 89 24 40
        E 0 99 2e 58
        E 0 99 26 58
        E 0 99 24 58
        E 120 89 2e 40
        E 0 89 26 40
        E 0 89 24 40
        E 0 99 24 58
        E 120 89 24 40
        E 0 99 37 58
        E 0 99 26 58
        E 0 99 24 58
        E 120 89 37 40
        E 0 89 26 40
        E 0 89 24 40
        E 0 99 26 58
        E 0 99 24 58
        E 120 89 26 40
        E 0 89 24 40
        E 0 99 2e 58
        E 0 99 24 58
        E 120 89 2e 40
        E 0 89 24 40
        E 0 99 24 58
        E 120 89 24 40
        E 0 99 24 58
        E 120 89 24 40
        E 0 99 24 58
        E 120 89 24 40
        E 0 99 2e 58
        E 0 99 26 58
        E 0 99 24 58
        E 120 89 2e 40
        E 0 89 26 40
        E 0 89 24 40
        E 0 99 24 58
        E 120 89 24 40
        E 0 99 24 58
        E 120 89 24 40
        E 0 99 24 58
        E 120 89 24 40
        E 0 99 2e 58
        E 0 99 24 58
        E 120 89 2e 40
        E 0 89 24 40
        E 0 99 24 58
        E 120 89 24 40
        E 0 99 24 58
        E 120 89 24 40
        E 0 99 24 58
        E 120 89 24 40
        E 0 99 2e 58
        E 0 99 26 58
        E 0 99 24 58
        E 120 89 2e 40
        E 0 89 26 40
        E 0 89 24 40
        E 0 99 24 58
        E 120 89 24 40
        E 0 99 24 58
        E 120 89 24 40
        E 0 99 24 58
        E 120 89 24 40
        E 0 99 2e 58
        E 0 99 24 58
        E 120 89 2e 40
        E 0 89 24 40
        E 0 99 24 58
        E 120 89 24 40
        E 0 99 24 58
        E 120 89 24 40
        E 0 99 24 58
        E 120 89 24 40
        E 0 99 2e 58
        E 0 99 26 58
        E 0 99 24 58
        E 120 89 2e 40
        E 0 89 26 40
        E 0 89 24 40
        E 0 99 24 58
        E 120 89 24 40
        E 0 99 24 58
        E 120 89 24 40
        E 0 99 24 58
        E 120 89 24 40
        E 0 99 2e 58
        E 0 99 24 58
        E 120 89 2e 40
        E 0 89 24 40
        E 0 99 24 58
        E 120 89 24 40
        E 0 99 24 58
        E 120 89 24 40
        E 0 99 24 58
        E 120 89 24 40
        E 0 99 2e 58
        E 0 99 26 58
        E 0 99 24 58
        E 120 89 2e 40
        E 0 89 26 40
        E 0 89 24 40
        E 0 99 24 58
        E 120 89 24 40
        E 0 99 24 58
        E 120 89 24 40
        E 0 99 24 58
        E 120 89 24 40
        E 0 99 39 48
        E 0 99 26 48
        E 0 99 24 48
        E 120 89 39 40
        E 0 89 26 40
        E 0 89 24 40
        E 0 99 26 48
        E 0 99 24 48
        E 120 89 26 40
        E 0 89 24 40
        E 0 99 24 48
        E 120 89 24 40
        E 0 99 24 48
        E 120 89 24 40
        E 0 99 26 48
        E 0 99 24 48
        E 120 89 26 40
        E 0 89 24 40
        E 0 99 26 48
        E 0 99 24 48
        E 120 89 26 40
        E 0 89 24 40
        E 0 99 26 48
        E 0 99 24 48
        E 120 89 26 40
        E 0 89 24 40
        E 0 99 26 48
        E 0 99 24 48
        E 120 89 26 40
        E 0 89 24 40
        E 0 99 2d 48
        E 0 99 24 48
        E 120 89 2d 40
        E 0 89 24 40
        E 0 99 2d 48
        E 0 99 24 48
        E 120 89 2d 40
        E 0 89 24 40
        E 0 99 2d 48
        E 0 99 24 48
        E 120 89 2d 40
        E 0 89 24 40
        E 0 99 2d 48
        E 0 99 24 48
        E 120 89 2d 40
        E 0 89 24 40
        E 0 99 2b 48
        E 0 99 24 48
        E 120 89 2b 40
        E 0 89 24 40
        E 0 99 2b 48
        E 0 99 24 48
        E 120 89 2b 40
        E 0 89 24 40
        E 0 99 2b 48
        E 0 99 24 48
        E 120 89 2b 40
        E 0 89 24 40
        E 0 99 2b 48
        E 0 99 24 48
        E 120 89 2b 40
        E 0 89 24 40
        E 0 99 2e 48
        E 0 99 26 48
        E 0 99 24 48
        E 120 89 2e 40
        E 0 89 26 40
        E 0 89 24 40
        E 0 99 24 48
        E 120 89 24 40
        E 0 99 24 48
        E 120 89 24 40
        E 0 99 24 48
        E 120 89 24 40
        E 0 99 2e 48
        E 0 99 26 48
        E 0 99 24 48
        E 120 89 2e 40
        E 0 89 26 40
        E 0 89 24 40
        E 0 99 24 48
        E 120 89 24 40
        E 0 99 24 48
        E 120 89 24 40
        E 0 99 24 48
        E 120 89 24 40
        E 0 99 2e 48
        E 0 99 26 48
        E 0 99 24 48
        E 120 89 2e 40
        E 0 89 26 40
        E 0 89 24 40
        E 0 99 24 48
        E 120 89 24 40
        E 0 99 24 48
        E 120 89 24 40
        E 0 99 24 48
        E 120 89 24 40
        E 0 99 31 48
        E 0 99 26 48
        E 0 99 24 48
        E 120 89 31 40
        E 0 89 26 40
        E 0 89 24 40
        E 0 99 24 48
        E 120 89 24 40
        E 0 99 31 48
        E 0 99 26 48
        E 0 99 24 48
        E 120 89 31 40
        E 0 89 26 40
        E 0 89 24 40
        E 0 99 26 48
        E 0 99 24 48
        E 120 89 26 40
        E 0 89 24 40
        E 0 99 2e 58
        E 0 99 24 58
        E 120 89 2e 40
        E 0 89 24 40
        E 0 99 24 58
        E 120 89 24 40
        E 0 99 24 58
        E 120 89 24 40
        E 0 99 24 58
        E 120 89 24 40
        E 0 99 2e 58
        E 0 99 26 58
        E 0 99 24 58
        E 120 89 2e 40
        E 0 89 26 40
        E 0 89 24 40
        E 0 99 24 58
        E 120 89 24 40
        E 0 99 24 58
        E 120 89 24 40
        E 0 99 24 58
        E 120 89 24 40
        E 0 99 2e 58
        E 0 99 24 58
        E 120 89 2e 40
        E 0 89 24 40
        E 0 99 24 58
        E 120 89 24 40
        E 0 99 24 58
        E 120 89 24 40
        E 0 99 24 58
        E 120 89 24 40
        E 0 99 2e 58
        E 0 99 26 58
        E 0 99 24 58
        E 120 89 2e 40
        E 0 89 26 40
        E 0 89 24 40
        E 0 99 24 58
        E 120 89 24 40
        E 0 99 24 58
        E 120 89 24 40
        E 0 99 24 58
        E 120 89 24 40
        E 0 99 2e 58
        E 0 99 24 58
        E 120 89 2e 40
        E 0 89 24 40
        E 0 99 24 58
        E 120 89 24 40
        E 0 99 24 58
        E 120 89 24 40
        E 0 99 24 58
        E 120 89 24 40
        E 0 99 2e 58
        E 0 99 26 58
        E 0 99 24 58
        E 120 89 2e 40
        E 0 89 26 40
        E 0 89 24 40
        E 0 99 24 58
        E 120 89 24 40
        E 0 99 24 58
        E 120 89 24 40
        E 0 99 24 58
        E 120 89 24 40
        E 0 99 2e 58
        E 0 99 24 58
        E 120 89 2e 40
        E 0 89 24 40
        E 0 99 24 58
        E 120 89 24 40
        E 0 99 24 58
        E 120 89 24 40
        E 0 99 24 58
        E 120 89 24 40
        E 0 99 2e 58
        E 0 99 26 58
        E 0 99 24 58
        E 120 89 2e 40
        E 0 89 26 40
        E 0 89 24 40
        E 0 99 24 58
        E 120 89 24 40
        E 0 99 24 58
        E 120 89 24 40
        E 0 99 26 58
        E 0 99 24 58
        E 120 89 26 40
        E 0 89 24 40
        E 0 99 2e 58
        E 0 99 24 58
        E 120 89 2e 40
        E 0 89 24 40
        E 0 99 24 58
        E 120 89 24 40
        E 0 99 24 58
        E 120 89 24 40
        E 0 99 24 58
        E 120 89 24 40
        E 0 99 2e 58
        E 0 99 26 58
        E 0 99 24 58
        E 120 89 2e 40
        E 0 89 26 40
        E 0 89 24 40
        E 0 99 24 58
        E 120 89 24 40
        E 0 99 24 58
        E 120 89 24 40
        E 0 99 24 58
        E 120 89 24 40
        E 0 99 2e 58
        E 0 99 24 58
        E 120 89 2e 40
        E 0 89 24 40
        E 0 99 24 58
        E 120 89 24 40
        E 0 99 24 58
        E 120 89 24 40
        E 0 99 24 58
        E 120 89 24 40
        E 0 99 2e 58
        E 0 99 26 58
        E 0 99 24 58
        E 120 89 2e 40
        E 0 89 26 40
        E 0 89 24 40
        E 0 99 24 58
        E 120 89 24 40
        E 0 99 24 58
        E 120 89 24 40
        E 0 99 24 58
        E 120 89 24 40
        E 0 99 2e 58
        E 0 99 26 58
        E 0 99 24 58
        E 120 89 2e 40
        E 0 89 26 40
        E 0 89 24 40
        E 0 99 24 58
        E 120 89 24 40
        E 0 99 24 58
        E 120 89 24 40
        E 0 99 2e 58
        E 0 99 26 58
        E 0 99 24 58
        E 120 89 2e 40
        E 0 89 26 40
        E 0 89 24 40
        E 0 99 24 58
        E 120 89 24 40
        E 0 99 24 58
        E 120 89 24 40
        E 0 99 2e 58
        E 0 99 26 58
        E 0 99 24 58
        E 120 89 2e 40
        E 0 89 26 40
        E 0 89 24 40
        E 0 99 24 58
        E 120 89 24 40
        E 0 99 24 58
        E 120 89 24 40
        E 0 99 2e 58
        E 0 99 26 58
        E 0 99 24 58
        E 120 89 2e 40
        E 0 89 26 40
        E 0 89 24 40
        E 0 99 24 58
        E 120 89 24 40
        E 0 99 24 58
        E 120 89 24 40
        E 0 99 2e 58
        E 0 99 26 58
        E 0 99 24 58
        E 120 89 2e 40
        E 0 89 26 40
        E 0 89 24 40
        E 0 99 24 58
        E 120 89 24 40
        E 0 99 37 58
        E 0 99 26 58
        E 0 99 24 58
        E 120 89 37 40
        E 0 89 26 40
        E 0 89 24 40
        E 0 99 26 58
        E 0 99 24 58
        E 120 89 26 40
        E 0 89 24 40
        E 0 99 2e 58
        E 0 99 24 58
        E 120 89 2e 40
        E 0 89 24 40
        E 0 99 24 58
        E 120 89 24 40
        E 0 99 24 58
        E 120 89 24 40
        E 0 99 24 58
        E 120 89 24 40
        E 0 99 2e 58
        E 0 99 26 58
        E 0 99 24 58
        E 120 89 2e 40
        E 0 89 26 40
        E 0 89 24 40
        E 0 99 24 58
        E 120 89 24 40
        E 0 99 24 58
        E 120 89 24 40
        E 0 99 24 58
        E 120 89 24 40
        E 0 99 2e 58
        E 0 99 24 58
        E 120 89 2e 40
        E 0 89 24 40
        E 0 99 24 58
        E 120 89 24 40
        E 0 99 24 58
        E 120 89 24 40
        E 0 99 24 58
        E 120 89 24 40
        E 0 99 2e 58
        E 0 99 26 58
        E 0 99 24 58
        E 120 89 2e 40
        E 0 89 26 40
        E 0 89 24 40
        E 0 99 24 58
        E 120 89 24 40
        E 0 99 24 58
        E 120 89 24 40
        E 0 99 24 58
        E 120 89 24 40
        E 0 99 2e 58
        E 0 99 24 58
        E 120 89 2e 40
        E 0 89 24 40
        E 0 99 24 58
        E 120 89 24 40
        E 0 99 24 58
        E 120 89 24 40
        E 0 99 24 58
        E 120 89 24 40
        E 0 99 2e 58
        E 0 99 26 58
        E 0 99 24 58
        E 120 89 2e 40
        E 0 89 26 40
        E 0 89 24 40
        E 0 99 24 58
        E 120 89 24 40
        E 0 99 24 58
        E 120 89 24 40
        E 0 99 24 58
        E 120 89 24 40
        E 0 99 2e 58
        E 0 99 24 58
        E 120 89 2e 40
        E 0 89 24 40
        E 0 99 24 58
        E 120 89 24 40
        E 0 99 24 58
        E 120 89 24 40
        E 0 99 24 58
        E 120 89 24 40
        E 0 99 2e 58
        E 0 99 26 58
        E 0 99 24 58
        E 120 89 2e 40
        E 0 89 26 40
        E 0 89 24 40
        E 0 99 24 58
        E 120 89 24 40
        E 0 99 24 58
        E 120 89 24 40
        E 0 99 24 58
        E 120 89 24 40
        E 0 99 39 48
        E 0 99 26 48
        E 0 99 24 48
        E 120 89 39 40
        E 0 89 26 40
        E 0 89 24 40
        E 0 99 26 48
        E 0 99 24 48
        E 120 89 26 40
        E 0 89 24 40
        E 0 99 24 48
        E 120 89 24 40
        E 0 99 24 48
        E 120 89 24 40
        E 0 99 26 48
        E 0 99 24 48
        E 120 89 26 40
        E 0 89 24 40
        E 0 99 26 48
        E 0 99 24 48
        E 120 89 26 40
        E 0 89 24 40
        E 0 99 26 48
        E 0 99 24 48
        E 120 89 26 40
        E 0 89 24 40
        E 0 99 26 48
        E 0 99 24 48
        E 120 89 26 40
        E 0 89 24 40
        E 0 99 2d 48
        E 0 99 24 48
        E 120 89 2d 40
        E 0 89 24 40
        E 0 99 2d 48
        E 0 99 24 48
        E 120 89 2d 40
        E 0 89 24 40
        E 0 99 2d 48
        E 0 99 24 48
        E 120 89 2d 40
        E 0 89 24 40
        E 0 99 2d 48
        E 0 99 24 48
        E 120 89 2d 40
        E 0 89 24 40
        E 0 99 2b 48
        E 0 99 24 48
        E 120 89 2b 40
        E 0 89 24 40
        E 0 99 2b 48
        E 0 99 24 48
        E 120 89 2b 40
        E 0 89 24 40
        E 0 99 2b 48
        E 0 99 24 48
        E 120 89 2b 40
        E 0 89 24 40
        E 0 99 2b 48
        E 0 99 24 48
        E 120 89 2b 40
        E 0 89 24 40
        E 0 99 2e 48
        E 0 99 26 48
        E 0 99 24 48
        E 120 89 2e 40
        E 0 89 26 40
        E 0 89 24 40
        E 0 99 24 48
        E 120 89 24 40
        E 0 99 24 48
        E 120 89 24 40
        E 0 99 24 48
        E 120 89 24 40
        E 0 99 2e 48
        E 0 99 26 48
        E 0 99 24 48
        E 120 89 2e 40
        E 0 89 26 40
        E 0 89 24 40
        E 0 99 24 48
        E 120 89 24 40
        E 0 99 24 48
        E 120 89 24 40
        E 0 99 24 48
        E 120 89 24 40
        E 0 99 2e 48
        E 0 99 26 48
        E 0 99 24 48
        E 120 89 2e 40
        E 0 89 26 40
        E 0 89 24 40
        E 0 99 24 48
        E 120 89 24 40
        E 0 99 24 48
        E 120 89 24 40
        E 0 99 24 48
        E 120 89 24 40
        E 0 99 31 48
        E 0 99 26 48
        E 0 99 24 48
        E 120 89 31 40
        E 0 89 26 40
        E 0 89 24 40
        E 0 99 24 48
        E 120 89 24 40
        E 0 99 31 48
        E 0 99 26 48
        E 0 99 24 48
        E 120 89 31 40
        E 0 89 26 40
        E 0 89 24 40
        E 0 99 26 48
        E 0 99 24 48
        E 120 89 26 40
        E 0 89 24 40
        E 0 99 31 48
        E 0 99 24 48
        E 0 99 26 48
        E 1920 89 31 40
        E 0 89 24 40
        E 0 89 26 40
        E 3840 99 31 48
        E 0 99 24 48
        E 0 99 26 48
        E 1919 89 31 40
        E 0 89 24 40
        E 0 89 26 40
        E 1 b0 7b 00
        GUID {06AAFBD0-4CEB-4BBF-9EE2-A82708AACFB7}
        IGNTEMPO 0 120 4 4
        SRCCOLOR 39
        VELLANE 38 100 0
      >
    >
  >
  <TRACK {8AC22FC4-0F69-4876-85B1-DC595C3AE880}
    NAME "Guitare lead"
    PEAKCOL 16576
    BEAT -1
    AUTOMODE 0
    VOLPAN 0.96742288549431 -1 -1 -1 1
    MUTESOLO 0 0 0
    IPHASE 0
    ISBUS 0 0
    BUSCOMP 0 0
    SHOWINMIX 1 0.6667 0.5 1 0.5 0 0 0
    FREEMODE 0
    SEL 1
    REC 0 0 0 0 0 0 0
    VU 2
    TRACKHEIGHT 0 0 0
    INQ 0 0 0 0.5 100 0 0 100
    NCHAN 2
    FX 1
    TRACKID {8AC22FC4-0F69-4876-85B1-DC595C3AE880}
    PERF 0
    MIDIOUT -1
    MAINSEND 1 0
    <ITEM
      POSITION 30.85714285714286
      SNAPOFFS 0
      LENGTH 13.71428571428572
      LOOP 1
      ALLTAKES 0
      FADEIN 1 0.01 0 1 0 0
      FADEOUT 1 0.01 0 1 0 0
      MUTE 0
      SEL 0
      IGUID {AE2138FA-622B-46D3-B072-3B2EE9B4EF68}
      IID 4
      NAME 01-181209_1832.wav
      VOLPAN 1 0 1 -1
      SOFFS 0
      PLAYRATE 1.00000000000028 1 0 -1 0 0.0025
      CHANMODE 0
      GUID {DA765AB4-B1F7-451F-83CF-5D81746A749F}
      RECPASS 4
      <SOURCE WAVE
        FILE "d:\Documents\REAPER Media\01-181209_1832.wav"
      >
    >
    <ITEM
      POSITION 44.57142857142857
      SNAPOFFS 0
      LENGTH 6.85714285714286
      LOOP 0
      ALLTAKES 0
      FADEIN 1 0.01 0 1 0 0
      FADEOUT 1 0.01 0 1 0 0
      MUTE 0
      SEL 0
      IGUID {7B58DA00-4152-4F1C-89A2-FF40114FB229}
      IID 12
      NAME "03-Guitare lead-181214_1935.wav"
      VOLPAN 1 0 1 -1
      SOFFS 0
      PLAYRATE 1 1 0 -1 0 0.0025
      CHANMODE 0
      TAKECOLOR 25918902 R
      GUID {B61DC787-1982-4E16-B524-92D91FC47EC7}
      RECPASS 10
      <SOURCE WAVE
        FILE "TremoloFUSION\03-Guitare lead-181214_1935.wav"
      >
    >
    <ITEM
      POSITION 51.42857142852154
      SNAPOFFS 0
      LENGTH 6.85714285714285
      LOOP 0
      ALLTAKES 0
      FADEIN 1 0.01 0 1 0 0
      FADEOUT 1 0.01 0 1 0 0
      MUTE 0
      SEL 0
      IGUID {80606041-F89A-4F5C-B0C7-67B0F57BA7AD}
      IID 12
      NAME "03-Guitare lead-181214_1935.wav"
      VOLPAN 1 0 1 -1
      SOFFS 0
      PLAYRATE 1 1 0 -1 0 0.0025
      CHANMODE 0
      TAKECOLOR 25918902 R
      GUID {9132C056-842C-41A5-92B3-343418935B31}
      RECPASS 10
      <SOURCE WAVE
        FILE "TremoloFUSION\03-Guitare lead-181214_1935.wav"
      >
    >
    <ITEM
      POSITION 58.28571428568102
      SNAPOFFS 0
      LENGTH 13.71428571428573
      LOOP 1
      ALLTAKES 0
      FADEIN 1 0.01 0 1 0 0
      FADEOUT 1 0.01 0 1 0 0
      MUTE 0
      SEL 0
      IGUID {103C5378-FD2B-47E8-A0AC-610A6D0F529A}
      IID 4
      NAME 01-181209_1832.wav
      VOLPAN 1 0 1 -1
      SOFFS 0
      PLAYRATE 1.00000000000028 1 0 -1 0 0.0025
      CHANMODE 0
      GUID {76F08AA3-F2B6-4D7B-8844-E776C7096F57}
      RECPASS 4
      <SOURCE WAVE
        FILE "d:\Documents\REAPER Media\01-181209_1832.wav"
      >
    >
    <ITEM
      POSITION 72
      SNAPOFFS 0
      LENGTH 13.71428571428571
      LOOP 1
      ALLTAKES 0
      FADEIN 1 0.01 0 1 0 0
      FADEOUT 1 0.01 0 1 0 0
      MUTE 0
      SEL 0
      IGUID {02C94A33-7926-4A25-904E-F1BFA89541BD}
      IID 4
      NAME 01-181209_1832.wav
      VOLPAN 1 0 1 -1
      SOFFS 0
      PLAYRATE 1.00000000000028 1 0 -1 0 0.0025
      CHANMODE 0
      GUID {512F3A3A-6B23-4A6D-B708-63C96003F18C}
      RECPASS 4
      <SOURCE WAVE
        FILE "d:\Documents\REAPER Media\01-181209_1832.wav"
      >
    >
    <ITEM
      POSITION 85.71428571431898
      SNAPOFFS 0
      LENGTH 13.71428571428572
      LOOP 1
      ALLTAKES 0
      FADEIN 1 0.01 0 1 0 0
      FADEOUT 1 0.01 0 1 0 0
      MUTE 0
      SEL 0
      IGUID {BAEB676E-339E-41E9-87B8-7F5B2B4E307C}
      IID 4
      NAME 01-181209_1832.wav
      VOLPAN 1 0 1 -1
      SOFFS 0
      PLAYRATE 1.00000000000028 1 0 -1 0 0.0025
      CHANMODE 0
      GUID {15F09960-94E9-490D-82A2-3CDC8D447BCE}
      RECPASS 4
      <SOURCE WAVE
        FILE "d:\Documents\REAPER Media\01-181209_1832.wav"
      >
    >
    <ITEM
      POSITION 99.42857142857143
      SNAPOFFS 0
      LENGTH 6.85714285714286
      LOOP 0
      ALLTAKES 0
      FADEIN 1 0.01 0 1 0 0
      FADEOUT 1 0.01 0 1 0 0
      MUTE 0
      SEL 0
      IGUID {B7100CE4-5C95-4376-AE63-DF6D39FA13CF}
      IID 89
      NAME "03-Guitare lead-181216_1816.wav"
      VOLPAN 1 0 1 -1
      SOFFS 48
      PLAYRATE 1 1 0 -1 0 0.0025
      CHANMODE 0
      TAKECOLOR 22804460 R
      GUID {75E25F7B-4E83-4475-876A-C4D6903B882C}
      RECPASS 140
      <SOURCE WAVE
        FILE "TremoloFUSION\03-Guitare lead-181216_1816.wav"
      >
    >
    <ITEM
      POSITION 106.28571428568102
      SNAPOFFS 0
      LENGTH 6.85714285714285
      LOOP 0
      ALLTAKES 0
      FADEIN 1 0.01 0 1 0 0
      FADEOUT 1 0.01 0 1 0 0
      MUTE 0
      SEL 0
      IGUID {142B5AD8-6025-43FF-9115-574694E993F9}
      IID 89
      NAME "03-Guitare lead-181216_1816.wav"
      VOLPAN 1 0 1 -1
      SOFFS 48
      PLAYRATE 1 1 0 -1 0 0.0025
      CHANMODE 0
      TAKECOLOR 22804460 R
      GUID {F3BBA3F5-144B-4CBB-A7B0-DD890A1BBB22}
      RECPASS 140
      <SOURCE WAVE
        FILE "TremoloFUSION\03-Guitare lead-181216_1816.wav"
      >
    >
    <ITEM
      POSITION 113.14285714285714
      SNAPOFFS 0
      LENGTH 6.85714285714286
      LOOP 0
      ALLTAKES 0
      FADEIN 1 0.01 0 1 0 0
      FADEOUT 1 0.01 0 1 0 0
      MUTE 0
      SEL 0
      IGUID {C6D37395-FF27-4596-880F-807128490C2E}
      IID 91
      NAME "03-Guitare lead-181216_1820.wav"
      VOLPAN 1 0 1 -1
      SOFFS 75.42857142857143
      PLAYRATE 1 1 0 -1 0 0.0025
      CHANMODE 0
      TAKECOLOR 26867116 R
      GUID {8AFC4E8D-8E88-406E-AA9B-F954813A38AC}
      RECPASS 154
      <SOURCE WAVE
        FILE "TremoloFUSION\03-Guitare lead-181216_1820.wav"
      >
    >
    <ITEM
      POSITION 120
      SNAPOFFS 0
      LENGTH 6.85714285714286
      LOOP 0
      ALLTAKES 0
      FADEIN 1 0.01 0 1 0 0
      FADEOUT 1 0.01 0 1 0 0
      MUTE 0
      SEL 0
      IGUID {506777A8-762E-44B0-8772-E445E3F7029A}
      IID 91
      NAME "03-Guitare lead-181216_1820.wav"
      VOLPAN 1 0 1 -1
      SOFFS 75.42857142857143
      PLAYRATE 1 1 0 -1 0 0.0025
      CHANMODE 0
      TAKECOLOR 26867116 R
      GUID {176E0A21-5EC6-4604-A2C4-9B11935F229A}
      RECPASS 154
      <SOURCE WAVE
        FILE "TremoloFUSION\03-Guitare lead-181216_1820.wav"
      >
    >
    <ITEM
      POSITION 126.85714285715949
      SNAPOFFS 0
      LENGTH 6.85714285714286
      LOOP 0
      ALLTAKES 0
      FADEIN 1 0.01 0 1 0 0
      FADEOUT 1 0.01 0 1 0 0
      MUTE 0
      SEL 0
      IGUID {5054A68D-F5B1-47F8-8D04-A9D3CB83C8D9}
      IID 91
      NAME "03-Guitare lead-181216_1820.wav"
      VOLPAN 1 0 1 -1
      SOFFS 75.42857142857143
      PLAYRATE 1 1 0 -1 0 0.0025
      CHANMODE 0
      TAKECOLOR 26867116 R
      GUID {FB5E66CC-78BF-4C9D-B387-A3C0BDCB7A1C}
      RECPASS 154
      <SOURCE WAVE
        FILE "TremoloFUSION\03-Guitare lead-181216_1820.wav"
      >
    >
    <ITEM
      POSITION 133.71428571431898
      SNAPOFFS 0
      LENGTH 6.85714285714286
      LOOP 0
      ALLTAKES 0
      FADEIN 1 0.01 0 1 0 0
      FADEOUT 1 0.01 0 1 0 0
      MUTE 0
      SEL 0
      IGUID {4F7371BE-FD2C-40EA-8AA2-0EC7E443A87B}
      IID 91
      NAME "03-Guitare lead-181216_1820.wav"
      VOLPAN 1 0 1 -1
      SOFFS 75.42857142857143
      PLAYRATE 1 1 0 -1 0 0.0025
      CHANMODE 0
      TAKECOLOR 26867116 R
      GUID {B7D6030E-CC90-4907-87BC-954D2AF44F9C}
      RECPASS 154
      <SOURCE WAVE
        FILE "TremoloFUSION\03-Guitare lead-181216_1820.wav"
      >
    >
    <ITEM
      POSITION 140.57142857142858
      SNAPOFFS 0
      LENGTH 15.42857142857143
      LOOP 0
      ALLTAKES 0
      FADEIN 1 0.01 0 1 0 0
      FADEOUT 1 0.01 0 1 0 0
      MUTE 0
      SEL 0
      IGUID {46438C87-313B-4ADC-95ED-A5808B0DE03A}
      IID 105
      NAME "03-Guitare lead-181216_1829-01.wav"
      VOLPAN 1 0 1 -1
      SOFFS 0
      PLAYRATE 1 1 0 -1 0 0.0025
      CHANMODE 0
      TAKECOLOR 28567444 R
      GUID {8E8AD808-6F0A-4E42-AE60-34558158B02E}
      RECPASS 179
      <SOURCE WAVE
        FILE "TremoloFUSION\03-Guitare lead-181216_1829-01.wav"
      >
    >
    <ITEM
      POSITION 156
      SNAPOFFS 0
      LENGTH 5.1330612244898
      LOOP 0
      ALLTAKES 0
      FADEIN 1 0.01 0 1 0 0
      FADEOUT 1 0.01 0 1 0 0
      MUTE 0
      SEL 0
      IGUID {23398EFD-CA1C-4D7D-A491-254062A49E53}
      IID 108
      NAME "03-Guitare lead-181216_1833-01.wav"
      VOLPAN 1 0 1 -1
      SOFFS 89.14285714285714
      PLAYRATE 1 1 0 -1 0 0.0025
      CHANMODE 0
      TAKECOLOR 25463880 R
      GUID {01DF9334-573B-4797-9F2E-884257F6C7FD}
      RECPASS 201
      <SOURCE WAVE
        FILE "TremoloFUSION\03-Guitare lead-181216_1833-01.wav"
      >
    >
    <ITEM
      POSITION 161.13306122448981
      SNAPOFFS 0
      LENGTH 1.72408163265305
      LOOP 0
      ALLTAKES 0
      FADEIN 1 0.01 0 1 0 0
      FADEOUT 1 0.01 0 1 0 0
      MUTE 0
      SEL 0
      IGUID {1BC32401-6032-417D-8A75-3BC1BBCACB1F}
      IID 109
      NAME "03-Guitare lead-181216_1833-01.wav"
      VOLPAN 1 0 1 -1
      SOFFS 94.27591836734695
      PLAYRATE 1 1 0 -1 0 0.0025
      CHANMODE 0
      TAKECOLOR 25463880 R
      GUID {651B3C3B-2662-4756-A45A-1DDBAE274395}
      RECPASS 201
      <SOURCE WAVE
        FILE "TremoloFUSION\03-Guitare lead-181216_1833-01.wav"
      >
    >
    <ITEM
      POSITION 162.85714285715949
      SNAPOFFS 0
      LENGTH 5.13306122448981
      LOOP 0
      ALLTAKES 0
      FADEIN 1 0.01 0 1 0 0
      FADEOUT 1 0.01 0 1 0 0
      MUTE 0
      SEL 0
      IGUID {2719BA99-6DCB-46F8-9C6C-32640C508E6E}
      IID 108
      NAME "03-Guitare lead-181216_1833-01.wav"
      VOLPAN 1 0 1 -1
      SOFFS 89.14285714285714
      PLAYRATE 1 1 0 -1 0 0.0025
      CHANMODE 0
      TAKECOLOR 25463880 R
      GUID {4BEA802F-01F7-4DED-A2B6-E187A647CFE0}
      RECPASS 201
      <SOURCE WAVE
        FILE "TremoloFUSION\03-Guitare lead-181216_1833-01.wav"
      >
    >
    <ITEM
      POSITION 167.99020408163778
      SNAPOFFS 0
      LENGTH 1.72408163265305
      LOOP 0
      ALLTAKES 0
      FADEIN 1 0.01 0 1 0 0
      FADEOUT 1 0.01 0 1 0 0
      MUTE 0
      SEL 0
      IGUID {036168ED-2AD2-4424-822E-71F1556D9C79}
      IID 109
      NAME "03-Guitare lead-181216_1833-01.wav"
      VOLPAN 1 0 1 -1
      SOFFS 94.27591836734695
      PLAYRATE 1 1 0 -1 0 0.0025
      CHANMODE 0
      TAKECOLOR 25463880 R
      GUID {2DCF2284-4069-4495-9294-EBD51849E9C4}
      RECPASS 201
      <SOURCE WAVE
        FILE "TremoloFUSION\03-Guitare lead-181216_1833-01.wav"
      >
    >
    <ITEM
      POSITION 169.71428571431898
      SNAPOFFS 0
      LENGTH 5.13306122448981
      LOOP 0
      ALLTAKES 0
      FADEIN 1 0.01 0 1 0 0
      FADEOUT 1 0.01 0 1 0 0
      MUTE 0
      SEL 0
      IGUID {7F5BE4EB-061F-40CF-BF95-1C3A5054E92A}
      IID 108
      NAME "03-Guitare lead-181216_1833-01.wav"
      VOLPAN 1 0 1 -1
      SOFFS 89.14285714285714
      PLAYRATE 1 1 0 -1 0 0.0025
      CHANMODE 0
      TAKECOLOR 25463880 R
      GUID {14351012-09E3-422E-9A59-57FC9941F066}
      RECPASS 201
      <SOURCE WAVE
        FILE "TremoloFUSION\03-Guitare lead-181216_1833-01.wav"
      >
    >
    <ITEM
      POSITION 174.84734693879727
      SNAPOFFS 0
      LENGTH 1.72408163265305
      LOOP 0
      ALLTAKES 0
      FADEIN 1 0.01 0 1 0 0
      FADEOUT 1 0.01 0 1 0 0
      MUTE 0
      SEL 0
      IGUID {FAF89EAE-258C-4701-9BCA-745E661E1E47}
      IID 109
      NAME "03-Guitare lead-181216_1833-01.wav"
      VOLPAN 1 0 1 -1
      SOFFS 94.27591836734695
      PLAYRATE 1 1 0 -1 0 0.0025
      CHANMODE 0
      TAKECOLOR 25463880 R
      GUID {85E8BDAB-CDA3-41F3-960E-48877E211C6D}
      RECPASS 201
      <SOURCE WAVE
        FILE "TremoloFUSION\03-Guitare lead-181216_1833-01.wav"
      >
    >
    <ITEM
      POSITION 176.57142857147846
      SNAPOFFS 0
      LENGTH 5.13306122448981
      LOOP 0
      ALLTAKES 0
      FADEIN 1 0.01 0 1 0 0
      FADEOUT 1 0 0 1 0 0
      MUTE 0
      SEL 0
      IGUID {EB2A8ABB-99D0-4DC3-886D-E36C96D44F76}
      IID 108
      NAME "03-Guitare lead-181216_1833-01.wav"
      VOLPAN 1 0 1 -1
      SOFFS 89.14285714285714
      PLAYRATE 1 1 0 -1 0 0.0025
      CHANMODE 0
      TAKECOLOR 25463880 R
      GUID {374C7530-4D96-41D6-963D-A9E23F8C02C1}
      RECPASS 201
      <SOURCE WAVE
        FILE "TremoloFUSION\03-Guitare lead-181216_1833-01.wav"
      >
    >
    <ITEM
      POSITION 181.70448979595676
      SNAPOFFS 0
      LENGTH 1.72408163265303
      LOOP 0
      ALLTAKES 0
      FADEIN 1 0 0 1 0 0
      FADEOUT 1 0 0 1 0 0
      MUTE 0
      SEL 0
      IGUID {3C2C6DB4-4FBC-4DF0-8367-33175374FCE9}
      IID 109
      NAME "03-Guitare lead-181216_1833-01.wav"
      VOLPAN 1 0 1 -1
      SOFFS 94.27591836734695
      PLAYRATE 1 1 0 -1 0 0.0025
      CHANMODE 0
      TAKECOLOR 25463880 R
      GUID {18EE36AE-CD9A-480B-B0BA-A4F980F9AEE6}
      RECPASS 201
      <SOURCE WAVE
        FILE "TremoloFUSION\03-Guitare lead-181216_1833-01.wav"
      >
    >
    <ITEM
      POSITION 183.42857142852154
      SNAPOFFS 0
      LENGTH 5.14285714290705
      LOOP 0
      ALLTAKES 0
      FADEIN 1 0 0 1 0 0
      FADEOUT 1 0 0 1 0 0
      MUTE 0
      SEL 0
      IGUID {743CC8BC-13DF-4290-9FDA-0D20B1205CAD}
      IID 108
      NAME "03-Guitare lead-181216_1833-01.wav"
      VOLPAN 1 0 1 -1
      SOFFS 89.14285714285714
      PLAYRATE 1 1 0 -1 0 0.0025
      CHANMODE 0
      TAKECOLOR 25463880 R
      GUID {48A10113-D4ED-44A4-BE80-C0539EEE2669}
      RECPASS 201
      <SOURCE WAVE
        FILE "TremoloFUSION\03-Guitare lead-181216_1833-01.wav"
      >
    >
    <ITEM
      POSITION 188.57142857142858
      SNAPOFFS 0
      LENGTH 1.71428571434069
      LOOP 0
      ALLTAKES 0
      FADEIN 1 0 0 1 0 0
      FADEOUT 1 0.01 0 1 0 0
      MUTE 0
      SEL 0
      IGUID {0B841EBA-131C-4CA4-B052-AEAF0D2CECDF}
      IID 109
      NAME "03-Guitare lead-181216_1833-01.wav"
      VOLPAN 1 0 1 -1
      SOFFS 94.28571428565928
      PLAYRATE 1 1 0 -1 0 0.0025
      CHANMODE 0
      TAKECOLOR 25463880 R
      GUID {86C95F4A-B539-468F-A61B-41E3A06F217E}
      RECPASS 201
      <SOURCE WAVE
        FILE "TremoloFUSION\03-Guitare lead-181216_1833-01.wav"
      >
    >
    <ITEM
      POSITION 190.28571428571428
      SNAPOFFS 0
      LENGTH 1.32498866213152
      LOOP 1
      ALLTAKES 0
      FADEIN 1 0.01 0 1 0 0
      FADEOUT 1 0 0 1 0 0
      MUTE 0
      SEL 0
      IGUID {A9388A16-F3E8-4A37-B799-5CB26A8DB74C}
      IID 125
      NAME "03-Guitare lead-181216_1845-01.wav"
      VOLPAN 1 0 1 -1
      SOFFS 102.85714285714286
      PLAYRATE 1 1 0 -1 0 0.0025
      CHANMODE 0
      TAKECOLOR 26659356 R
      GUID {156EDC47-E53E-4A29-9249-003BC450E6FD}
      RECPASS 220
      <SOURCE WAVE
        FILE "TremoloFUSION\03-Guitare lead-181216_1845-01.wav"
      >
    >
    <ITEM
      POSITION 191.61070294784579
      SNAPOFFS 0
      LENGTH 5.53215419501134
      LOOP 0
      ALLTAKES 0
      FADEIN 1 0 0 1 0 0
      FADEOUT 1 0.01 0 1 0 0
      MUTE 0
      SEL 0
      IGUID {A8B88DAC-EF83-4BA7-9FEC-0C9BD33A9224}
      IID 126
      NAME "03-Guitare lead-181216_1845-01.wav"
      VOLPAN 1 0 1 -1
      SOFFS 104.18213151927438
      PLAYRATE 1 1 0 -1 0 0.0025
      CHANMODE 0
      TAKECOLOR 26659356 R
      GUID {9FF6218E-6DDD-49A5-BF0B-ECAF1DAADEC4}
      RECPASS 220
      <SOURCE WAVE
        FILE "TremoloFUSION\03-Guitare lead-181216_1845-01.wav"
      >
    >
    <ITEM
      POSITION 197.14285714284051
      SNAPOFFS 0
      LENGTH 1.32498866213152
      LOOP 1
      ALLTAKES 0
      FADEIN 1 0.01 0 1 0 0
      FADEOUT 1 0 0 1 0 0
      MUTE 0
      SEL 1
      IGUID {1842282E-4D1A-43E8-96BF-A98369C40805}
      IID 125
      NAME "03-Guitare lead-181216_1845-01.wav"
      VOLPAN 1 0 1 -1
      SOFFS 102.85714285714286
      PLAYRATE 1 1 0 -1 0 0.0025
      CHANMODE 0
      TAKECOLOR 26659356 R
      GUID {AB6F1A78-6068-4003-A5B5-1AA64B6D6E92}
      RECPASS 220
      <SOURCE WAVE
        FILE "TremoloFUSION\03-Guitare lead-181216_1845-01.wav"
      >
    >
    <ITEM
      POSITION 198.46784580498934
      SNAPOFFS 0
      LENGTH 5.53215419501134
      LOOP 0
      ALLTAKES 0
      FADEIN 1 0 0 1 0 0
      FADEOUT 1 0.01 0 1 0 0
      MUTE 0
      SEL 1
      IGUID {E6A76B69-BB4B-43F0-A234-AC7F408E0267}
      IID 126
      NAME "03-Guitare lead-181216_1845-01.wav"
      VOLPAN 1 0 1 -1
      SOFFS 104.18213151927438
      PLAYRATE 1 1 0 -1 0 0.0025
      CHANMODE 0
      TAKECOLOR 26659356 R
      GUID {CE1FF272-1A16-409B-BF21-8DE5FC19CA2F}
      RECPASS 220
      <SOURCE WAVE
        FILE "TremoloFUSION\03-Guitare lead-181216_1845-01.wav"
      >
    >
  >
  <TRACK {EDBC682D-7A90-4CF8-B7B9-13DF3833720C}
    NAME "Guitare rythmique"
    PEAKCOL 16576
    BEAT -1
    AUTOMODE 0
    VOLPAN 1.30343281883499 1 -1 -1 1
    MUTESOLO 0 0 0
    IPHASE 0
    ISBUS 0 0
    BUSCOMP 0 0
    SHOWINMIX 1 0.6667 0.5 1 0.5 0 0 0
    FREEMODE 0
    SEL 0
    REC 0 0 0 0 0 0 0
    VU 2
    TRACKHEIGHT 0 0 0
    INQ 0 0 0 0.5 100 0 0 100
    NCHAN 2
    FX 1
    TRACKID {EDBC682D-7A90-4CF8-B7B9-13DF3833720C}
    PERF 0
    MIDIOUT -1
    MAINSEND 1 0
    <ITEM
      POSITION 30.85714285714286
      SNAPOFFS 0
      LENGTH 13.71428571428572
      LOOP 1
      ALLTAKES 0
      FADEIN 1 0.01 0 1 0 0
      FADEOUT 1 0.01 0 1 0 0
      MUTE 0
      SEL 0
      IGUID {15653CDB-3588-43B8-9466-A1FC0DD7DAF1}
      IID 6
      NAME 02-181209_1839.wav
      VOLPAN 1 0 1 -1
      SOFFS 0
      PLAYRATE 1.00000000000028 1 0 -1 0 0.0025
      CHANMODE 0
      GUID {FD30423F-6A32-4F8F-8DEE-D5C886365445}
      RECPASS 6
      <SOURCE WAVE
        FILE "d:\Documents\REAPER Media\02-181209_1839.wav"
      >
    >
    <ITEM
      POSITION 44.57142857142857
      SNAPOFFS 0
      LENGTH 0.03070507739272
      LOOP 1
      ALLTAKES 0
      FADEIN 1 0.01 0 1 0 0
      FADEOUT 1 0.01 0 1 0 0
      MUTE 0
      SEL 0
      IGUID {E19C28AC-11F6-4DA4-91D5-06DD2C8D620C}
      IID 16
      NAME "04-Guitare rythmique-181214_1940.wav"
      VOLPAN 1 0 1 -1
      SOFFS 0
      PLAYRATE 1 1 0 -1 0 0.0025
      CHANMODE 0
      TAKECOLOR 33527141 R
      GUID {0FBAA5B4-F6A7-4FD3-93FF-9FEBA9BE3A6B}
      RECPASS 12
      <SOURCE WAVE
        FILE "TremoloFUSION\04-Guitare rythmique-181214_1940.wav"
      >
    >
    <ITEM
      POSITION 44.60213364882129
      SNAPOFFS 0
      LENGTH 6.82643777975014
      LOOP 0
      ALLTAKES 0
      FADEIN 1 0.01 0 1 0 0
      FADEOUT 1 0.01 0 1 0 0
      MUTE 0
      SEL 0
      IGUID {B9D6611D-A033-4915-965F-3642CA04D8E2}
      IID 17
      NAME "04-Guitare rythmique-181214_1940.wav"
      VOLPAN 1 0 1 -1
      SOFFS 20.50997732426304
      PLAYRATE 1 1 0 -1 0 0.0025
      CHANMODE 0
      TAKECOLOR 28704886 R
      GUID {8C72808B-7B7A-4128-85BC-9B62D16F6CB6}
      RECPASS 15
      <SOURCE WAVE
        FILE "TremoloFUSION\04-Guitare rythmique-181214_1940.wav"
      >
    >
    <ITEM
      POSITION 51.42857142852154
      SNAPOFFS 0
      LENGTH 6.85714285719275
      LOOP 0
      ALLTAKES 0
      FADEIN 1 0.01 0 1 0 0
      FADEOUT 1 0.01 0 1 0 0
      MUTE 0
      SEL 0
      IGUID {6F74B65F-40B3-4102-9546-E67E4C9B31B9}
      IID 17
      NAME "04-Guitare rythmique-181214_1940.wav"
      VOLPAN 1 0 1 -1
      SOFFS 20.50997732426304
      PLAYRATE 1 1 0 -1 0 0.0025
      CHANMODE 0
      TAKECOLOR 28704886 R
      GUID {93F5D42D-794B-4174-9E6B-6943561FC763}
      RECPASS 15
      <SOURCE WAVE
        FILE "TremoloFUSION\04-Guitare rythmique-181214_1940.wav"
      >
    >
    <ITEM
      POSITION 58.28571428571428
      SNAPOFFS 0
      LENGTH 13.71428571428572
      LOOP 0
      ALLTAKES 0
      FADEIN 1 0.01 0 1 0 0
      FADEOUT 1 0.01 0 1 0 0
      MUTE 0
      SEL 0
      IGUID {46400BD2-4391-4D99-959B-9EFAEB1B0A05}
      IID 21
      NAME "04-Guitare rythmique-181214_1944-01.wav"
      VOLPAN 1 0 1 -1
      SOFFS 0
      PLAYRATE 1 1 0 -1 0 0.0025
      CHANMODE 0
      TAKECOLOR 26057686 R
      GUID {A30C4029-C4D0-4094-B6D2-F2405B362E98}
      RECPASS 19
      <SOURCE WAVE
        FILE "TremoloFUSION\04-Guitare rythmique-181214_1944-01.wav"
      >
    >
    <ITEM
      POSITION 72
      SNAPOFFS 0
      LENGTH 13.71428571428571
      LOOP 0
      ALLTAKES 0
      FADEIN 1 0.01 0 1 0 0
      FADEOUT 1 0.01 0 1 0 0
      MUTE 0
      SEL 0
      IGUID {8470FB76-D598-48B5-8AB8-4B45998DBE95}
      IID 28
      NAME "04-Guitare rythmique-181214_1953-01.wav"
      VOLPAN 1 0 1 -1
      SOFFS 0
      PLAYRATE 1 1 0 -1 0 0.0025
      CHANMODE 0
      TAKECOLOR 24890097 R
      GUID {A3FE02AC-33CE-44BD-ADC8-F93E5A433CBD}
      RECPASS 28
      <SOURCE WAVE
        FILE "TremoloFUSION\04-Guitare rythmique-181214_1953-01.wav"
      >
    >
    <ITEM
      POSITION 85.71428571431898
      SNAPOFFS 0
      LENGTH 13.71428571428572
      LOOP 0
      ALLTAKES 0
      FADEIN 1 0.01 0 1 0 0
      FADEOUT 1 0.01 0 1 0 0
      MUTE 0
      SEL 0
      IGUID {399A1838-CD29-4820-A8D3-2E6B3DCE8FAA}
      IID 28
      NAME "04-Guitare rythmique-181214_1953-01.wav"
      VOLPAN 1 0 1 -1
      SOFFS 0
      PLAYRATE 1 1 0 -1 0 0.0025
      CHANMODE 0
      TAKECOLOR 24890097 R
      GUID {18C6BC7F-9B6E-44AC-B064-B3A3639E2FA4}
      RECPASS 28
      <SOURCE WAVE
        FILE "TremoloFUSION\04-Guitare rythmique-181214_1953-01.wav"
      >
    >
    <ITEM
      POSITION 99.42857142857143
      SNAPOFFS 0
      LENGTH 6.85714285714286
      LOOP 0
      ALLTAKES 0
      FADEIN 1 0.01 0 1 0 0
      FADEOUT 1 0.01 0 1 0 0
      MUTE 0
      SEL 0
      IGUID {38516349-3319-4CA0-AD20-612F286C975E}
      IID 87
      NAME "04-Guitare rythmique-181216_1812.wav"
      VOLPAN 1 0 1 -1
      SOFFS 34.28571428571428
      PLAYRATE 1 1 0 -1 0 0.0025
      CHANMODE 0
      TAKECOLOR 28030047 R
      GUID {68699F00-66DF-4C96-8B81-FCFBD1434E26}
      RECPASS 130
      <SOURCE WAVE
        FILE "TremoloFUSION\04-Guitare rythmique-181216_1812.wav"
      >
    >
    <ITEM
      POSITION 106.28571428568102
      SNAPOFFS 0
      LENGTH 6.85714285714285
      LOOP 0
      ALLTAKES 0
      FADEIN 1 0.01 0 1 0 0
      FADEOUT 1 0.01 0 1 0 0
      MUTE 0
      SEL 0
      IGUID {85953354-22CE-49E3-9FF3-06E059B07E54}
      IID 87
      NAME "04-Guitare rythmique-181216_1812.wav"
      VOLPAN 1 0 1 -1
      SOFFS 34.28571428571428
      PLAYRATE 1 1 0 -1 0 0.0025
      CHANMODE 0
      TAKECOLOR 28030047 R
      GUID {208247A5-598D-4856-A0B5-F9F9DC3820F5}
      RECPASS 130
      <SOURCE WAVE
        FILE "TremoloFUSION\04-Guitare rythmique-181216_1812.wav"
      >
    >
    <ITEM
      POSITION 113.14285714285714
      SNAPOFFS 0
      LENGTH 6.85714285714286
      LOOP 0
      ALLTAKES 0
      FADEIN 1 0.01 0 1 0 0
      FADEOUT 1 0.01 0 1 0 0
      MUTE 0
      SEL 0
      IGUID {69425C5A-92C7-4E4A-85BF-0ECF83D257FC}
      IID 92
      NAME "04-Guitare rythmique-181216_1823.wav"
      VOLPAN 1 0 1 -1
      SOFFS 13.71428571428571
      PLAYRATE 1 1 0 -1 0 0.0025
      CHANMODE 0
      TAKECOLOR 20414089 R
      GUID {FE5AC5F1-43D7-480C-B376-CBBDA73B54AB}
      RECPASS 160
      <SOURCE WAVE
        FILE "TremoloFUSION\04-Guitare rythmique-181216_1823.wav"
      >
    >
    <ITEM
      POSITION 120
      SNAPOFFS 0
      LENGTH 6.85714285714286
      LOOP 0
      ALLTAKES 0
      FADEIN 1 0.01 0 1 0 0
      FADEOUT 1 0.01 0 1 0 0
      MUTE 0
      SEL 0
      IGUID {3232E75A-24EB-44FA-AC79-40F083B73CED}
      IID 92
      NAME "04-Guitare rythmique-181216_1823.wav"
      VOLPAN 1 0 1 -1
      SOFFS 13.71428571428571
      PLAYRATE 1 1 0 -1 0 0.0025
      CHANMODE 0
      TAKECOLOR 20414089 R
      GUID {A1CE3978-881D-4524-84F9-4904068754C3}
      RECPASS 160
      <SOURCE WAVE
        FILE "TremoloFUSION\04-Guitare rythmique-181216_1823.wav"
      >
    >
    <ITEM
      POSITION 126.85714285715949
      SNAPOFFS 0
      LENGTH 6.85714285714286
      LOOP 0
      ALLTAKES 0
      FADEIN 1 0.01 0 1 0 0
      FADEOUT 1 0.01 0 1 0 0
      MUTE 0
      SEL 0
      IGUID {B8B6B077-8CB3-4E60-A050-6B4660408107}
      IID 92
      NAME "04-Guitare rythmique-181216_1823.wav"
      VOLPAN 1 0 1 -1
      SOFFS 13.71428571428571
      PLAYRATE 1 1 0 -1 0 0.0025
      CHANMODE 0
      TAKECOLOR 20414089 R
      GUID {0359E01A-379D-420D-A2C4-EA6A4990B452}
      RECPASS 160
      <SOURCE WAVE
        FILE "TremoloFUSION\04-Guitare rythmique-181216_1823.wav"
      >
    >
    <ITEM
      POSITION 133.71428571431898
      SNAPOFFS 0
      LENGTH 6.85714285714286
      LOOP 0
      ALLTAKES 0
      FADEIN 1 0.01 0 1 0 0
      FADEOUT 1 0.01 0 1 0 0
      MUTE 0
      SEL 0
      IGUID {E8AF14D3-80ED-45C0-869B-75821C9B2A9C}
      IID 92
      NAME "04-Guitare rythmique-181216_1823.wav"
      VOLPAN 1 0 1 -1
      SOFFS 13.71428571428571
      PLAYRATE 1 1 0 -1 0 0.0025
      CHANMODE 0
      TAKECOLOR 20414089 R
      GUID {030378BF-5EBD-42CB-80B7-1403FAFF6D6E}
      RECPASS 160
      <SOURCE WAVE
        FILE "TremoloFUSION\04-Guitare rythmique-181216_1823.wav"
      >
    >
    <ITEM
      POSITION 140.57142857142858
      SNAPOFFS 0
      LENGTH 6.85714285714283
      LOOP 0
      ALLTAKES 0
      FADEIN 1 0.01 0 1 0 0
      FADEOUT 1 0.01 0 1 0 0
      MUTE 0
      SEL 0
      IGUID {E7DDCBA5-5200-435F-A023-D1079F2A27E5}
      IID 101
      NAME "04-Guitare rythmique-181216_1825.wav"
      VOLPAN 1 0 1 -1
      SOFFS 20.57160997732426
      PLAYRATE 1 1 0 -1 0 0.0025
      CHANMODE 0
      TAKECOLOR 28895890 R
      GUID {7F8336A4-A30B-4C2C-9634-A946DE44158B}
      RECPASS 165
      <SOURCE WAVE
        FILE "TremoloFUSION\04-Guitare rythmique-181216_1825.wav"
      >
    >
    <ITEM
      POSITION 147.42857142852154
      SNAPOFFS 0
      LENGTH 6.85714285714286
      LOOP 0
      ALLTAKES 0
      FADEIN 1 0.01 0 1 0 0
      FADEOUT 1 0.01 0 1 0 0
      MUTE 0
      SEL 0
      IGUID {FB259FC5-1412-4B97-90F4-CE0DB32C2DE1}
      IID 101
      NAME "04-Guitare rythmique-181216_1825.wav"
      VOLPAN 1 0 1 -1
      SOFFS 20.57160997732426
      PLAYRATE 1 1 0 -1 0 0.0025
      CHANMODE 0
      TAKECOLOR 28895890 R
      GUID {00283908-D4D5-41B9-A625-F1B521F73C89}
      RECPASS 165
      <SOURCE WAVE
        FILE "TremoloFUSION\04-Guitare rythmique-181216_1825.wav"
      >
    >
    <ITEM
      POSITION 154.28571428571428
      SNAPOFFS 0
      LENGTH 1.71428571428571
      LOOP 0
      ALLTAKES 0
      FADEIN 1 0.01 0 1 0 0
      FADEOUT 1 0.01 0 1 0 0
      MUTE 0
      SEL 0
      IGUID {FF4E9EA8-9568-4F5C-B08C-7DBEFDFF3400}
      IID 103
      NAME "04-Guitare rythmique-181216_1828.wav"
      VOLPAN 1 0 1 -1
      SOFFS 6.85714285714286
      PLAYRATE 1 1 0 -1 0 0.0025
      CHANMODE 0
      TAKECOLOR 25954757 R
      GUID {64F84E0F-A873-475C-A399-313E8A1A352A}
      RECPASS 172
      <SOURCE WAVE
        FILE "TremoloFUSION\04-Guitare rythmique-181216_1828.wav"
      >
    >
    <ITEM
      POSITION 156
      SNAPOFFS 0
      LENGTH 6.85714285714286
      LOOP 0
      ALLTAKES 0
      FADEIN 1 0.01 0 1 0 0
      FADEOUT 1 0.01 0 1 0 0
      MUTE 0
      SEL 0
      IGUID {32097F07-BD79-4853-B3AE-5DADB0D3B45C}
      IID 107
      NAME "04-Guitare rythmique-181216_1832.wav"
      VOLPAN 1 0 1 -1
      SOFFS 6.85714285714286
      PLAYRATE 1 1 0 -1 0 0.0025
      CHANMODE 0
      TAKECOLOR 28255052 R
      GUID {DE250AEB-7DAB-4609-8B0D-8A99C96148AF}
      RECPASS 185
      <SOURCE WAVE
        FILE "TremoloFUSION\04-Guitare rythmique-181216_1832.wav"
      >
    >
    <ITEM
      POSITION 162.85714285715949
      SNAPOFFS 0
      LENGTH 6.85714285714286
      LOOP 0
      ALLTAKES 0
      FADEIN 1 0.01 0 1 0 0
      FADEOUT 1 0.01 0 1 0 0
      MUTE 0
      SEL 0
      IGUID {BA8AA956-34E9-4E21-83A6-9ED258C01247}
      IID 107
      NAME "04-Guitare rythmique-181216_1832.wav"
      VOLPAN 1 0 1 -1
      SOFFS 6.85714285714286
      PLAYRATE 1 1 0 -1 0 0.0025
      CHANMODE 0
      TAKECOLOR 28255052 R
      GUID {2B0C8389-7422-4D51-B717-B7371912A94D}
      RECPASS 185
      <SOURCE WAVE
        FILE "TremoloFUSION\04-Guitare rythmique-181216_1832.wav"
      >
    >
    <ITEM
      POSITION 169.71428571431898
      SNAPOFFS 0
      LENGTH 6.85714285714286
      LOOP 0
      ALLTAKES 0
      FADEIN 1 0.01 0 1 0 0
      FADEOUT 1 0.01 0 1 0 0
      MUTE 0
      SEL 0
      IGUID {20980127-7C20-4B0C-A74C-D102F5B5CBB1}
      IID 107
      NAME "04-Guitare rythmique-181216_1832.wav"
      VOLPAN 1 0 1 -1
      SOFFS 6.85714285714286
      PLAYRATE 1 1 0 -1 0 0.0025
      CHANMODE 0
      TAKECOLOR 28255052 R
      GUID {E477945D-9CB5-4EA8-8C07-24B3616FBC8C}
      RECPASS 185
      <SOURCE WAVE
        FILE "TremoloFUSION\04-Guitare rythmique-181216_1832.wav"
      >
    >
    <ITEM
      POSITION 176.57142857147846
      SNAPOFFS 0
      LENGTH 6.85714285714283
      LOOP 0
      ALLTAKES 0
      FADEIN 1 0.01 0 1 0 0
      FADEOUT 1 0 0 1 0 0
      MUTE 0
      SEL 0
      IGUID {FC76023E-C7A7-4502-B502-0D291C40B2FA}
      IID 107
      NAME "04-Guitare rythmique-181216_1832.wav"
      VOLPAN 1 0 1 -1
      SOFFS 6.85714285714286
      PLAYRATE 1 1 0 -1 0 0.0025
      CHANMODE 0
      TAKECOLOR 28255052 R
      GUID {7EB71123-7120-4D08-B6CE-39F5808EDE99}
      RECPASS 185
      <SOURCE WAVE
        FILE "TremoloFUSION\04-Guitare rythmique-181216_1832.wav"
      >
    >
    <ITEM
      POSITION 183.42857142852154
      SNAPOFFS 0
      LENGTH 6.85714285714286
      LOOP 0
      ALLTAKES 0
      FADEIN 1 0 0 1 0 0
      FADEOUT 1 0.01 0 1 0 0
      MUTE 0
      SEL 0
      IGUID {AB44684F-ACF5-437F-93FD-FA9DE272ED72}
      IID 107
      NAME "04-Guitare rythmique-181216_1832.wav"
      VOLPAN 1 0 1 -1
      SOFFS 6.85714285714286
      PLAYRATE 1 1 0 -1 0 0.0025
      CHANMODE 0
      TAKECOLOR 28255052 R
      GUID {5B07AB3F-476F-4AD5-B642-1B1C52F5E143}
      RECPASS 185
      <SOURCE WAVE
        FILE "TremoloFUSION\04-Guitare rythmique-181216_1832.wav"
      >
    >
    <ITEM
      POSITION 190.28571428571428
      SNAPOFFS 0
      LENGTH 6.85714285714286
      LOOP 0
      ALLTAKES 0
      FADEIN 1 0.01 0 1 0 0
      FADEOUT 1 0.01 0 1 0 0
      MUTE 0
      SEL 0
      IGUID {A7C928E5-DF05-48F4-9968-A1EBF8963C94}
      IID 127
      NAME "04-Guitare rythmique-181216_1848.wav"
      VOLPAN 1 0 1 -1
      SOFFS 27.42857142857143
      PLAYRATE 1 1 0 -1 0 0.0025
      CHANMODE 0
      TAKECOLOR 33519746 R
      GUID {332A57FA-8A0F-47FC-ADEC-B072C149158D}
      RECPASS 226
      <SOURCE WAVE
        FILE "TremoloFUSION\04-Guitare rythmique-181216_1848.wav"
      >
    >
    <ITEM
      POSITION 197.14285714284051
      SNAPOFFS 0
      LENGTH 6.85714285714286
      LOOP 0
      ALLTAKES 0
      FADEIN 1 0.01 0 1 0 0
      FADEOUT 1 0.01 0 1 0 0
      MUTE 0
      SEL 1
      IGUID {48B5E5D2-8354-4A72-813F-9D223E057260}
      IID 127
      NAME "04-Guitare rythmique-181216_1848.wav"
      VOLPAN 1 0 1 -1
      SOFFS 27.42857142857143
      PLAYRATE 1 1 0 -1 0 0.0025
      CHANMODE 0
      TAKECOLOR 33519746 R
      GUID {17FEE6EB-2318-492F-A3A6-D3CBE7395C0F}
      RECPASS 226
      <SOURCE WAVE
        FILE "TremoloFUSION\04-Guitare rythmique-181216_1848.wav"
      >
    >
  >
>
