<REAPER_PROJECT 0.1 "4.57" 1544300496
  RIPPLE 0
  GROUPOVERRIDE 0 0 0
  AUTOXFADE 1
  ENVATTACH 1
  MIXERUIFLAGS 11 48
  PEAKGAIN 1.00000000000000
  FEEDBACK 0
  PANLAW 1.00000000000000
  PROJOFFS 0.00000000000000 0
  MAXPROJLEN 0 600.00000000000000
  GRID 3199 8 1.00000000000000 8 1.00000000000000 0 0
  TIMEMODE 1 0 -1
  PANMODE 3
  CURSOR 241.71428571428572
  ZOOM 24.97986422453261 5796 0
  VZOOMEX 14
  USE_REC_CFG 0
  RECMODE 1
  SMPTESYNC 0 23.976024 100 40 1000 300 0 0.000000 1
  LOOP 1
  LOOPGRAN 0 4.00000000000000
  RECORD_PATH "" ""
  <RECORD_CFG
  >
  <APPLYFX_CFG
  >
  RENDER_FILE "C:\Users\Baptiste\Desktop\GuitarPro\guitarpro\Tremolo_recording_1.wav"
  RENDER_FMT 0 2 44100
  RENDER_1X 0
  RENDER_RANGE 1 0.00000000000000 0.00000000000000
  RENDER_RESAMPLE 3 0 1
  RENDER_ADDTOPROJ 0
  RENDER_STEMS 0
  RENDER_DITHER 0
  TIMELOCKMODE 1
  TEMPOENVLOCKMODE 1
  ITEMMIX 0
  DEFPITCHMODE 393216
  TAKELANE 1
  SAMPLERATE 44100 0 0
  <RENDER_CFG
    ZXZhdxgA
  >
  LOCK 1
  <METRONOME 30 2.000000
    VOL 0.172128 0.086064
    FREQ 800 1600 1
    BEATLEN 4
    SAMPLES "" ""
  >
  GLOBAL_AUTO -1
  TEMPO 140.00000000000000 4 4
  PLAYRATE 1.00000000000000 0 0.25000 4.00000
  SELECTION 79.28571428571429 106.71428571428571
  SELECTION2 79.28571428571429 106.71428571428571
  MASTERAUTOMODE 0
  MASTERTRACKHEIGHT 0
  MASTERPEAKCOL 16576
  MASTERMUTESOLO 0
  MASTERTRACKVIEW 0 0.666700 0.500000 0.500000 -1 -1 -1
  MASTERHWOUT 0 0 1.00000000000000 0.00000000000000 0 0 0 -1.00000000000000
  MASTERHWOUT 1024 0 1.00000000000000 0.00000000000000 0 0 0 -1.00000000000000
  MASTER_NCH 2 2
  MASTER_VOLUME 0.40843584423892 0.00000000000000 -1.00000000000000 -1.00000000000000 1.00000000000000
  MASTER_FX 1
  MASTER_SEL 0
  <MASTERFXLIST
    SHOW 0
    LASTSEL 0
    DOCKED 0
  >
  <MASTERPLAYSPEEDENV
    ACT 0
    VIS 0 1 1.000000
    LANEHEIGHT 0 0
    ARM 0
    DEFSHAPE 0 -1 -1
  >
  <TEMPOENVEX
    ACT 0
    VIS 1 0 1.000000
    LANEHEIGHT 0 0
    ARM 0
    DEFSHAPE 1 -1 -1
  >
  <PROJBAY
  >
  <TRACK '{B15D9207-3EE8-4AE3-8869-1B46AAFE2860}'
    NAME ""
    PEAKCOL 16576
    BEAT -1
    AUTOMODE 0
    VOLPAN 0.43161018370141 0.00000000000000 -1.00000000000000 -1.00000000000000 1.00000000000000
    MUTESOLO 0 0 0
    IPHASE 0
    ISBUS 0 0
    BUSCOMP 0 0
    SHOWINMIX 1 0.666700 0.500000 1 0.500000 -1 -1 -1
    FREEMODE 0
    SEL 1
    REC 1 0 0 0 0 0 0
    VU 2
    TRACKHEIGHT 0 0
    INQ 0 0 0 0.5000000000 100 0 0 100
    NCHAN 2
    FX 1
    TRACKID {B15D9207-3EE8-4AE3-8869-1B46AAFE2860}
    PERF 0
    MIDIOUT -1
    MAINSEND 1 0
    <FXCHAIN
      SHOW 0
      LASTSEL 0
      DOCKED 0
    >
    <ITEM
      POSITION 0.42857142852154
      SNAPOFFS 0.00000000000000
      LENGTH 27.42857142862132
      LOOP 0
      ALLTAKES 0
      SEL 0
      FADEIN 1 0.010000 0.000000 1 0 0.000000
      FADEOUT 1 0.010000 0.000000 1 0 0.000000
      MUTE 0
      IGUID {D946C411-44DB-4776-9E9B-DDA3ED3FF81B}
      IID 32
      NAME "01-181206_2109.wav"
      VOLPAN 1.000000 0.000000 1.000000 -1.000000
      SOFFS 0.00000000000000
      PLAYRATE 1.00000000000000 1 0.00000000000000 -1 0 0.002500
      CHANMODE 0
      TAKECOLOR 18519246
      GUID {C3845AA6-297C-4BE0-9B1D-1675FB94E93D}
      RECPASS 20
      <SOURCE WAVE
        FILE "01-181206_2109.wav"
      >
    >
    <ITEM
      POSITION 27.85714285714286
      SNAPOFFS 0.00000000000000
      LENGTH 3.42857142857143
      LOOP 0
      ALLTAKES 0
      SEL 0
      FADEIN 1 0.010000 0.000000 1 0 0.000000
      FADEOUT 1 0.010000 0.000000 1 0 0.000000
      MUTE 0
      IGUID {B12A2DEA-50E3-46C5-A14C-DFA8537C9869}
      IID 33
      NAME "01-181206_2112.wav"
      VOLPAN 1.000000 0.000000 1.000000 -1.000000
      SOFFS 0.00000000000000
      PLAYRATE 1.00000000000000 1 0.00000000000000 -1 0 0.002500
      CHANMODE 0
      TAKECOLOR 24321709
      GUID {C021CC90-8625-4140-9498-D4206D9E7540}
      RECPASS 22
      <SOURCE WAVE
        FILE "01-181206_2112.wav"
      >
    >
    <ITEM
      POSITION 31.28571428571429
      SNAPOFFS 0.00000000000000
      LENGTH 0.01950113378685
      LOOP 0
      ALLTAKES 0
      SEL 0
      FADEIN 1 0.009501 0.000000 1 0 0.000000
      FADEOUT 1 0.010000 0.000000 1 0 0.000000
      MUTE 0
      IGUID {2DEA6F4D-E954-4C74-8F87-EFF710FA912B}
      IID 18
      NAME "01-181203_2158.wav"
      VOLPAN 1.000000 0.000000 1.000000 -1.000000
      SOFFS 31.71428571428572
      PLAYRATE 1.00000000000000 1 0.00000000000000 -1 0 0.002500
      CHANMODE 0
      TAKECOLOR 29664930
      GUID {015041E8-303C-4F64-B656-B0CB5C285EEA}
      RECPASS 17
      <SOURCE WAVE
        FILE "C:\Users\Baptiste\Documents\REAPER Media\01-181203_2158.wav"
      >
      TAKE
      NAME "01-181206_2126.wav"
      TAKEVOLPAN 0.000000 1.000000 -1.000000
      SOFFS 0.00000000000000
      PLAYRATE 1.00000000000000 1 0.00000000000000 -1 0 0.002500
      CHANMODE 0
      TAKECOLOR 33518981
      GUID {C174E515-2A38-4993-81C9-6BB35AD778B8}
      RECPASS 24
      <SOURCE WAVE
        FILE "01-181206_2126.wav"
      >
      TAKE
      NAME "01-181206_2126.wav"
      TAKEVOLPAN 0.000000 1.000000 -1.000000
      SOFFS 13.71428571428572
      PLAYRATE 1.00000000000000 1 0.00000000000000 -1 0 0.002500
      CHANMODE 0
      TAKECOLOR 18126016
      GUID {7D5AE2C0-6F8E-4F51-953A-69A69D703767}
      RECPASS 25
      <SOURCE WAVE
        FILE "01-181206_2126.wav"
      >
      TAKE
      NAME "01-181206_2126.wav"
      TAKEVOLPAN 0.000000 1.000000 -1.000000
      SOFFS 27.42857142857143
      PLAYRATE 1.00000000000000 1 0.00000000000000 -1 0 0.002500
      CHANMODE 0
      TAKECOLOR 25988039
      GUID {42490391-046E-491F-83B7-9AC0366C53C3}
      RECPASS 26
      <SOURCE WAVE
        FILE "01-181206_2126.wav"
      >
      TAKE
      NAME "01-181206_2130.wav"
      TAKEVOLPAN 0.000000 1.000000 -1.000000
      SOFFS 13.69478458049887
      PLAYRATE 1.00000000000000 1 0.00000000000000 -1 0 0.002500
      CHANMODE 0
      TAKECOLOR 24818059
      GUID {C9669BB5-B698-40E6-8765-F8BCE95BD003}
      RECPASS 28
      <SOURCE WAVE
        FILE "01-181206_2130.wav"
      >
      TAKE
      NAME "01-181206_2130.wav"
      TAKEVOLPAN 0.000000 1.000000 -1.000000
      SOFFS 27.40907029478458
      PLAYRATE 1.00000000000000 1 0.00000000000000 -1 0 0.002500
      CHANMODE 0
      TAKECOLOR 26768639
      GUID {86B2A184-0B25-4909-9D73-93BD77D167D7}
      RECPASS 29
      <SOURCE WAVE
        FILE "01-181206_2130.wav"
      >
      TAKE
      NAME "01-181206_2130.wav"
      TAKEVOLPAN 0.000000 1.000000 -1.000000
      SOFFS 41.12335600907029
      PLAYRATE 1.00000000000000 1 0.00000000000000 -1 0 0.002500
      CHANMODE 0
      TAKECOLOR 24291327
      GUID {C275421E-9200-4462-B653-A4C91D5B6573}
      RECPASS 30
      <SOURCE WAVE
        FILE "01-181206_2130.wav"
      >
      TAKE
      NAME "01-181206_2130.wav"
      TAKEVOLPAN 0.000000 1.000000 -1.000000
      SOFFS 54.83764172335602
      PLAYRATE 1.00000000000000 1 0.00000000000000 -1 0 0.002500
      CHANMODE 0
      TAKECOLOR 28962953
      GUID {39A1D1EC-E7BC-4E2D-A06A-F12238115858}
      RECPASS 31
      <SOURCE WAVE
        FILE "01-181206_2130.wav"
      >
      TAKE
      NAME "01-181206_2130.wav"
      TAKEVOLPAN 0.000000 1.000000 -1.000000
      SOFFS 68.55192743764172
      PLAYRATE 1.00000000000000 1 0.00000000000000 -1 0 0.002500
      CHANMODE 0
      TAKECOLOR 25755516
      GUID {E0E011C3-AA0B-43B3-BB2C-A8F7D348ADFB}
      RECPASS 32
      <SOURCE WAVE
        FILE "01-181206_2130.wav"
      >
      TAKE
      NAME "01-181206_2130.wav"
      TAKEVOLPAN 0.000000 1.000000 -1.000000
      SOFFS 82.26619047619047
      PLAYRATE 1.00000000000000 1 0.00000000000000 -1 0 0.002500
      CHANMODE 0
      TAKECOLOR 22554302
      GUID {77E0D18A-1F6F-4DB0-AA2A-9267A97BD285}
      RECPASS 33
      <SOURCE WAVE
        FILE "01-181206_2130.wav"
      >
      TAKE
      NAME "01-181206_2130.wav"
      TAKEVOLPAN 0.000000 1.000000 -1.000000
      SOFFS 95.98049886621315
      PLAYRATE 1.00000000000000 1 0.00000000000000 -1 0 0.002500
      CHANMODE 0
      TAKECOLOR 24967878
      GUID {B3B477C3-C490-4598-9A5A-35552BB63F02}
      RECPASS 34
      <SOURCE WAVE
        FILE "01-181206_2130.wav"
      >
      TAKE
      NAME "01-181206_2130.wav"
      TAKEVOLPAN 0.000000 1.000000 -1.000000
      SOFFS 109.69478458049886
      PLAYRATE 1.00000000000000 1 0.00000000000000 -1 0 0.002500
      CHANMODE 0
      TAKECOLOR 33389510
      GUID {67216247-1B31-4366-A6DB-E8AB206F8F47}
      RECPASS 35
      <SOURCE WAVE
        FILE "01-181206_2130.wav"
      >
      TAKE
      NAME "01-181206_2130.wav"
      TAKEVOLPAN 0.000000 1.000000 -1.000000
      SOFFS 123.40904761904761
      PLAYRATE 1.00000000000000 1 0.00000000000000 -1 0 0.002500
      CHANMODE 0
      TAKECOLOR 24447420
      GUID {B495F52C-97C2-44FA-B7E8-9EB7970872CE}
      RECPASS 36
      <SOURCE WAVE
        FILE "01-181206_2130.wav"
      >
      TAKE SEL
      NAME "01-181206_2130.wav"
      TAKEVOLPAN 0.000000 1.000000 -1.000000
      SOFFS 137.12333333333333
      PLAYRATE 1.00000000000000 1 0.00000000000000 -1 0 0.002500
      CHANMODE 0
      TAKECOLOR 24814591
      GUID {6FD33F86-D3FA-4E8B-A575-429626DF65CE}
      RECPASS 37
      <SOURCE WAVE
        FILE "01-181206_2130.wav"
      >
      TAKE NULL
    >
    <ITEM
      POSITION 31.30521541950114
      SNAPOFFS 0.00000000000000
      LENGTH 13.69478458049887
      LOOP 0
      ALLTAKES 0
      SEL 0
      FADEIN 1 0.010000 0.000000 1 0 0.000000
      FADEOUT 1 0.010000 0.000000 1 0 0.000000
      MUTE 0
      IGUID {91DD91DF-4B20-472D-882F-5E0CCC32FF8E}
      IID 18
      NAME "01-181206_2130.wav"
      VOLPAN 1.000000 0.000000 1.000000 -1.000000
      SOFFS 123.42854875283446
      PLAYRATE 1.00000000000000 1 0.00000000000000 -1 0 0.002500
      CHANMODE 0
      TAKECOLOR 24447420
      GUID {2FBE3168-48DB-4B66-ABA7-8B682F550336}
      RECPASS 36
      <SOURCE WAVE
        FILE "01-181206_2130.wav"
      >
    >
    <ITEM
      POSITION 60.42857142852154
      SNAPOFFS 0.00000000000000
      LENGTH 13.28571428571429
      LOOP 0
      ALLTAKES 0
      SEL 0
      FADEIN 1 0.010000 0.000000 1 0 0.000000
      FADEOUT 1 0.010000 0.000000 1 0 0.000000
      MUTE 0
      IGUID {F999A30C-6BCA-433B-92A2-9DB136E32403}
      IID 35
      NAME "01-181206_2135.wav"
      VOLPAN 1.000000 0.000000 1.000000 -1.000000
      SOFFS 0.00000000000000
      PLAYRATE 1.00000000000000 1 0.00000000000000 -1 0 0.002500
      CHANMODE 0
      TAKECOLOR 32867760
      GUID {D6911CBB-2A8A-49AE-A53B-DA697E08242F}
      RECPASS 38
      <SOURCE WAVE
        FILE "01-181206_2135.wav"
      >
    >
    <ITEM
      POSITION 73.71428571431898
      SNAPOFFS 0.00000000000000
      LENGTH 0.42857142857143
      LOOP 0
      ALLTAKES 0
      SEL 0
      FADEIN 1 0.010000 0.000000 1 0 0.000000
      FADEOUT 1 0.010000 0.000000 1 0 0.000000
      MUTE 0
      IGUID {E38A07C3-3EDB-43FE-95F1-073B8ADEE6BC}
      IID 36
      NAME "01-181206_2139.wav"
      VOLPAN 1.000000 0.000000 1.000000 -1.000000
      SOFFS 0.00000000000000
      PLAYRATE 1.00000000000000 1 0.00000000000000 -1 0 0.002500
      CHANMODE 0
      TAKECOLOR 26594078
      GUID {4DB94AFE-E403-482B-919F-E1BAC1850359}
      RECPASS 40
      <SOURCE WAVE
        FILE "01-181206_2139.wav"
      >
      TAKE NULL SEL
      TAKE NULL
    >
    <ITEM
      POSITION 235.28571428568102
      SNAPOFFS 0.00000000000000
      LENGTH 20.57142857142858
      LOOP 0
      ALLTAKES 0
      SEL 0
      FADEIN 1 0.010000 0.000000 1 0 0.000000
      FADEOUT 1 0.010000 0.000000 1 0 0.000000
      MUTE 0
      IGUID {277C8166-731F-44B6-B062-5561746FDEC3}
      IID 36
      NAME "01-181206_2142.wav"
      VOLPAN 1.000000 0.000000 1.000000 -1.000000
      SOFFS 0.00000000000000
      PLAYRATE 1.00000000000000 1 0.00000000000000 -1 0 0.002500
      CHANMODE 0
      TAKECOLOR 24042485
      GUID {A5CA825A-1461-4F25-83A1-8E094FB3599A}
      RECPASS 42
      <SOURCE WAVE
        FILE "01-181206_2142.wav"
      >
    >
  >
  <TRACK '{6AE8E977-E06D-4EF3-BBBF-C2F486CC2931}'
    NAME "Drumkit - tremolo"
    PEAKCOL 16576
    BEAT -1
    AUTOMODE 0
    VOLPAN 0.70858445955218 0.00000000000000 -1.00000000000000 -1.00000000000000 1.00000000000000
    MUTESOLO 0 0 0
    IPHASE 0
    ISBUS 0 0
    BUSCOMP 0 0
    SHOWINMIX 1 0.666700 0.500000 1 0.500000 -1 -1 -1
    FREEMODE 0
    SEL 0
    REC 0 0 0 0 0 0 0
    VU 2
    TRACKHEIGHT 0 0
    INQ 0 0 0 0.5000000000 100 0 0 100
    NCHAN 2
    FX 1
    TRACKID {6AE8E977-E06D-4EF3-BBBF-C2F486CC2931}
    PERF 0
    MIDIOUT -1
    MAINSEND 1 0
    <FXCHAIN
      SHOW 0
      LASTSEL 0
      DOCKED 0
      BYPASS 0 0 0
      <VST "VSTi: KVLT Drums REDUX (x64) (It Might Get Loud Productions) (32 out)" "KVLT Drums REDUX 64bit.dll" 0 ""
        UkxWS+5e7f4AAAAAIAAAAAEAAAAAAAAAAgAAAAAAAAAEAAAAAAAAAAgAAAAAAAAAEAAAAAAAAAAgAAAAAAAAAEAAAAAAAAAAgAAAAAAAAAAAAQAAAAAAAAACAAAAAAAA
        AAQAAAAAAAAACAAAAAAAAAAQAAAAAAAAACAAAAAAAAAAQAAAAAAAAACAAAAAAAAAAAABAAAAAAAAAAIAAAAAAAAABAAAAAAAAAAIAAAAAAAAABAAAAAAAAAAIAAAAAAA
        AABAAAAAAAAAAIAAAAAAAAAAAAEAAAAAAAAAAgAAAAAAAAAEAAAAAAAAAAgAAAAAAAAAEAAAAAAAAAAgAAAAAAAAAEAAAAAAAAAAgAAAAABtAgAAAQAAAAAAEABWQzIh
        ZAIAADxSb290PjxBbGxVc2VyUGFyYW0+MC4yODM0NjUsMC4yOTkyMTMsMC4zMDcwODcsMC4zMTQ5NjEsMC4zMjI4MzUsMC4yOTEzMzksMC4zNzc5NTMsMC4zNzAwNzks
        MC4zMzg1ODMsMC4zMzA3MDksMC4zNDY0NTcsMC4zNjIyMDUsMC4yMDQ3MjQsMC4zODU4MjcsMC40MjUxOTcsMC40NDg4MTksMC40NDA5NDUsMC4yMzYyMiwwLjQzMzA3
        MSwwLjQwOTQ0OSwwLjQxNzMyMywwLjQwMTU3NSwwLjQ2NDU2NywwLjIxMjU5OCwwLjI0NDA5NCwwLDAsMCwwLDAsMCwwLDAsMCwwLDAsMCwwLDAsMCwwLDAuNywwLjUs
        MCwwLDAuNywwLjUsMCwwLDAuNywwLjUsMCwwLDAuNywwLjUsMCwwLDAuNywwLjUsMCwwLDAuNywwLjUsMCwwLDAuNywwLjM1LDAsMCwwLjcsMC42NSwwLDAsMC43LDAu
        OCwwLDAsMC43LDAuMywwLDAsMC43LDAuMywwLDAsMC43LDAuMywwLDAsMC43LDAuMywwLDAsMC43LDAuMzUsMCwwLDAuNywwLjM1LDAsMCwwLjcsMC42NSwwLDAsMC43
        LDAuNjUsMCwwLDAuNywwLjI1LDAsMCwwLjcsMC4yNSwwLDAsMC43LDAuNzUsMCwwLDAuNywwLjgsMCwwLDAuNywwLjgsMCwwLDAuNywwLjgsMCwwLDAuNywwLjY1LDAs
        MCwwLjcsMC42NSwwLjgsMCwwPC9BbGxVc2VyUGFyYW0+PC9Sb290PgAAABAAAAA=
      >
      FLOATPOS 0 0 0 0
      FXID {B5A27033-F8E5-4CF7-B20E-F960128B7708}
      WAK 0
    >
    <ITEM
      POSITION 0.42857142857143
      SNAPOFFS 0.00000000000000
      LENGTH 289.71428571423581
      LOOP 1
      ALLTAKES 0
      SEL 0
      FADEIN 1 0.000000 0.000000 1 0 0.000000
      FADEOUT 1 0.000000 0.000000 1 0 0.000000
      MUTE 0
      IGUID {DD802DAB-16EA-45E0-AF31-41CC89253EB3}
      IID 44
      NAME "Drumkit - tremolo19.mid"
      VOLPAN 1.000000 0.000000 1.000000 -1.000000
      SOFFS 0.00000000004989 0.00000000011642
      PLAYRATE 1.00000000000000 1 0.00000000000000 -1 0 0.002500
      CHANMODE 0
      GUID {56C9E8C3-C464-4A81-ABEF-9070F621CFFD}
      <SOURCE MIDI
        HASDATA 1 480 QN
        POOLEDEVTS {A08E0324-ED77-4E7A-A6C7-0F5A2E0D4DD7}
        <X 0 0
          /wNEcnVta2l0
        >
        E 0 c9 00 00
        E 0 99 2a 48
        E 960 89 2a 40
        E 0 99 2a 48
        E 960 89 2a 40
        E 0 99 2a 48
        E 960 89 2a 40
        E 0 99 2a 48
        E 960 89 2a 40
        E 0 99 2a 48
        E 960 89 2a 40
        E 0 99 2a 48
        E 960 89 2a 40
        E 0 99 2a 48
        E 960 89 2a 40
        E 0 99 2a 48
        E 960 89 2a 40
        E 0 99 2a 48
        E 960 89 2a 40
        E 0 99 2a 48
        E 960 89 2a 40
        E 0 99 2a 48
        E 960 89 2a 40
        E 0 99 2a 48
        E 960 89 2a 40
        E 0 99 2a 48
        E 960 89 2a 40
        E 0 99 2a 48
        E 960 89 2a 40
        E 0 99 2a 48
        E 960 89 2a 40
        E 0 99 2a 48
        E 960 89 2a 40
        E 0 99 2a 48
        E 960 89 2a 40
        E 0 99 2a 48
        E 960 89 2a 40
        E 0 99 2a 48
        E 960 89 2a 40
        E 0 99 2a 48
        E 960 89 2a 40
        E 0 99 2a 48
        E 960 89 2a 40
        E 0 99 2a 48
        E 960 89 2a 40
        E 0 99 2a 48
        E 960 89 2a 40
        E 0 99 2a 48
        E 960 89 2a 40
        E 0 99 2a 48
        E 960 89 2a 40
        E 0 99 2a 48
        E 960 89 2a 40
        E 0 99 2a 48
        E 960 89 2a 40
        E 0 99 2a 48
        E 960 89 2a 40
        E 0 99 2a 48
        E 960 89 2a 40
        E 0 99 2a 48
        E 960 89 2a 40
        E 0 99 2a 48
        E 960 89 2a 40
        E 0 99 2a 48
        E 960 89 2a 40
        E 0 99 31 48
        E 1920 89 31 40
        E 0 99 39 50
        E 0 99 24 50
        E 120 89 39 40
        E 0 89 24 40
        E 0 99 24 50
        E 120 89 24 40
        E 0 99 24 50
        E 120 89 24 40
        E 0 99 24 50
        E 120 89 24 40
        E 0 99 31 50
        E 0 99 26 50
        E 0 99 24 50
        E 120 89 31 40
        E 0 89 26 40
        E 0 89 24 40
        E 0 99 24 50
        E 120 89 24 40
        E 0 99 24 50
        E 120 89 24 40
        E 0 99 24 50
        E 120 89 24 40
        E 0 99 24 50
        E 120 89 24 40
        E 0 99 24 50
        E 120 89 24 40
        E 0 99 24 50
        E 120 89 24 40
        E 0 99 24 50
        E 120 89 24 40
        E 0 99 26 50
        E 0 99 24 50
        E 120 89 26 40
        E 0 89 24 40
        E 0 99 26 50
        E 0 99 24 50
        E 120 89 26 40
        E 0 89 24 40
        E 0 99 26 50
        E 0 99 24 50
        E 120 89 26 40
        E 0 89 24 40
        E 0 99 26 50
        E 0 99 24 50
        E 120 89 26 40
        E 0 89 24 40
        E 0 99 2e 58
        E 0 99 24 58
        E 120 89 2e 40
        E 0 89 24 40
        E 0 99 24 58
        E 120 89 24 40
        E 0 99 24 58
        E 120 89 24 40
        E 0 99 24 58
        E 120 89 24 40
        E 0 99 2e 58
        E 0 99 26 58
        E 0 99 24 58
        E 120 89 2e 40
        E 0 89 26 40
        E 0 89 24 40
        E 0 99 24 58
        E 120 89 24 40
        E 0 99 24 58
        E 120 89 24 40
        E 0 99 24 58
        E 120 89 24 40
        E 0 99 2e 58
        E 0 99 24 58
        E 120 89 2e 40
        E 0 89 24 40
        E 0 99 24 58
        E 120 89 24 40
        E 0 99 24 58
        E 120 89 24 40
        E 0 99 24 58
        E 120 89 24 40
        E 0 99 2e 58
        E 0 99 26 58
        E 0 99 24 58
        E 120 89 2e 40
        E 0 89 26 40
        E 0 89 24 40
        E 0 99 24 58
        E 120 89 24 40
        E 0 99 24 58
        E 120 89 24 40
        E 0 99 24 58
        E 120 89 24 40
        E 0 99 2e 58
        E 0 99 24 58
        E 120 89 2e 40
        E 0 89 24 40
        E 0 99 24 58
        E 120 89 24 40
        E 0 99 24 58
        E 120 89 24 40
        E 0 99 24 58
        E 120 89 24 40
        E 0 99 2e 58
        E 0 99 26 58
        E 0 99 24 58
        E 120 89 2e 40
        E 0 89 26 40
        E 0 89 24 40
        E 0 99 24 58
        E 120 89 24 40
        E 0 99 24 58
        E 120 89 24 40
        E 0 99 24 58
        E 120 89 24 40
        E 0 99 2e 58
        E 0 99 24 58
        E 120 89 2e 40
        E 0 89 24 40
        E 0 99 24 58
        E 120 89 24 40
        E 0 99 24 58
        E 120 89 24 40
        E 0 99 24 58
        E 120 89 24 40
        E 0 99 2e 58
        E 0 99 26 58
        E 0 99 24 58
        E 120 89 2e 40
        E 0 89 26 40
        E 0 89 24 40
        E 0 99 24 58
        E 120 89 24 40
        E 0 99 24 58
        E 120 89 24 40
        E 0 99 26 58
        E 0 99 24 58
        E 120 89 26 40
        E 0 89 24 40
        E 0 99 2e 58
        E 0 99 24 58
        E 120 89 2e 40
        E 0 89 24 40
        E 0 99 24 58
        E 120 89 24 40
        E 0 99 24 58
        E 120 89 24 40
        E 0 99 24 58
        E 120 89 24 40
        E 0 99 2e 58
        E 0 99 26 58
        E 0 99 24 58
        E 120 89 2e 40
        E 0 89 26 40
        E 0 89 24 40
        E 0 99 24 58
        E 120 89 24 40
        E 0 99 24 58
        E 120 89 24 40
        E 0 99 24 58
        E 120 89 24 40
        E 0 99 2e 58
        E 0 99 24 58
        E 120 89 2e 40
        E 0 89 24 40
        E 0 99 24 58
        E 120 89 24 40
        E 0 99 24 58
        E 120 89 24 40
        E 0 99 24 58
        E 120 89 24 40
        E 0 99 2e 58
        E 0 99 26 58
        E 0 99 24 58
        E 120 89 2e 40
        E 0 89 26 40
        E 0 89 24 40
        E 0 99 24 58
        E 120 89 24 40
        E 0 99 24 58
        E 120 89 24 40
        E 0 99 24 58
        E 120 89 24 40
        E 0 99 2e 58
        E 0 99 26 58
        E 0 99 24 58
        E 120 89 2e 40
        E 0 89 26 40
        E 0 89 24 40
        E 0 99 24 58
        E 120 89 24 40
        E 0 99 24 58
        E 120 89 24 40
        E 0 99 2e 58
        E 0 99 26 58
        E 0 99 24 58
        E 120 89 2e 40
        E 0 89 26 40
        E 0 89 24 40
        E 0 99 24 58
        E 120 89 24 40
        E 0 99 24 58
        E 120 89 24 40
        E 0 99 2e 58
        E 0 99 26 58
        E 0 99 24 58
        E 120 89 2e 40
        E 0 89 26 40
        E 0 89 24 40
        E 0 99 24 58
        E 120 89 24 40
        E 0 99 24 58
        E 120 89 24 40
        E 0 99 2e 58
        E 0 99 26 58
        E 0 99 24 58
        E 120 89 2e 40
        E 0 89 26 40
        E 0 89 24 40
        E 0 99 24 58
        E 120 89 24 40
        E 0 99 24 58
        E 120 89 24 40
        E 0 99 2e 58
        E 0 99 26 58
        E 0 99 24 58
        E 120 89 2e 40
        E 0 89 26 40
        E 0 89 24 40
        E 0 99 24 58
        E 120 89 24 40
        E 0 99 37 58
        E 0 99 26 58
        E 0 99 24 58
        E 120 89 37 40
        E 0 89 26 40
        E 0 89 24 40
        E 0 99 26 58
        E 0 99 24 58
        E 120 89 26 40
        E 0 89 24 40
        E 0 99 2e 58
        E 0 99 24 58
        E 120 89 2e 40
        E 0 89 24 40
        E 0 99 24 58
        E 120 89 24 40
        E 0 99 24 58
        E 120 89 24 40
        E 0 99 24 58
        E 120 89 24 40
        E 0 99 2e 58
        E 0 99 26 58
        E 0 99 24 58
        E 120 89 2e 40
        E 0 89 26 40
        E 0 89 24 40
        E 0 99 24 58
        E 120 89 24 40
        E 0 99 24 58
        E 120 89 24 40
        E 0 99 24 58
        E 120 89 24 40
        E 0 99 2e 58
        E 0 99 24 58
        E 120 89 2e 40
        E 0 89 24 40
        E 0 99 24 58
        E 120 89 24 40
        E 0 99 24 58
        E 120 89 24 40
        E 0 99 24 58
        E 120 89 24 40
        E 0 99 2e 58
        E 0 99 26 58
        E 0 99 24 58
        E 120 89 2e 40
        E 0 89 26 40
        E 0 89 24 40
        E 0 99 24 58
        E 120 89 24 40
        E 0 99 24 58
        E 120 89 24 40
        E 0 99 24 58
        E 120 89 24 40
        E 0 99 2e 58
        E 0 99 24 58
        E 120 89 2e 40
        E 0 89 24 40
        E 0 99 24 58
        E 120 89 24 40
        E 0 99 24 58
        E 120 89 24 40
        E 0 99 24 58
        E 120 89 24 40
        E 0 99 2e 58
        E 0 99 26 58
        E 0 99 24 58
        E 120 89 2e 40
        E 0 89 26 40
        E 0 89 24 40
        E 0 99 24 58
        E 120 89 24 40
        E 0 99 24 58
        E 120 89 24 40
        E 0 99 24 58
        E 120 89 24 40
        E 0 99 2e 58
        E 0 99 24 58
        E 120 89 2e 40
        E 0 89 24 40
        E 0 99 24 58
        E 120 89 24 40
        E 0 99 24 58
        E 120 89 24 40
        E 0 99 24 58
        E 120 89 24 40
        E 0 99 2e 58
        E 0 99 26 58
        E 0 99 24 58
        E 120 89 2e 40
        E 0 89 26 40
        E 0 89 24 40
        E 0 99 24 58
        E 120 89 24 40
        E 0 99 24 58
        E 120 89 24 40
        E 0 99 24 58
        E 120 89 24 40
        E 0 99 39 48
        E 0 99 26 48
        E 0 99 24 48
        E 120 89 39 40
        E 0 89 26 40
        E 0 89 24 40
        E 0 99 26 48
        E 0 99 24 48
        E 120 89 26 40
        E 0 89 24 40
        E 0 99 24 48
        E 120 89 24 40
        E 0 99 24 48
        E 120 89 24 40
        E 0 99 26 48
        E 0 99 24 48
        E 120 89 26 40
        E 0 89 24 40
        E 0 99 26 48
        E 0 99 24 48
        E 120 89 26 40
        E 0 89 24 40
        E 0 99 26 48
        E 0 99 24 48
        E 120 89 26 40
        E 0 89 24 40
        E 0 99 26 48
        E 0 99 24 48
        E 120 89 26 40
        E 0 89 24 40
        E 0 99 2d 48
        E 0 99 24 48
        E 120 89 2d 40
        E 0 89 24 40
        E 0 99 2d 48
        E 0 99 24 48
        E 120 89 2d 40
        E 0 89 24 40
        E 0 99 2d 48
        E 0 99 24 48
        E 120 89 2d 40
        E 0 89 24 40
        E 0 99 2d 48
        E 0 99 24 48
        E 120 89 2d 40
        E 0 89 24 40
        E 0 99 2b 48
        E 0 99 24 48
        E 120 89 2b 40
        E 0 89 24 40
        E 0 99 2b 48
        E 0 99 24 48
        E 120 89 2b 40
        E 0 89 24 40
        E 0 99 2b 48
        E 0 99 24 48
        E 120 89 2b 40
        E 0 89 24 40
        E 0 99 2b 48
        E 0 99 24 48
        E 120 89 2b 40
        E 0 89 24 40
        E 0 99 2e 48
        E 0 99 26 48
        E 0 99 24 48
        E 120 89 2e 40
        E 0 89 26 40
        E 0 89 24 40
        E 0 99 24 48
        E 120 89 24 40
        E 0 99 24 48
        E 120 89 24 40
        E 0 99 24 48
        E 120 89 24 40
        E 0 99 2e 48
        E 0 99 26 48
        E 0 99 24 48
        E 120 89 2e 40
        E 0 89 26 40
        E 0 89 24 40
        E 0 99 24 48
        E 120 89 24 40
        E 0 99 24 48
        E 120 89 24 40
        E 0 99 24 48
        E 120 89 24 40
        E 0 99 2e 48
        E 0 99 26 48
        E 0 99 24 48
        E 120 89 2e 40
        E 0 89 26 40
        E 0 89 24 40
        E 0 99 24 48
        E 120 89 24 40
        E 0 99 24 48
        E 120 89 24 40
        E 0 99 24 48
        E 120 89 24 40
        E 0 99 31 48
        E 0 99 26 48
        E 0 99 24 48
        E 120 89 31 40
        E 0 89 26 40
        E 0 89 24 40
        E 0 99 24 48
        E 120 89 24 40
        E 0 99 31 48
        E 0 99 26 48
        E 0 99 24 48
        E 120 89 31 40
        E 0 89 26 40
        E 0 89 24 40
        E 0 99 26 48
        E 0 99 24 48
        E 120 89 26 40
        E 0 89 24 40
        E 0 99 26 58
        E 0 99 24 58
        E 0 99 2e 58
        E 120 89 26 40
        E 0 89 24 40
        E 0 89 2e 40
        E 0 99 24 58
        E 120 89 24 40
        E 0 99 24 58
        E 120 89 24 40
        E 0 99 24 58
        E 120 89 24 40
        E 0 99 26 58
        E 0 99 24 58
        E 120 89 26 40
        E 0 89 24 40
        E 0 99 24 58
        E 120 89 24 40
        E 0 99 24 58
        E 120 89 24 40
        E 0 99 24 58
        E 120 89 24 40
        E 0 99 26 58
        E 0 99 24 58
        E 120 89 26 40
        E 0 89 24 40
        E 0 99 24 58
        E 120 89 24 40
        E 0 99 24 58
        E 120 89 24 40
        E 0 99 24 58
        E 120 89 24 40
        E 0 99 26 58
        E 0 99 24 58
        E 120 89 26 40
        E 0 89 24 40
        E 0 99 24 58
        E 120 89 24 40
        E 0 99 24 58
        E 120 89 24 40
        E 0 99 24 58
        E 120 89 24 40
        E 0 99 26 58
        E 0 99 24 58
        E 0 99 2e 58
        E 120 89 26 40
        E 0 89 24 40
        E 0 89 2e 40
        E 0 99 24 58
        E 120 89 24 40
        E 0 99 24 58
        E 120 89 24 40
        E 0 99 24 58
        E 120 89 24 40
        E 0 99 26 58
        E 0 99 24 58
        E 120 89 26 40
        E 0 89 24 40
        E 0 99 24 58
        E 120 89 24 40
        E 0 99 24 58
        E 120 89 24 40
        E 0 99 24 58
        E 120 89 24 40
        E 0 99 26 58
        E 0 99 24 58
        E 120 89 26 40
        E 0 89 24 40
        E 0 99 24 58
        E 120 89 24 40
        E 0 99 24 58
        E 120 89 24 40
        E 0 99 24 58
        E 120 89 24 40
        E 0 99 26 58
        E 0 99 24 58
        E 120 89 26 40
        E 0 89 24 40
        E 0 99 24 58
        E 120 89 24 40
        E 0 99 24 58
        E 120 89 24 40
        E 0 99 24 58
        E 120 89 24 40
        E 0 99 26 58
        E 0 99 24 58
        E 120 89 26 40
        E 0 89 24 40
        E 0 99 24 58
        E 120 89 24 40
        E 0 99 24 58
        E 120 89 24 40
        E 0 99 24 58
        E 120 89 24 40
        E 0 99 26 58
        E 0 99 24 58
        E 120 89 26 40
        E 0 89 24 40
        E 0 99 24 58
        E 120 89 24 40
        E 0 99 24 58
        E 120 89 24 40
        E 0 99 24 58
        E 120 89 24 40
        E 0 99 26 58
        E 0 99 24 58
        E 120 89 26 40
        E 0 89 24 40
        E 0 99 24 58
        E 120 89 24 40
        E 0 99 24 58
        E 120 89 24 40
        E 0 99 24 58
        E 120 89 24 40
        E 0 99 2e 58
        E 0 99 26 58
        E 0 99 24 58
        E 120 89 2e 40
        E 0 89 26 40
        E 0 89 24 40
        E 0 99 24 58
        E 120 89 24 40
        E 0 99 24 58
        E 0 99 5c 58
        E 120 89 24 40
        E 0 89 5c 40
        E 0 99 24 58
        E 120 89 24 40
        E 0 99 2e 58
        E 0 99 26 58
        E 0 99 24 58
        E 120 89 2e 40
        E 0 89 26 40
        E 0 89 24 40
        E 0 99 24 58
        E 120 89 24 40
        E 0 99 24 58
        E 120 89 24 40
        E 0 99 24 58
        E 120 89 24 40
        E 0 99 26 58
        E 0 99 24 58
        E 120 89 26 40
        E 0 89 24 40
        E 0 99 24 58
        E 120 89 24 40
        E 0 99 24 58
        E 120 89 24 40
        E 0 99 24 58
        E 120 89 24 40
        E 0 99 2e 58
        E 0 99 26 58
        E 0 99 24 58
        E 120 89 2e 40
        E 0 89 26 40
        E 0 89 24 40
        E 0 99 24 58
        E 120 89 24 40
        E 0 99 24 58
        E 120 89 24 40
        E 0 99 24 58
        E 120 89 24 40
        E 0 99 26 58
        E 0 99 24 58
        E 120 89 26 40
        E 0 89 24 40
        E 0 99 24 58
        E 120 89 24 40
        E 0 99 24 58
        E 120 89 24 40
        E 0 99 24 58
        E 120 89 24 40
        E 0 99 26 58
        E 0 99 24 58
        E 0 99 2e 58
        E 120 89 26 40
        E 0 89 24 40
        E 0 89 2e 40
        E 0 99 24 58
        E 120 89 24 40
        E 0 99 24 58
        E 120 89 24 40
        E 0 99 24 58
        E 120 89 24 40
        E 0 99 26 58
        E 0 99 24 58
        E 120 89 26 40
        E 0 89 24 40
        E 0 99 24 58
        E 120 89 24 40
        E 0 99 24 58
        E 120 89 24 40
        E 0 99 24 58
        E 120 89 24 40
        E 0 99 26 58
        E 0 99 24 58
        E 120 89 26 40
        E 0 89 24 40
        E 0 99 24 58
        E 120 89 24 40
        E 0 99 24 58
        E 120 89 24 40
        E 0 99 24 58
        E 120 89 24 40
        E 0 99 26 58
        E 0 99 24 58
        E 120 89 26 40
        E 0 89 24 40
        E 0 99 24 58
        E 120 89 24 40
        E 0 99 24 58
        E 120 89 24 40
        E 0 99 24 58
        E 120 89 24 40
        E 0 99 2e 58
        E 0 99 26 58
        E 0 99 24 58
        E 120 89 2e 40
        E 0 89 26 40
        E 0 89 24 40
        E 0 99 24 58
        E 120 89 24 40
        E 0 99 24 58
        E 120 89 24 40
        E 0 99 24 58
        E 120 89 24 40
        E 0 99 26 58
        E 0 99 24 58
        E 120 89 26 40
        E 0 89 24 40
        E 0 99 24 58
        E 120 89 24 40
        E 0 99 24 58
        E 120 89 24 40
        E 0 99 24 58
        E 120 89 24 40
        E 0 99 26 58
        E 0 99 24 58
        E 120 89 26 40
        E 0 89 24 40
        E 0 99 24 58
        E 120 89 24 40
        E 0 99 24 58
        E 120 89 24 40
        E 0 99 24 58
        E 120 89 24 40
        E 0 99 26 58
        E 0 99 24 58
        E 120 89 26 40
        E 0 89 24 40
        E 0 99 24 58
        E 120 89 24 40
        E 0 99 24 58
        E 120 89 24 40
        E 0 99 24 58
        E 120 89 24 40
        E 0 99 2e 58
        E 0 99 26 58
        E 0 99 24 58
        E 120 89 2e 40
        E 0 89 26 40
        E 0 89 24 40
        E 0 99 24 58
        E 120 89 24 40
        E 0 99 24 58
        E 120 89 24 40
        E 0 99 24 58
        E 120 89 24 40
        E 0 99 26 58
        E 0 99 24 58
        E 120 89 26 40
        E 0 89 24 40
        E 0 99 24 58
        E 120 89 24 40
        E 0 99 24 58
        E 120 89 24 40
        E 0 99 24 58
        E 120 89 24 40
        E 0 99 26 58
        E 0 99 24 58
        E 120 89 26 40
        E 0 89 24 40
        E 0 99 24 58
        E 120 89 24 40
        E 0 99 24 58
        E 120 89 24 40
        E 0 99 24 58
        E 120 89 24 40
        E 0 99 2e 58
        E 0 99 26 58
        E 0 99 24 58
        E 120 89 2e 40
        E 0 89 26 40
        E 0 89 24 40
        E 0 99 24 58
        E 120 89 24 40
        E 0 99 24 58
        E 0 99 5c 58
        E 120 89 24 40
        E 0 89 5c 40
        E 0 99 24 58
        E 120 89 24 40
        E 0 99 2e 58
        E 0 99 26 58
        E 0 99 24 58
        E 120 89 2e 40
        E 0 89 26 40
        E 0 89 24 40
        E 0 99 24 58
        E 120 89 24 40
        E 0 99 24 58
        E 120 89 24 40
        E 0 99 24 58
        E 120 89 24 40
        E 0 99 26 58
        E 0 99 24 58
        E 120 89 26 40
        E 0 89 24 40
        E 0 99 24 58
        E 120 89 24 40
        E 0 99 24 58
        E 120 89 24 40
        E 0 99 24 58
        E 120 89 24 40
        E 0 99 2e 58
        E 0 99 26 58
        E 0 99 24 58
        E 120 89 2e 40
        E 0 89 26 40
        E 0 89 24 40
        E 0 99 24 58
        E 120 89 24 40
        E 0 99 24 58
        E 120 89 24 40
        E 0 99 24 58
        E 120 89 24 40
        E 0 99 2e 58
        E 0 99 26 58
        E 0 99 24 58
        E 120 89 2e 40
        E 0 89 26 40
        E 0 89 24 40
        E 0 99 24 58
        E 120 89 24 40
        E 0 99 24 58
        E 120 89 24 40
        E 0 99 24 58
        E 120 89 24 40
        E 0 99 24 58
        E 0 99 39 58
        E 1920 89 24 40
        E 0 89 39 40
        E 13440 99 24 48
        E 0 99 35 48
        E 240 89 24 40
        E 0 89 35 40
        E 0 99 26 48
        E 0 99 24 48
        E 240 89 26 40
        E 0 89 24 40
        E 0 99 24 48
        E 0 99 35 48
        E 120 89 24 40
        E 0 89 35 40
        E 0 99 24 48
        E 120 89 24 40
        E 0 99 26 48
        E 0 99 24 48
        E 0 99 35 48
        E 240 89 26 40
        E 0 89 24 40
        E 0 89 35 40
        E 0 99 24 48
        E 240 89 24 40
        E 0 99 26 48
        E 0 99 24 48
        E 0 99 35 48
        E 240 89 26 40
        E 0 89 24 40
        E 0 89 35 40
        E 0 99 24 48
        E 120 89 24 40
        E 0 99 24 48
        E 120 89 24 40
        E 0 99 26 48
        E 0 99 24 48
        E 0 99 35 48
        E 240 89 26 40
        E 0 89 24 40
        E 0 89 35 40
        E 0 99 24 48
        E 0 99 35 48
        E 240 89 24 40
        E 0 89 35 40
        E 0 99 26 48
        E 0 99 24 48
        E 240 89 26 40
        E 0 89 24 40
        E 0 99 24 48
        E 0 99 35 48
        E 120 89 24 40
        E 0 89 35 40
        E 0 99 24 48
        E 120 89 24 40
        E 0 99 26 48
        E 0 99 24 48
        E 240 89 26 40
        E 0 89 24 40
        E 0 99 24 48
        E 0 99 35 48
        E 240 89 24 40
        E 0 89 35 40
        E 0 99 26 48
        E 0 99 24 48
        E 240 89 26 40
        E 0 89 24 40
        E 0 99 24 48
        E 0 99 35 48
        E 120 89 24 40
        E 0 89 35 40
        E 0 99 24 48
        E 120 89 24 40
        E 0 99 26 48
        E 0 99 24 48
        E 240 89 26 40
        E 0 89 24 40
        E 0 99 24 48
        E 0 99 35 48
        E 240 89 24 40
        E 0 89 35 40
        E 0 99 26 48
        E 0 99 24 48
        E 240 89 26 40
        E 0 89 24 40
        E 0 99 24 48
        E 0 99 35 48
        E 120 89 24 40
        E 0 89 35 40
        E 0 99 24 48
        E 120 89 24 40
        E 0 99 26 48
        E 0 99 24 48
        E 0 99 35 48
        E 240 89 26 40
        E 0 89 24 40
        E 0 89 35 40
        E 0 99 24 48
        E 240 89 24 40
        E 0 99 26 48
        E 0 99 24 48
        E 0 99 35 48
        E 240 89 26 40
        E 0 89 24 40
        E 0 89 35 40
        E 0 99 24 48
        E 0 99 35 48
        E 120 89 24 40
        E 0 89 35 40
        E 0 99 24 48
        E 120 89 24 40
        E 0 99 26 48
        E 0 99 24 48
        E 0 99 35 48
        E 240 89 26 40
        E 0 89 24 40
        E 0 89 35 40
        E 0 99 24 48
        E 0 99 35 48
        E 240 89 24 40
        E 0 89 35 40
        E 0 99 26 48
        E 0 99 24 48
        E 240 89 26 40
        E 0 89 24 40
        E 0 99 24 48
        E 0 99 35 48
        E 120 89 24 40
        E 0 89 35 40
        E 0 99 24 48
        E 120 89 24 40
        E 0 99 26 48
        E 0 99 24 48
        E 0 99 35 48
        E 240 89 26 40
        E 0 89 24 40
        E 0 89 35 40
        E 0 99 24 48
        E 240 89 24 40
        E 0 99 26 48
        E 0 99 24 48
        E 0 99 35 48
        E 240 89 26 40
        E 0 89 24 40
        E 0 89 35 40
        E 0 99 24 48
        E 0 99 35 48
        E 120 89 24 40
        E 0 89 35 40
        E 0 99 24 48
        E 120 89 24 40
        E 0 99 26 48
        E 0 99 24 48
        E 0 99 35 48
        E 240 89 26 40
        E 0 89 24 40
        E 0 89 35 40
        E 0 99 24 48
        E 0 99 35 48
        E 240 89 24 40
        E 0 89 35 40
        E 0 99 26 48
        E 0 99 24 48
        E 240 89 26 40
        E 0 89 24 40
        E 0 99 24 48
        E 0 99 35 48
        E 120 89 24 40
        E 0 89 35 40
        E 0 99 24 48
        E 120 89 24 40
        E 0 99 26 48
        E 0 99 24 48
        E 0 99 35 48
        E 240 89 26 40
        E 0 89 24 40
        E 0 89 35 40
        E 0 99 24 48
        E 240 89 24 40
        E 0 99 26 48
        E 0 99 24 48
        E 0 99 35 48
        E 240 89 26 40
        E 0 89 24 40
        E 0 89 35 40
        E 0 99 24 48
        E 120 89 24 40
        E 0 99 24 48
        E 120 89 24 40
        E 0 99 26 48
        E 0 99 24 48
        E 0 99 35 48
        E 240 89 26 40
        E 0 89 24 40
        E 0 89 35 40
        E 0 99 24 48
        E 0 99 35 48
        E 240 89 24 40
        E 0 89 35 40
        E 0 99 26 48
        E 0 99 24 48
        E 240 89 26 40
        E 0 89 24 40
        E 0 99 24 48
        E 0 99 35 48
        E 120 89 24 40
        E 0 89 35 40
        E 0 99 24 48
        E 120 89 24 40
        E 0 99 26 48
        E 0 99 24 48
        E 240 89 26 40
        E 0 89 24 40
        E 0 99 24 48
        E 0 99 35 48
        E 240 89 24 40
        E 0 89 35 40
        E 0 99 26 48
        E 0 99 24 48
        E 240 89 26 40
        E 0 89 24 40
        E 0 99 24 48
        E 0 99 35 48
        E 120 89 24 40
        E 0 89 35 40
        E 0 99 24 48
        E 120 89 24 40
        E 0 99 26 48
        E 0 99 24 48
        E 240 89 26 40
        E 0 89 24 40
        E 0 99 24 48
        E 0 99 35 48
        E 240 89 24 40
        E 0 89 35 40
        E 0 99 26 48
        E 0 99 24 48
        E 240 89 26 40
        E 0 89 24 40
        E 0 99 24 48
        E 0 99 35 48
        E 120 89 24 40
        E 0 89 35 40
        E 0 99 24 48
        E 120 89 24 40
        E 0 99 26 48
        E 0 99 24 48
        E 0 99 35 48
        E 240 89 26 40
        E 0 89 24 40
        E 0 89 35 40
        E 0 99 24 48
        E 240 89 24 40
        E 0 99 26 48
        E 0 99 24 48
        E 0 99 35 48
        E 240 89 26 40
        E 0 89 24 40
        E 0 89 35 40
        E 0 99 24 48
        E 0 99 35 48
        E 120 89 24 40
        E 0 89 35 40
        E 0 99 24 48
        E 120 89 24 40
        E 0 99 26 48
        E 0 99 24 48
        E 0 99 35 48
        E 240 89 26 40
        E 0 89 24 40
        E 0 89 35 40
        E 0 99 24 48
        E 0 99 35 48
        E 240 89 24 40
        E 0 89 35 40
        E 0 99 26 48
        E 0 99 24 48
        E 240 89 26 40
        E 0 89 24 40
        E 0 99 24 48
        E 0 99 35 48
        E 120 89 24 40
        E 0 89 35 40
        E 0 99 24 48
        E 120 89 24 40
        E 0 99 26 48
        E 0 99 24 48
        E 240 89 26 40
        E 0 89 24 40
        E 0 99 24 48
        E 0 99 35 48
        E 240 89 24 40
        E 0 89 35 40
        E 0 99 26 48
        E 0 99 24 48
        E 240 89 26 40
        E 0 89 24 40
        E 0 99 24 48
        E 0 99 35 48
        E 120 89 24 40
        E 0 89 35 40
        E 0 99 24 48
        E 120 89 24 40
        E 0 99 26 48
        E 0 99 24 48
        E 240 89 26 40
        E 0 89 24 40
        E 0 99 24 48
        E 0 99 35 48
        E 240 89 24 40
        E 0 89 35 40
        E 0 99 26 48
        E 0 99 24 48
        E 240 89 26 40
        E 0 89 24 40
        E 0 99 24 48
        E 0 99 35 48
        E 120 89 24 40
        E 0 89 35 40
        E 0 99 24 48
        E 120 89 24 40
        E 0 99 26 48
        E 0 99 24 48
        E 0 99 35 48
        E 240 89 26 40
        E 0 89 24 40
        E 0 89 35 40
        E 0 99 24 48
        E 240 89 24 40
        E 0 99 26 48
        E 0 99 24 48
        E 0 99 35 48
        E 240 89 26 40
        E 0 89 24 40
        E 0 89 35 40
        E 0 99 24 48
        E 120 89 24 40
        E 0 99 24 48
        E 120 89 24 40
        E 0 99 26 48
        E 0 99 24 48
        E 0 99 35 48
        E 240 89 26 40
        E 0 89 24 40
        E 0 89 35 40
        E 0 99 24 48
        E 0 99 35 48
        E 240 89 24 40
        E 0 89 35 40
        E 0 99 26 48
        E 0 99 24 48
        E 240 89 26 40
        E 0 89 24 40
        E 0 99 24 48
        E 0 99 35 48
        E 120 89 24 40
        E 0 89 35 40
        E 0 99 24 48
        E 120 89 24 40
        E 0 99 26 48
        E 0 99 24 48
        E 240 89 26 40
        E 0 89 24 40
        E 0 99 24 48
        E 0 99 35 48
        E 240 89 24 40
        E 0 89 35 40
        E 0 99 26 48
        E 0 99 24 48
        E 240 89 26 40
        E 0 89 24 40
        E 0 99 24 48
        E 0 99 35 48
        E 120 89 24 40
        E 0 89 35 40
        E 0 99 24 48
        E 120 89 24 40
        E 0 99 26 48
        E 0 99 24 48
        E 240 89 26 40
        E 0 89 24 40
        E 0 99 24 48
        E 0 99 35 48
        E 240 89 24 40
        E 0 89 35 40
        E 0 99 26 48
        E 0 99 24 48
        E 240 89 26 40
        E 0 89 24 40
        E 0 99 24 48
        E 0 99 35 48
        E 120 89 24 40
        E 0 89 35 40
        E 0 99 24 48
        E 120 89 24 40
        E 0 99 26 48
        E 0 99 24 48
        E 0 99 35 48
        E 240 89 26 40
        E 0 89 24 40
        E 0 89 35 40
        E 0 99 24 48
        E 240 89 24 40
        E 0 99 26 48
        E 0 99 24 48
        E 0 99 35 48
        E 240 89 26 40
        E 0 89 24 40
        E 0 89 35 40
        E 0 99 24 48
        E 0 99 35 48
        E 120 89 24 40
        E 0 89 35 40
        E 0 99 24 48
        E 120 89 24 40
        E 0 99 26 48
        E 0 99 24 48
        E 0 99 35 48
        E 240 89 26 40
        E 0 89 24 40
        E 0 89 35 40
        E 0 99 24 48
        E 0 99 35 48
        E 240 89 24 40
        E 0 89 35 40
        E 0 99 26 48
        E 0 99 24 48
        E 240 89 26 40
        E 0 89 24 40
        E 0 99 24 48
        E 0 99 35 48
        E 120 89 24 40
        E 0 89 35 40
        E 0 99 24 48
        E 120 89 24 40
        E 0 99 26 48
        E 0 99 24 48
        E 0 99 35 48
        E 240 89 26 40
        E 0 89 24 40
        E 0 89 35 40
        E 0 99 24 48
        E 240 89 24 40
        E 0 99 26 48
        E 0 99 24 48
        E 0 99 35 48
        E 240 89 26 40
        E 0 89 24 40
        E 0 89 35 40
        E 0 99 24 48
        E 0 99 35 48
        E 120 89 24 40
        E 0 89 35 40
        E 0 99 24 48
        E 120 89 24 40
        E 0 99 26 48
        E 0 99 24 48
        E 0 99 35 48
        E 240 89 26 40
        E 0 89 24 40
        E 0 89 35 40
        E 0 99 24 48
        E 0 99 35 48
        E 240 89 24 40
        E 0 89 35 40
        E 0 99 26 48
        E 0 99 24 48
        E 240 89 26 40
        E 0 89 24 40
        E 0 99 24 48
        E 0 99 35 48
        E 120 89 24 40
        E 0 89 35 40
        E 0 99 24 48
        E 120 89 24 40
        E 0 99 26 48
        E 0 99 24 48
        E 0 99 35 48
        E 240 89 26 40
        E 0 89 24 40
        E 0 89 35 40
        E 0 99 24 48
        E 240 89 24 40
        E 0 99 26 48
        E 0 99 24 48
        E 0 99 35 48
        E 240 89 26 40
        E 0 89 24 40
        E 0 89 35 40
        E 0 99 24 48
        E 120 89 24 40
        E 0 99 24 48
        E 120 89 24 40
        E 0 99 26 48
        E 0 99 24 48
        E 0 99 35 48
        E 240 89 26 40
        E 0 89 24 40
        E 0 89 35 40
        E 0 99 24 48
        E 0 99 35 48
        E 240 89 24 40
        E 0 89 35 40
        E 0 99 26 48
        E 0 99 24 48
        E 240 89 26 40
        E 0 89 24 40
        E 0 99 24 48
        E 0 99 35 48
        E 120 89 24 40
        E 0 89 35 40
        E 0 99 24 48
        E 120 89 24 40
        E 0 99 26 48
        E 0 99 24 48
        E 240 89 26 40
        E 0 89 24 40
        E 0 99 24 48
        E 0 99 35 48
        E 240 89 24 40
        E 0 89 35 40
        E 0 99 26 48
        E 0 99 24 48
        E 240 89 26 40
        E 0 89 24 40
        E 0 99 24 48
        E 0 99 35 48
        E 120 89 24 40
        E 0 89 35 40
        E 0 99 24 48
        E 120 89 24 40
        E 0 99 26 48
        E 0 99 24 48
        E 240 89 26 40
        E 0 89 24 40
        E 0 99 24 48
        E 0 99 35 48
        E 240 89 24 40
        E 0 89 35 40
        E 0 99 26 48
        E 0 99 24 48
        E 240 89 26 40
        E 0 89 24 40
        E 0 99 24 48
        E 0 99 35 48
        E 120 89 24 40
        E 0 89 35 40
        E 0 99 24 48
        E 120 89 24 40
        E 0 99 26 48
        E 0 99 24 48
        E 0 99 35 48
        E 240 89 26 40
        E 0 89 24 40
        E 0 89 35 40
        E 0 99 24 48
        E 240 89 24 40
        E 0 99 26 48
        E 0 99 24 48
        E 0 99 35 48
        E 240 89 26 40
        E 0 89 24 40
        E 0 89 35 40
        E 0 99 24 48
        E 0 99 35 48
        E 120 89 24 40
        E 0 89 35 40
        E 0 99 24 48
        E 120 89 24 40
        E 0 99 26 48
        E 0 99 24 48
        E 0 99 35 48
        E 240 89 26 40
        E 0 89 24 40
        E 0 89 35 40
        E 0 99 24 48
        E 0 99 35 48
        E 240 89 24 40
        E 0 89 35 40
        E 0 99 26 48
        E 0 99 24 48
        E 240 89 26 40
        E 0 89 24 40
        E 0 99 24 48
        E 0 99 35 48
        E 120 89 24 40
        E 0 89 35 40
        E 0 99 24 48
        E 120 89 24 40
        E 0 99 26 48
        E 0 99 24 48
        E 0 99 35 48
        E 240 89 26 40
        E 0 89 24 40
        E 0 89 35 40
        E 0 99 2e 48
        E 0 99 26 48
        E 0 99 24 48
        E 120 89 2e 40
        E 0 89 26 40
        E 0 89 24 40
        E 0 99 24 48
        E 120 89 24 40
        E 0 99 24 48
        E 120 89 24 40
        E 0 99 24 48
        E 120 89 24 40
        E 0 99 31 48
        E 0 99 26 48
        E 0 99 24 48
        E 120 89 31 40
        E 0 89 26 40
        E 0 89 24 40
        E 0 99 24 48
        E 120 89 24 40
        E 0 99 31 48
        E 0 99 26 48
        E 0 99 24 48
        E 120 89 31 40
        E 0 89 26 40
        E 0 89 24 40
        E 0 99 26 48
        E 0 99 24 48
        E 120 89 26 40
        E 0 89 24 40
        E 0 99 26 60
        E 0 99 2f 60
        E 0 99 2a 60
        E 480 89 26 40
        E 0 89 2f 40
        E 0 89 2a 40
        E 0 99 2d 60
        E 0 99 2a 60
        E 120 89 2d 40
        E 0 89 2a 40
        E 0 99 2d 60
        E 120 89 2d 40
        E 0 99 2d 60
        E 120 89 2d 40
        E 0 99 2d 60
        E 120 89 2d 40
        E 0 99 2f 60
        E 0 99 24 60
        E 0 99 2a 60
        E 480 89 2f 40
        E 0 89 24 40
        E 0 89 2a 40
        E 0 99 2d 60
        E 0 99 2a 60
        E 120 89 2d 40
        E 0 89 2a 40
        E 0 99 2d 60
        E 120 89 2d 40
        E 0 99 2d 60
        E 120 89 2d 40
        E 0 99 2d 60
        E 120 89 2d 40
        E 0 99 26 60
        E 0 99 2f 60
        E 0 99 2a 60
        E 480 89 26 40
        E 0 89 2f 40
        E 0 89 2a 40
        E 0 99 2d 60
        E 0 99 2a 60
        E 120 89 2d 40
        E 0 89 2a 40
        E 0 99 2d 60
        E 120 89 2d 40
        E 0 99 2d 60
        E 120 89 2d 40
        E 0 99 2d 60
        E 120 89 2d 40
        E 0 99 2f 60
        E 0 99 24 60
        E 0 99 2a 60
        E 480 89 2f 40
        E 0 89 24 40
        E 0 89 2a 40
        E 0 99 2d 60
        E 0 99 2a 60
        E 120 89 2d 40
        E 0 89 2a 40
        E 0 99 2d 60
        E 120 89 2d 40
        E 0 99 2d 60
        E 120 89 2d 40
        E 0 99 2d 60
        E 120 89 2d 40
        E 0 99 26 60
        E 0 99 2f 60
        E 0 99 2a 60
        E 480 89 26 40
        E 0 89 2f 40
        E 0 89 2a 40
        E 0 99 2d 60
        E 0 99 2a 60
        E 120 89 2d 40
        E 0 89 2a 40
        E 0 99 2d 60
        E 120 89 2d 40
        E 0 99 2d 60
        E 120 89 2d 40
        E 0 99 2d 60
        E 120 89 2d 40
        E 0 99 2f 60
        E 0 99 24 60
        E 0 99 2a 60
        E 480 89 2f 40
        E 0 89 24 40
        E 0 89 2a 40
        E 0 99 2d 60
        E 0 99 2a 60
        E 120 89 2d 40
        E 0 89 2a 40
        E 0 99 2d 60
        E 120 89 2d 40
        E 0 99 2d 60
        E 120 89 2d 40
        E 0 99 2d 60
        E 120 89 2d 40
        E 0 99 26 60
        E 0 99 2f 60
        E 0 99 2a 60
        E 480 89 26 40
        E 0 89 2f 40
        E 0 89 2a 40
        E 0 99 2d 60
        E 0 99 2a 60
        E 120 89 2d 40
        E 0 89 2a 40
        E 0 99 2d 60
        E 120 89 2d 40
        E 0 99 2d 60
        E 120 89 2d 40
        E 0 99 2d 60
        E 120 89 2d 40
        E 0 99 2f 60
        E 0 99 24 60
        E 0 99 2a 60
        E 480 89 2f 40
        E 0 89 24 40
        E 0 89 2a 40
        E 0 99 2d 60
        E 0 99 2a 60
        E 120 89 2d 40
        E 0 89 2a 40
        E 0 99 2d 60
        E 120 89 2d 40
        E 0 99 2d 60
        E 120 89 2d 40
        E 0 99 2d 60
        E 120 89 2d 40
        E 0 99 26 60
        E 0 99 2f 60
        E 0 99 2a 60
        E 480 89 26 40
        E 0 89 2f 40
        E 0 89 2a 40
        E 0 99 2d 60
        E 0 99 2a 60
        E 120 89 2d 40
        E 0 89 2a 40
        E 0 99 2d 60
        E 120 89 2d 40
        E 0 99 2d 60
        E 120 89 2d 40
        E 0 99 2d 60
        E 120 89 2d 40
        E 0 99 2f 60
        E 0 99 24 60
        E 0 99 2a 60
        E 480 89 2f 40
        E 0 89 24 40
        E 0 89 2a 40
        E 0 99 2d 60
        E 0 99 2a 60
        E 120 89 2d 40
        E 0 89 2a 40
        E 0 99 2d 60
        E 120 89 2d 40
        E 0 99 2d 60
        E 120 89 2d 40
        E 0 99 2d 60
        E 120 89 2d 40
        E 0 99 26 60
        E 0 99 2f 60
        E 0 99 2a 60
        E 480 89 26 40
        E 0 89 2f 40
        E 0 89 2a 40
        E 0 99 2d 60
        E 0 99 2a 60
        E 120 89 2d 40
        E 0 89 2a 40
        E 0 99 2d 60
        E 120 89 2d 40
        E 0 99 2d 60
        E 120 89 2d 40
        E 0 99 2d 60
        E 120 89 2d 40
        E 0 99 2f 60
        E 0 99 24 60
        E 0 99 2a 60
        E 480 89 2f 40
        E 0 89 24 40
        E 0 89 2a 40
        E 0 99 2d 60
        E 0 99 2a 60
        E 120 89 2d 40
        E 0 89 2a 40
        E 0 99 2d 60
        E 120 89 2d 40
        E 0 99 2d 60
        E 120 89 2d 40
        E 0 99 2d 60
        E 120 89 2d 40
        E 0 99 26 60
        E 0 99 2f 60
        E 0 99 2a 60
        E 480 89 26 40
        E 0 89 2f 40
        E 0 89 2a 40
        E 0 99 2d 60
        E 0 99 2a 60
        E 120 89 2d 40
        E 0 89 2a 40
        E 0 99 2d 60
        E 120 89 2d 40
        E 0 99 2d 60
        E 120 89 2d 40
        E 0 99 2d 60
        E 120 89 2d 40
        E 0 99 2f 60
        E 0 99 24 60
        E 0 99 2a 60
        E 480 89 2f 40
        E 0 89 24 40
        E 0 89 2a 40
        E 0 99 2d 60
        E 0 99 2a 60
        E 120 89 2d 40
        E 0 89 2a 40
        E 0 99 2d 60
        E 120 89 2d 40
        E 0 99 2d 60
        E 120 89 2d 40
        E 0 99 2d 60
        E 120 89 2d 40
        E 0 99 26 60
        E 0 99 2f 60
        E 0 99 2a 60
        E 480 89 26 40
        E 0 89 2f 40
        E 0 89 2a 40
        E 0 99 2d 60
        E 0 99 2a 60
        E 120 89 2d 40
        E 0 89 2a 40
        E 0 99 2d 60
        E 120 89 2d 40
        E 0 99 2d 60
        E 120 89 2d 40
        E 0 99 2d 60
        E 120 89 2d 40
        E 0 99 24 50
        E 0 99 26 50
        E 120 89 24 40
        E 0 89 26 40
        E 0 99 24 50
        E 0 99 26 50
        E 120 89 24 40
        E 0 89 26 40
        E 0 99 24 50
        E 0 99 26 50
        E 120 89 24 40
        E 0 89 26 40
        E 0 99 24 50
        E 0 99 26 50
        E 120 89 24 40
        E 0 89 26 40
        E 0 99 24 50
        E 0 99 31 50
        E 120 89 24 40
        E 0 89 31 40
        E 0 99 24 50
        E 0 99 31 50
        E 120 89 24 40
        E 0 89 31 40
        E 0 99 24 50
        E 0 99 39 50
        E 120 89 24 40
        E 0 89 39 40
        E 0 99 24 50
        E 0 99 39 50
        E 120 89 24 40
        E 0 89 39 40
        E 0 99 31 50
        E 0 99 26 50
        E 0 99 24 50
        E 120 89 31 40
        E 0 89 26 40
        E 0 89 24 40
        E 0 99 24 50
        E 120 89 24 40
        E 0 99 24 50
        E 120 89 24 40
        E 0 99 24 50
        E 120 89 24 40
        E 0 99 2e 50
        E 0 99 26 50
        E 0 99 24 50
        E 120 89 2e 40
        E 0 89 26 40
        E 0 89 24 40
        E 0 99 24 50
        E 120 89 24 40
        E 0 99 24 50
        E 120 89 24 40
        E 0 99 24 50
        E 120 89 24 40
        E 0 99 2e 50
        E 0 99 26 50
        E 0 99 24 50
        E 120 89 2e 40
        E 0 89 26 40
        E 0 89 24 40
        E 0 99 24 50
        E 120 89 24 40
        E 0 99 24 50
        E 120 89 24 40
        E 0 99 24 50
        E 120 89 24 40
        E 0 99 2e 50
        E 0 99 26 50
        E 0 99 24 50
        E 120 89 2e 40
        E 0 89 26 40
        E 0 89 24 40
        E 0 99 24 50
        E 120 89 24 40
        E 0 99 24 50
        E 120 89 24 40
        E 0 99 24 50
        E 120 89 24 40
        E 0 99 31 50
        E 0 99 26 50
        E 0 99 24 50
        E 120 89 31 40
        E 0 89 26 40
        E 0 89 24 40
        E 0 99 24 50
        E 120 89 24 40
        E 0 99 24 50
        E 0 99 39 50
        E 120 89 24 40
        E 0 89 39 40
        E 0 99 24 50
        E 120 89 24 40
        E 0 99 2e 50
        E 0 99 26 50
        E 0 99 24 50
        E 120 89 2e 40
        E 0 89 26 40
        E 0 89 24 40
        E 0 99 24 50
        E 120 89 24 40
        E 0 99 24 50
        E 120 89 24 40
        E 0 99 24 50
        E 120 89 24 40
        E 0 99 26 50
        E 0 99 24 50
        E 0 99 39 50
        E 120 89 26 40
        E 0 89 24 40
        E 0 89 39 40
        E 0 99 24 50
        E 120 89 24 40
        E 0 99 24 50
        E 120 89 24 40
        E 0 99 24 50
        E 120 89 24 40
        E 0 99 2e 50
        E 0 99 26 50
        E 0 99 24 50
        E 120 89 2e 40
        E 0 89 26 40
        E 0 89 24 40
        E 0 99 24 50
        E 120 89 24 40
        E 0 99 24 50
        E 120 89 24 40
        E 0 99 24 50
        E 120 89 24 40
        E 0 99 31 50
        E 0 99 26 50
        E 0 99 24 50
        E 120 89 31 40
        E 0 89 26 40
        E 0 89 24 40
        E 0 99 24 50
        E 120 89 24 40
        E 0 99 24 50
        E 120 89 24 40
        E 0 99 24 50
        E 120 89 24 40
        E 0 99 2e 50
        E 0 99 26 50
        E 0 99 24 50
        E 120 89 2e 40
        E 0 89 26 40
        E 0 89 24 40
        E 0 99 24 50
        E 120 89 24 40
        E 0 99 24 50
        E 120 89 24 40
        E 0 99 24 50
        E 120 89 24 40
        E 0 99 2e 50
        E 0 99 26 50
        E 0 99 24 50
        E 120 89 2e 40
        E 0 89 26 40
        E 0 89 24 40
        E 0 99 24 50
        E 120 89 24 40
        E 0 99 24 50
        E 120 89 24 40
        E 0 99 24 50
        E 120 89 24 40
        E 0 99 2e 50
        E 0 99 26 50
        E 0 99 24 50
        E 120 89 2e 40
        E 0 89 26 40
        E 0 89 24 40
        E 0 99 24 50
        E 120 89 24 40
        E 0 99 24 50
        E 120 89 24 40
        E 0 99 24 50
        E 120 89 24 40
        E 0 99 26 50
        E 0 99 24 50
        E 0 99 39 50
        E 120 89 26 40
        E 0 89 24 40
        E 0 89 39 40
        E 0 99 24 50
        E 120 89 24 40
        E 0 99 24 50
        E 120 89 24 40
        E 0 99 24 50
        E 120 89 24 40
        E 0 99 2e 50
        E 0 99 26 50
        E 0 99 24 50
        E 120 89 2e 40
        E 0 89 26 40
        E 0 89 24 40
        E 0 99 24 50
        E 0 99 26 50
        E 120 89 24 40
        E 0 89 26 40
        E 0 99 24 50
        E 0 99 26 50
        E 120 89 24 40
        E 0 89 26 40
        E 0 99 24 50
        E 0 99 26 50
        E 120 89 24 40
        E 0 89 26 40
        E 0 99 24 50
        E 0 99 2b 50
        E 0 99 2d 50
        E 120 89 24 40
        E 0 89 2b 40
        E 0 89 2d 40
        E 0 99 24 50
        E 0 99 2d 50
        E 120 89 24 40
        E 0 89 2d 40
        E 0 99 24 50
        E 0 99 2d 50
        E 120 89 24 40
        E 0 89 2d 40
        E 0 99 24 50
        E 0 99 2d 50
        E 120 89 24 40
        E 0 89 2d 40
        E 0 99 30 50
        E 0 99 2f 50
        E 0 99 24 50
        E 120 89 30 40
        E 0 89 2f 40
        E 0 89 24 40
        E 0 99 24 50
        E 0 99 30 50
        E 120 89 24 40
        E 0 89 30 40
        E 0 99 30 50
        E 0 99 24 50
        E 120 89 30 40
        E 0 89 24 40
        E 0 99 30 50
        E 0 99 24 50
        E 120 89 30 40
        E 0 89 24 40
        E 0 99 31 50
        E 0 99 26 50
        E 0 99 24 50
        E 120 89 31 40
        E 0 89 26 40
        E 0 89 24 40
        E 0 99 24 50
        E 120 89 24 40
        E 0 99 24 50
        E 120 89 24 40
        E 0 99 24 50
        E 120 89 24 40
        E 0 99 2e 50
        E 0 99 26 50
        E 0 99 24 50
        E 120 89 2e 40
        E 0 89 26 40
        E 0 89 24 40
        E 0 99 24 50
        E 120 89 24 40
        E 0 99 24 50
        E 120 89 24 40
        E 0 99 24 50
        E 120 89 24 40
        E 0 99 2e 50
        E 0 99 26 50
        E 0 99 24 50
        E 120 89 2e 40
        E 0 89 26 40
        E 0 89 24 40
        E 0 99 24 50
        E 120 89 24 40
        E 0 99 24 50
        E 120 89 24 40
        E 0 99 24 50
        E 120 89 24 40
        E 0 99 2e 50
        E 0 99 26 50
        E 0 99 24 50
        E 120 89 2e 40
        E 0 89 26 40
        E 0 89 24 40
        E 0 99 24 50
        E 120 89 24 40
        E 0 99 24 50
        E 120 89 24 40
        E 0 99 24 50
        E 120 89 24 40
        E 0 99 31 50
        E 0 99 26 50
        E 0 99 24 50
        E 120 89 31 40
        E 0 89 26 40
        E 0 89 24 40
        E 0 99 24 50
        E 120 89 24 40
        E 0 99 24 50
        E 0 99 39 50
        E 120 89 24 40
        E 0 89 39 40
        E 0 99 24 50
        E 120 89 24 40
        E 0 99 2e 50
        E 0 99 26 50
        E 0 99 24 50
        E 120 89 2e 40
        E 0 89 26 40
        E 0 89 24 40
        E 0 99 24 50
        E 120 89 24 40
        E 0 99 24 50
        E 120 89 24 40
        E 0 99 24 50
        E 120 89 24 40
        E 0 99 26 50
        E 0 99 24 50
        E 0 99 39 50
        E 120 89 26 40
        E 0 89 24 40
        E 0 89 39 40
        E 0 99 24 50
        E 120 89 24 40
        E 0 99 24 50
        E 120 89 24 40
        E 0 99 24 50
        E 120 89 24 40
        E 0 99 2e 50
        E 0 99 26 50
        E 0 99 24 50
        E 120 89 2e 40
        E 0 89 26 40
        E 0 89 24 40
        E 0 99 24 50
        E 120 89 24 40
        E 0 99 24 50
        E 120 89 24 40
        E 0 99 24 50
        E 120 89 24 40
        E 0 99 31 50
        E 0 99 26 50
        E 0 99 24 50
        E 120 89 31 40
        E 0 89 26 40
        E 0 89 24 40
        E 0 99 24 50
        E 120 89 24 40
        E 0 99 24 50
        E 120 89 24 40
        E 0 99 24 50
        E 120 89 24 40
        E 0 99 2e 50
        E 0 99 26 50
        E 0 99 24 50
        E 120 89 2e 40
        E 0 89 26 40
        E 0 89 24 40
        E 0 99 24 50
        E 120 89 24 40
        E 0 99 24 50
        E 120 89 24 40
        E 0 99 24 50
        E 120 89 24 40
        E 0 99 2e 50
        E 0 99 26 50
        E 0 99 24 50
        E 120 89 2e 40
        E 0 89 26 40
        E 0 89 24 40
        E 0 99 24 50
        E 120 89 24 40
        E 0 99 24 50
        E 120 89 24 40
        E 0 99 24 50
        E 120 89 24 40
        E 0 99 2e 50
        E 0 99 26 50
        E 0 99 24 50
        E 120 89 2e 40
        E 0 89 26 40
        E 0 89 24 40
        E 0 99 24 50
        E 120 89 24 40
        E 0 99 24 50
        E 120 89 24 40
        E 0 99 24 50
        E 120 89 24 40
        E 0 99 26 50
        E 0 99 24 50
        E 0 99 39 50
        E 120 89 26 40
        E 0 89 24 40
        E 0 89 39 40
        E 0 99 24 50
        E 120 89 24 40
        E 0 99 24 50
        E 120 89 24 40
        E 0 99 24 50
        E 120 89 24 40
        E 0 99 2e 50
        E 0 99 26 50
        E 0 99 24 50
        E 120 89 2e 40
        E 0 89 26 40
        E 0 89 24 40
        E 0 99 24 50
        E 0 99 26 50
        E 120 89 24 40
        E 0 89 26 40
        E 0 99 24 50
        E 0 99 26 50
        E 120 89 24 40
        E 0 89 26 40
        E 0 99 24 50
        E 0 99 26 50
        E 120 89 24 40
        E 0 89 26 40
        E 0 99 24 50
        E 0 99 2b 50
        E 0 99 2d 50
        E 120 89 24 40
        E 0 89 2b 40
        E 0 89 2d 40
        E 0 99 24 50
        E 0 99 2d 50
        E 120 89 24 40
        E 0 89 2d 40
        E 0 99 24 50
        E 0 99 2d 50
        E 120 89 24 40
        E 0 89 2d 40
        E 0 99 24 50
        E 0 99 2d 50
        E 120 89 24 40
        E 0 89 2d 40
        E 0 99 30 50
        E 0 99 2f 50
        E 0 99 24 50
        E 120 89 30 40
        E 0 89 2f 40
        E 0 89 24 40
        E 0 99 24 50
        E 0 99 30 50
        E 120 89 24 40
        E 0 89 30 40
        E 0 99 30 50
        E 0 99 24 50
        E 120 89 30 40
        E 0 89 24 40
        E 0 99 30 50
        E 0 99 24 50
        E 120 89 30 40
        E 0 89 24 40
        E 0 99 31 50
        E 0 99 26 50
        E 0 99 24 50
        E 120 89 31 40
        E 0 89 26 40
        E 0 89 24 40
        E 0 99 24 50
        E 120 89 24 40
        E 0 99 24 50
        E 120 89 24 40
        E 0 99 24 50
        E 120 89 24 40
        E 0 99 2e 50
        E 0 99 26 50
        E 0 99 24 50
        E 120 89 2e 40
        E 0 89 26 40
        E 0 89 24 40
        E 0 99 24 50
        E 120 89 24 40
        E 0 99 24 50
        E 120 89 24 40
        E 0 99 24 50
        E 120 89 24 40
        E 0 99 2e 50
        E 0 99 26 50
        E 0 99 24 50
        E 120 89 2e 40
        E 0 89 26 40
        E 0 89 24 40
        E 0 99 24 50
        E 120 89 24 40
        E 0 99 24 50
        E 120 89 24 40
        E 0 99 24 50
        E 120 89 24 40
        E 0 99 2e 50
        E 0 99 26 50
        E 0 99 24 50
        E 120 89 2e 40
        E 0 89 26 40
        E 0 89 24 40
        E 0 99 24 50
        E 120 89 24 40
        E 0 99 24 50
        E 120 89 24 40
        E 0 99 24 50
        E 120 89 24 40
        E 0 99 31 50
        E 0 99 26 50
        E 0 99 24 50
        E 120 89 31 40
        E 0 89 26 40
        E 0 89 24 40
        E 0 99 24 50
        E 120 89 24 40
        E 0 99 24 50
        E 0 99 39 50
        E 120 89 24 40
        E 0 89 39 40
        E 0 99 24 50
        E 120 89 24 40
        E 0 99 2e 50
        E 0 99 26 50
        E 0 99 24 50
        E 120 89 2e 40
        E 0 89 26 40
        E 0 89 24 40
        E 0 99 24 50
        E 120 89 24 40
        E 0 99 24 50
        E 120 89 24 40
        E 0 99 24 50
        E 120 89 24 40
        E 0 99 26 50
        E 0 99 24 50
        E 0 99 39 50
        E 120 89 26 40
        E 0 89 24 40
        E 0 89 39 40
        E 0 99 24 50
        E 120 89 24 40
        E 0 99 24 50
        E 120 89 24 40
        E 0 99 24 50
        E 120 89 24 40
        E 0 99 2e 50
        E 0 99 26 50
        E 0 99 24 50
        E 120 89 2e 40
        E 0 89 26 40
        E 0 89 24 40
        E 0 99 24 50
        E 120 89 24 40
        E 0 99 24 50
        E 120 89 24 40
        E 0 99 24 50
        E 120 89 24 40
        E 0 99 31 50
        E 0 99 26 50
        E 0 99 24 50
        E 120 89 31 40
        E 0 89 26 40
        E 0 89 24 40
        E 0 99 24 50
        E 120 89 24 40
        E 0 99 24 50
        E 120 89 24 40
        E 0 99 24 50
        E 120 89 24 40
        E 0 99 2e 50
        E 0 99 26 50
        E 0 99 24 50
        E 120 89 2e 40
        E 0 89 26 40
        E 0 89 24 40
        E 0 99 24 50
        E 120 89 24 40
        E 0 99 24 50
        E 120 89 24 40
        E 0 99 24 50
        E 120 89 24 40
        E 0 99 2e 50
        E 0 99 26 50
        E 0 99 24 50
        E 120 89 2e 40
        E 0 89 26 40
        E 0 89 24 40
        E 0 99 24 50
        E 120 89 24 40
        E 0 99 24 50
        E 120 89 24 40
        E 0 99 24 50
        E 120 89 24 40
        E 0 99 2e 50
        E 0 99 26 50
        E 0 99 24 50
        E 120 89 2e 40
        E 0 89 26 40
        E 0 89 24 40
        E 0 99 24 50
        E 120 89 24 40
        E 0 99 24 50
        E 120 89 24 40
        E 0 99 24 50
        E 120 89 24 40
        E 0 99 26 50
        E 0 99 24 50
        E 0 99 39 50
        E 120 89 26 40
        E 0 89 24 40
        E 0 89 39 40
        E 0 99 24 50
        E 120 89 24 40
        E 0 99 24 50
        E 120 89 24 40
        E 0 99 24 50
        E 120 89 24 40
        E 0 99 2e 50
        E 0 99 26 50
        E 0 99 24 50
        E 120 89 2e 40
        E 0 89 26 40
        E 0 89 24 40
        E 0 99 24 50
        E 0 99 26 50
        E 120 89 24 40
        E 0 89 26 40
        E 0 99 24 50
        E 0 99 26 50
        E 120 89 24 40
        E 0 89 26 40
        E 0 99 24 50
        E 0 99 26 50
        E 120 89 24 40
        E 0 89 26 40
        E 0 99 24 50
        E 0 99 2b 50
        E 0 99 2d 50
        E 120 89 24 40
        E 0 89 2b 40
        E 0 89 2d 40
        E 0 99 24 50
        E 0 99 2d 50
        E 120 89 24 40
        E 0 89 2d 40
        E 0 99 24 50
        E 0 99 2d 50
        E 120 89 24 40
        E 0 89 2d 40
        E 0 99 24 50
        E 0 99 2d 50
        E 120 89 24 40
        E 0 89 2d 40
        E 0 99 30 50
        E 0 99 2f 50
        E 0 99 24 50
        E 120 89 30 40
        E 0 89 2f 40
        E 0 89 24 40
        E 0 99 24 50
        E 0 99 30 50
        E 120 89 24 40
        E 0 89 30 40
        E 0 99 30 50
        E 0 99 24 50
        E 120 89 30 40
        E 0 89 24 40
        E 0 99 30 50
        E 0 99 24 50
        E 120 89 30 40
        E 0 89 24 40
        E 0 99 31 50
        E 0 99 26 50
        E 0 99 24 50
        E 120 89 31 40
        E 0 89 26 40
        E 0 89 24 40
        E 0 99 24 50
        E 120 89 24 40
        E 0 99 24 50
        E 120 89 24 40
        E 0 99 24 50
        E 120 89 24 40
        E 0 99 2e 50
        E 0 99 26 50
        E 0 99 24 50
        E 120 89 2e 40
        E 0 89 26 40
        E 0 89 24 40
        E 0 99 24 50
        E 120 89 24 40
        E 0 99 24 50
        E 120 89 24 40
        E 0 99 24 50
        E 120 89 24 40
        E 0 99 2e 50
        E 0 99 26 50
        E 0 99 24 50
        E 120 89 2e 40
        E 0 89 26 40
        E 0 89 24 40
        E 0 99 24 50
        E 120 89 24 40
        E 0 99 24 50
        E 120 89 24 40
        E 0 99 24 50
        E 120 89 24 40
        E 0 99 2e 50
        E 0 99 26 50
        E 0 99 24 50
        E 120 89 2e 40
        E 0 89 26 40
        E 0 89 24 40
        E 0 99 24 50
        E 120 89 24 40
        E 0 99 24 50
        E 120 89 24 40
        E 0 99 24 50
        E 120 89 24 40
        E 0 99 31 50
        E 0 99 26 50
        E 0 99 24 50
        E 120 89 31 40
        E 0 89 26 40
        E 0 89 24 40
        E 0 99 24 50
        E 120 89 24 40
        E 0 99 24 50
        E 0 99 39 50
        E 120 89 24 40
        E 0 89 39 40
        E 0 99 24 50
        E 120 89 24 40
        E 0 99 2e 50
        E 0 99 26 50
        E 0 99 24 50
        E 120 89 2e 40
        E 0 89 26 40
        E 0 89 24 40
        E 0 99 24 50
        E 120 89 24 40
        E 0 99 24 50
        E 120 89 24 40
        E 0 99 24 50
        E 120 89 24 40
        E 0 99 26 50
        E 0 99 24 50
        E 0 99 39 50
        E 120 89 26 40
        E 0 89 24 40
        E 0 89 39 40
        E 0 99 24 50
        E 120 89 24 40
        E 0 99 24 50
        E 120 89 24 40
        E 0 99 24 50
        E 120 89 24 40
        E 0 99 2e 50
        E 0 99 26 50
        E 0 99 24 50
        E 120 89 2e 40
        E 0 89 26 40
        E 0 89 24 40
        E 0 99 24 50
        E 120 89 24 40
        E 0 99 24 50
        E 120 89 24 40
        E 0 99 24 50
        E 120 89 24 40
        E 0 99 31 50
        E 0 99 26 50
        E 0 99 24 50
        E 120 89 31 40
        E 0 89 26 40
        E 0 89 24 40
        E 0 99 24 50
        E 120 89 24 40
        E 0 99 24 50
        E 120 89 24 40
        E 0 99 24 50
        E 120 89 24 40
        E 0 99 2e 50
        E 0 99 26 50
        E 0 99 24 50
        E 120 89 2e 40
        E 0 89 26 40
        E 0 89 24 40
        E 0 99 24 50
        E 120 89 24 40
        E 0 99 24 50
        E 120 89 24 40
        E 0 99 24 50
        E 120 89 24 40
        E 0 99 2e 50
        E 0 99 26 50
        E 0 99 24 50
        E 120 89 2e 40
        E 0 89 26 40
        E 0 89 24 40
        E 0 99 24 50
        E 120 89 24 40
        E 0 99 24 50
        E 120 89 24 40
        E 0 99 24 50
        E 120 89 24 40
        E 0 99 2e 50
        E 0 99 26 50
        E 0 99 24 50
        E 120 89 2e 40
        E 0 89 26 40
        E 0 89 24 40
        E 0 99 24 50
        E 120 89 24 40
        E 0 99 24 50
        E 120 89 24 40
        E 0 99 24 50
        E 120 89 24 40
        E 0 99 26 50
        E 0 99 24 50
        E 0 99 39 50
        E 120 89 26 40
        E 0 89 24 40
        E 0 89 39 40
        E 0 99 24 50
        E 120 89 24 40
        E 0 99 24 50
        E 120 89 24 40
        E 0 99 24 50
        E 120 89 24 40
        E 0 99 2e 50
        E 0 99 26 50
        E 0 99 24 50
        E 120 89 2e 40
        E 0 89 26 40
        E 0 89 24 40
        E 0 99 24 50
        E 0 99 26 50
        E 120 89 24 40
        E 0 89 26 40
        E 0 99 24 50
        E 0 99 26 50
        E 120 89 24 40
        E 0 89 26 40
        E 0 99 24 50
        E 0 99 26 50
        E 120 89 24 40
        E 0 89 26 40
        E 0 99 24 50
        E 0 99 2b 50
        E 0 99 2d 50
        E 120 89 24 40
        E 0 89 2b 40
        E 0 89 2d 40
        E 0 99 24 50
        E 0 99 2d 50
        E 120 89 24 40
        E 0 89 2d 40
        E 0 99 24 50
        E 0 99 2d 50
        E 120 89 24 40
        E 0 89 2d 40
        E 0 99 24 50
        E 0 99 2d 50
        E 120 89 24 40
        E 0 89 2d 40
        E 0 99 30 50
        E 0 99 2f 50
        E 0 99 24 50
        E 120 89 30 40
        E 0 89 2f 40
        E 0 89 24 40
        E 0 99 24 50
        E 0 99 30 50
        E 120 89 24 40
        E 0 89 30 40
        E 0 99 30 50
        E 0 99 24 50
        E 120 89 30 40
        E 0 89 24 40
        E 0 99 30 50
        E 0 99 24 50
        E 120 89 30 40
        E 0 89 24 40
        E 0 99 39 48
        E 0 99 26 48
        E 0 99 24 48
        E 120 89 39 40
        E 0 89 26 40
        E 0 89 24 40
        E 0 99 24 48
        E 120 89 24 40
        E 0 99 24 48
        E 120 89 24 40
        E 0 99 24 48
        E 120 89 24 40
        E 0 99 2e 48
        E 0 99 26 48
        E 0 99 24 48
        E 120 89 2e 40
        E 0 89 26 40
        E 0 89 24 40
        E 0 99 24 48
        E 120 89 24 40
        E 0 99 24 48
        E 120 89 24 40
        E 0 99 24 48
        E 120 89 24 40
        E 0 99 2e 48
        E 0 99 26 48
        E 0 99 24 48
        E 120 89 2e 40
        E 0 89 26 40
        E 0 89 24 40
        E 0 99 24 48
        E 120 89 24 40
        E 0 99 24 48
        E 120 89 24 40
        E 0 99 24 48
        E 120 89 24 40
        E 0 99 2e 48
        E 0 99 26 48
        E 0 99 24 48
        E 120 89 2e 40
        E 0 89 26 40
        E 0 89 24 40
        E 0 99 24 48
        E 120 89 24 40
        E 0 99 24 48
        E 120 89 24 40
        E 0 99 24 48
        E 120 89 24 40
        E 0 99 2e 48
        E 0 99 26 48
        E 0 99 24 48
        E 120 89 2e 40
        E 0 89 26 40
        E 0 89 24 40
        E 0 99 24 48
        E 120 89 24 40
        E 0 99 24 48
        E 120 89 24 40
        E 0 99 24 48
        E 120 89 24 40
        E 0 99 2e 48
        E 0 99 26 48
        E 0 99 24 48
        E 120 89 2e 40
        E 0 89 26 40
        E 0 89 24 40
        E 0 99 24 48
        E 120 89 24 40
        E 0 99 24 48
        E 120 89 24 40
        E 0 99 24 48
        E 120 89 24 40
        E 0 99 2e 48
        E 0 99 26 48
        E 0 99 24 48
        E 120 89 2e 40
        E 0 89 26 40
        E 0 89 24 40
        E 0 99 24 48
        E 120 89 24 40
        E 0 99 24 48
        E 120 89 24 40
        E 0 99 24 48
        E 120 89 24 40
        E 0 99 2e 48
        E 0 99 26 48
        E 0 99 24 48
        E 120 89 2e 40
        E 0 89 26 40
        E 0 89 24 40
        E 0 99 24 48
        E 120 89 24 40
        E 0 99 24 48
        E 120 89 24 40
        E 0 99 24 48
        E 120 89 24 40
        E 0 99 31 48
        E 0 99 26 48
        E 0 99 24 48
        E 120 89 31 40
        E 0 89 26 40
        E 0 89 24 40
        E 0 99 24 48
        E 120 89 24 40
        E 0 99 24 48
        E 120 89 24 40
        E 0 99 24 48
        E 120 89 24 40
        E 0 99 2e 48
        E 0 99 26 48
        E 0 99 24 48
        E 120 89 2e 40
        E 0 89 26 40
        E 0 89 24 40
        E 0 99 24 48
        E 120 89 24 40
        E 0 99 24 48
        E 120 89 24 40
        E 0 99 24 48
        E 120 89 24 40
        E 0 99 2e 48
        E 0 99 26 48
        E 0 99 24 48
        E 120 89 2e 40
        E 0 89 26 40
        E 0 89 24 40
        E 0 99 24 48
        E 120 89 24 40
        E 0 99 24 48
        E 120 89 24 40
        E 0 99 24 48
        E 120 89 24 40
        E 0 99 2e 48
        E 0 99 26 48
        E 0 99 24 48
        E 120 89 2e 40
        E 0 89 26 40
        E 0 89 24 40
        E 0 99 24 48
        E 120 89 24 40
        E 0 99 24 48
        E 120 89 24 40
        E 0 99 24 48
        E 120 89 24 40
        E 0 99 2e 48
        E 0 99 26 48
        E 0 99 24 48
        E 120 89 2e 40
        E 0 89 26 40
        E 0 89 24 40
        E 0 99 24 48
        E 120 89 24 40
        E 0 99 24 48
        E 120 89 24 40
        E 0 99 24 48
        E 120 89 24 40
        E 0 99 2e 48
        E 0 99 26 48
        E 0 99 24 48
        E 120 89 2e 40
        E 0 89 26 40
        E 0 89 24 40
        E 0 99 24 48
        E 120 89 24 40
        E 0 99 24 48
        E 120 89 24 40
        E 0 99 24 48
        E 120 89 24 40
        E 0 99 2e 48
        E 0 99 26 48
        E 0 99 24 48
        E 120 89 2e 40
        E 0 89 26 40
        E 0 89 24 40
        E 0 99 24 48
        E 120 89 24 40
        E 0 99 24 48
        E 120 89 24 40
        E 0 99 24 48
        E 120 89 24 40
        E 0 99 2e 48
        E 0 99 26 48
        E 0 99 24 48
        E 120 89 2e 40
        E 0 89 26 40
        E 0 89 24 40
        E 0 99 24 48
        E 120 89 24 40
        E 0 99 24 48
        E 120 89 24 40
        E 0 99 24 48
        E 120 89 24 40
        E 0 99 39 48
        E 0 99 26 48
        E 0 99 24 48
        E 120 89 39 40
        E 0 89 26 40
        E 0 89 24 40
        E 0 99 24 48
        E 120 89 24 40
        E 0 99 24 48
        E 120 89 24 40
        E 0 99 24 48
        E 120 89 24 40
        E 0 99 2e 48
        E 0 99 26 48
        E 0 99 24 48
        E 120 89 2e 40
        E 0 89 26 40
        E 0 89 24 40
        E 0 99 24 48
        E 120 89 24 40
        E 0 99 24 48
        E 120 89 24 40
        E 0 99 24 48
        E 120 89 24 40
        E 0 99 2e 48
        E 0 99 26 48
        E 0 99 24 48
        E 120 89 2e 40
        E 0 89 26 40
        E 0 89 24 40
        E 0 99 24 48
        E 120 89 24 40
        E 0 99 24 48
        E 120 89 24 40
        E 0 99 24 48
        E 120 89 24 40
        E 0 99 2e 48
        E 0 99 26 48
        E 0 99 24 48
        E 120 89 2e 40
        E 0 89 26 40
        E 0 89 24 40
        E 0 99 24 48
        E 120 89 24 40
        E 0 99 24 48
        E 120 89 24 40
        E 0 99 24 48
        E 120 89 24 40
        E 0 99 2e 48
        E 0 99 26 48
        E 0 99 24 48
        E 120 89 2e 40
        E 0 89 26 40
        E 0 89 24 40
        E 0 99 24 48
        E 120 89 24 40
        E 0 99 24 48
        E 120 89 24 40
        E 0 99 24 48
        E 120 89 24 40
        E 0 99 2e 48
        E 0 99 26 48
        E 0 99 24 48
        E 120 89 2e 40
        E 0 89 26 40
        E 0 89 24 40
        E 0 99 24 48
        E 120 89 24 40
        E 0 99 24 48
        E 120 89 24 40
        E 0 99 24 48
        E 120 89 24 40
        E 0 99 2e 48
        E 0 99 26 48
        E 0 99 24 48
        E 120 89 2e 40
        E 0 89 26 40
        E 0 89 24 40
        E 0 99 24 48
        E 120 89 24 40
        E 0 99 24 48
        E 120 89 24 40
        E 0 99 24 48
        E 120 89 24 40
        E 0 99 2e 48
        E 0 99 26 48
        E 0 99 24 48
        E 120 89 2e 40
        E 0 89 26 40
        E 0 89 24 40
        E 0 99 24 48
        E 120 89 24 40
        E 0 99 24 48
        E 120 89 24 40
        E 0 99 24 48
        E 120 89 24 40
        E 0 99 31 48
        E 0 99 26 48
        E 0 99 24 48
        E 120 89 31 40
        E 0 89 26 40
        E 0 89 24 40
        E 0 99 24 48
        E 120 89 24 40
        E 0 99 24 48
        E 120 89 24 40
        E 0 99 24 48
        E 120 89 24 40
        E 0 99 2e 48
        E 0 99 26 48
        E 0 99 24 48
        E 120 89 2e 40
        E 0 89 26 40
        E 0 89 24 40
        E 0 99 24 48
        E 120 89 24 40
        E 0 99 24 48
        E 120 89 24 40
        E 0 99 24 48
        E 120 89 24 40
        E 0 99 2e 48
        E 0 99 26 48
        E 0 99 24 48
        E 120 89 2e 40
        E 0 89 26 40
        E 0 89 24 40
        E 0 99 24 48
        E 120 89 24 40
        E 0 99 24 48
        E 120 89 24 40
        E 0 99 24 48
        E 120 89 24 40
        E 0 99 2e 48
        E 0 99 26 48
        E 0 99 24 48
        E 120 89 2e 40
        E 0 89 26 40
        E 0 89 24 40
        E 0 99 24 48
        E 120 89 24 40
        E 0 99 24 48
        E 120 89 24 40
        E 0 99 24 48
        E 120 89 24 40
        E 0 99 2e 48
        E 0 99 26 48
        E 0 99 24 48
        E 120 89 2e 40
        E 0 89 26 40
        E 0 89 24 40
        E 0 99 24 48
        E 120 89 24 40
        E 0 99 24 48
        E 120 89 24 40
        E 0 99 24 48
        E 120 89 24 40
        E 0 99 2e 48
        E 0 99 26 48
        E 0 99 24 48
        E 120 89 2e 40
        E 0 89 26 40
        E 0 89 24 40
        E 0 99 24 48
        E 120 89 24 40
        E 0 99 24 48
        E 120 89 24 40
        E 0 99 24 48
        E 120 89 24 40
        E 0 99 2e 48
        E 0 99 26 48
        E 0 99 24 48
        E 120 89 2e 40
        E 0 89 26 40
        E 0 89 24 40
        E 0 99 24 48
        E 120 89 24 40
        E 0 99 24 48
        E 120 89 24 40
        E 0 99 24 48
        E 120 89 24 40
        E 0 99 2e 48
        E 0 99 26 48
        E 0 99 24 48
        E 120 89 2e 40
        E 0 89 26 40
        E 0 89 24 40
        E 0 99 24 48
        E 120 89 24 40
        E 0 99 24 48
        E 120 89 24 40
        E 0 99 24 48
        E 120 89 24 40
        E 0 99 2e 48
        E 0 99 26 48
        E 0 99 24 48
        E 120 89 2e 40
        E 0 89 26 40
        E 0 89 24 40
        E 0 99 24 48
        E 120 89 24 40
        E 0 99 24 48
        E 120 89 24 40
        E 0 99 24 48
        E 120 89 24 40
        E 0 99 2e 48
        E 0 99 26 48
        E 0 99 24 48
        E 120 89 2e 40
        E 0 89 26 40
        E 0 89 24 40
        E 0 99 24 48
        E 120 89 24 40
        E 0 99 24 48
        E 120 89 24 40
        E 0 99 24 48
        E 120 89 24 40
        E 0 99 24 50
        E 0 99 2b 50
        E 0 99 2d 50
        E 120 89 24 40
        E 0 89 2b 40
        E 0 89 2d 40
        E 0 99 24 50
        E 0 99 2d 50
        E 120 89 24 40
        E 0 89 2d 40
        E 0 99 24 50
        E 0 99 2d 50
        E 120 89 24 40
        E 0 89 2d 40
        E 0 99 24 50
        E 0 99 2d 50
        E 120 89 24 40
        E 0 89 2d 40
        E 0 99 30 50
        E 0 99 2f 50
        E 0 99 24 50
        E 120 89 30 40
        E 0 89 2f 40
        E 0 89 24 40
        E 0 99 24 50
        E 0 99 30 50
        E 120 89 24 40
        E 0 89 30 40
        E 0 99 30 50
        E 0 99 24 50
        E 120 89 30 40
        E 0 89 24 40
        E 0 99 30 50
        E 0 99 24 50
        E 120 89 30 40
        E 0 89 24 40
        E 0 99 31 50
        E 0 99 24 50
        E 240 89 31 40
        E 0 89 24 40
        E 0 99 33 50
        E 0 99 26 50
        E 120 89 33 40
        E 0 89 26 40
        E 0 99 24 50
        E 120 89 24 40
        E 0 99 33 50
        E 120 89 33 40
        E 0 99 24 50
        E 120 89 24 40
        E 0 99 33 50
        E 0 99 26 50
        E 240 89 33 40
        E 0 89 26 40
        E 0 99 33 50
        E 0 99 24 50
        E 240 89 33 40
        E 0 89 24 40
        E 0 99 33 50
        E 0 99 26 50
        E 120 89 33 40
        E 0 89 26 40
        E 0 99 24 50
        E 120 89 24 40
        E 0 99 33 50
        E 120 89 33 40
        E 0 99 24 50
        E 120 89 24 40
        E 0 99 33 50
        E 0 99 26 50
        E 240 89 33 40
        E 0 89 26 40
        E 0 99 31 50
        E 0 99 24 50
        E 240 89 31 40
        E 0 89 24 40
        E 0 99 33 50
        E 0 99 26 50
        E 120 89 33 40
        E 0 89 26 40
        E 0 99 24 50
        E 120 89 24 40
        E 0 99 33 50
        E 120 89 33 40
        E 0 99 24 50
        E 120 89 24 40
        E 0 99 33 50
        E 0 99 26 50
        E 240 89 33 40
        E 0 89 26 40
        E 0 99 33 50
        E 0 99 24 50
        E 240 89 33 40
        E 0 89 24 40
        E 0 99 33 50
        E 0 99 26 50
        E 120 89 33 40
        E 0 89 26 40
        E 0 99 24 50
        E 120 89 24 40
        E 0 99 33 50
        E 120 89 33 40
        E 0 99 24 50
        E 120 89 24 40
        E 0 99 33 50
        E 0 99 26 50
        E 240 89 33 40
        E 0 89 26 40
        E 0 99 31 50
        E 0 99 24 50
        E 240 89 31 40
        E 0 89 24 40
        E 0 99 33 50
        E 0 99 26 50
        E 120 89 33 40
        E 0 89 26 40
        E 0 99 24 50
        E 120 89 24 40
        E 0 99 33 50
        E 120 89 33 40
        E 0 99 24 50
        E 120 89 24 40
        E 0 99 33 50
        E 0 99 26 50
        E 240 89 33 40
        E 0 89 26 40
        E 0 99 33 50
        E 0 99 24 50
        E 240 89 33 40
        E 0 89 24 40
        E 0 99 33 50
        E 0 99 26 50
        E 120 89 33 40
        E 0 89 26 40
        E 0 99 24 50
        E 120 89 24 40
        E 0 99 33 50
        E 120 89 33 40
        E 0 99 24 50
        E 120 89 24 40
        E 0 99 33 50
        E 0 99 26 50
        E 240 89 33 40
        E 0 89 26 40
        E 0 99 31 50
        E 0 99 24 50
        E 240 89 31 40
        E 0 89 24 40
        E 0 99 33 50
        E 0 99 26 50
        E 120 89 33 40
        E 0 89 26 40
        E 0 99 24 50
        E 120 89 24 40
        E 0 99 33 50
        E 120 89 33 40
        E 0 99 24 50
        E 120 89 24 40
        E 0 99 33 50
        E 0 99 26 50
        E 240 89 33 40
        E 0 89 26 40
        E 0 99 33 50
        E 0 99 24 50
        E 240 89 33 40
        E 0 89 24 40
        E 0 99 33 50
        E 0 99 26 50
        E 120 89 33 40
        E 0 89 26 40
        E 0 99 24 50
        E 120 89 24 40
        E 0 99 33 50
        E 120 89 33 40
        E 0 99 24 50
        E 120 89 24 40
        E 0 99 33 50
        E 0 99 26 50
        E 240 89 33 40
        E 0 89 26 40
        E 0 99 31 50
        E 0 99 24 50
        E 240 89 31 40
        E 0 89 24 40
        E 0 99 33 50
        E 0 99 26 50
        E 120 89 33 40
        E 0 89 26 40
        E 0 99 24 50
        E 120 89 24 40
        E 0 99 33 50
        E 120 89 33 40
        E 0 99 24 50
        E 120 89 24 40
        E 0 99 33 50
        E 0 99 26 50
        E 240 89 33 40
        E 0 89 26 40
        E 0 99 33 50
        E 0 99 24 50
        E 240 89 33 40
        E 0 89 24 40
        E 0 99 33 50
        E 0 99 26 50
        E 120 89 33 40
        E 0 89 26 40
        E 0 99 24 50
        E 120 89 24 40
        E 0 99 33 50
        E 120 89 33 40
        E 0 99 24 50
        E 120 89 24 40
        E 0 99 33 50
        E 0 99 26 50
        E 240 89 33 40
        E 0 89 26 40
        E 0 99 31 50
        E 0 99 24 50
        E 240 89 31 40
        E 0 89 24 40
        E 0 99 33 50
        E 0 99 26 50
        E 120 89 33 40
        E 0 89 26 40
        E 0 99 24 50
        E 120 89 24 40
        E 0 99 33 50
        E 120 89 33 40
        E 0 99 24 50
        E 120 89 24 40
        E 0 99 33 50
        E 0 99 26 50
        E 240 89 33 40
        E 0 89 26 40
        E 0 99 33 50
        E 0 99 24 50
        E 240 89 33 40
        E 0 89 24 40
        E 0 99 33 50
        E 0 99 26 50
        E 120 89 33 40
        E 0 89 26 40
        E 0 99 24 50
        E 120 89 24 40
        E 0 99 33 50
        E 120 89 33 40
        E 0 99 24 50
        E 120 89 24 40
        E 0 99 33 50
        E 0 99 26 50
        E 240 89 33 40
        E 0 89 26 40
        E 0 99 31 50
        E 0 99 24 50
        E 240 89 31 40
        E 0 89 24 40
        E 0 99 33 50
        E 0 99 26 50
        E 120 89 33 40
        E 0 89 26 40
        E 0 99 24 50
        E 120 89 24 40
        E 0 99 33 50
        E 120 89 33 40
        E 0 99 24 50
        E 120 89 24 40
        E 0 99 33 50
        E 0 99 26 50
        E 240 89 33 40
        E 0 89 26 40
        E 0 99 33 50
        E 0 99 24 50
        E 240 89 33 40
        E 0 89 24 40
        E 0 99 33 50
        E 0 99 26 50
        E 120 89 33 40
        E 0 89 26 40
        E 0 99 24 50
        E 120 89 24 40
        E 0 99 33 50
        E 120 89 33 40
        E 0 99 24 50
        E 120 89 24 40
        E 0 99 33 50
        E 0 99 26 50
        E 240 89 33 40
        E 0 89 26 40
        E 0 99 31 50
        E 0 99 24 50
        E 240 89 31 40
        E 0 89 24 40
        E 0 99 33 50
        E 0 99 26 50
        E 120 89 33 40
        E 0 89 26 40
        E 0 99 24 50
        E 120 89 24 40
        E 0 99 33 50
        E 120 89 33 40
        E 0 99 24 50
        E 120 89 24 40
        E 0 99 33 50
        E 0 99 26 50
        E 240 89 33 40
        E 0 89 26 40
        E 0 99 33 50
        E 0 99 24 50
        E 240 89 33 40
        E 0 89 24 40
        E 0 99 33 50
        E 0 99 26 50
        E 120 89 33 40
        E 0 89 26 40
        E 0 99 24 50
        E 120 89 24 40
        E 0 99 33 50
        E 120 89 33 40
        E 0 99 24 50
        E 120 89 24 40
        E 0 99 33 50
        E 0 99 26 50
        E 240 89 33 40
        E 0 89 26 40
        E 0 99 31 50
        E 0 99 24 50
        E 240 89 31 40
        E 0 89 24 40
        E 0 99 33 50
        E 0 99 26 50
        E 120 89 33 40
        E 0 89 26 40
        E 0 99 24 50
        E 120 89 24 40
        E 0 99 33 50
        E 120 89 33 40
        E 0 99 24 50
        E 120 89 24 40
        E 0 99 33 50
        E 0 99 26 50
        E 240 89 33 40
        E 0 89 26 40
        E 0 99 33 50
        E 0 99 24 50
        E 240 89 33 40
        E 0 89 24 40
        E 0 99 33 50
        E 0 99 26 50
        E 120 89 33 40
        E 0 89 26 40
        E 0 99 24 50
        E 120 89 24 40
        E 0 99 33 50
        E 120 89 33 40
        E 0 99 24 50
        E 120 89 24 40
        E 0 99 33 50
        E 0 99 26 50
        E 240 89 33 40
        E 0 89 26 40
        E 0 99 31 50
        E 0 99 24 50
        E 240 89 31 40
        E 0 89 24 40
        E 0 99 33 50
        E 0 99 26 50
        E 120 89 33 40
        E 0 89 26 40
        E 0 99 24 50
        E 120 89 24 40
        E 0 99 33 50
        E 120 89 33 40
        E 0 99 24 50
        E 120 89 24 40
        E 0 99 33 50
        E 0 99 26 50
        E 240 89 33 40
        E 0 89 26 40
        E 0 99 33 50
        E 0 99 24 50
        E 240 89 33 40
        E 0 89 24 40
        E 0 99 33 50
        E 0 99 26 50
        E 120 89 33 40
        E 0 89 26 40
        E 0 99 24 50
        E 120 89 24 40
        E 0 99 33 50
        E 120 89 33 40
        E 0 99 24 50
        E 120 89 24 40
        E 0 99 33 50
        E 0 99 26 50
        E 240 89 33 40
        E 0 89 26 40
        E 0 99 31 50
        E 0 99 24 50
        E 240 89 31 40
        E 0 89 24 40
        E 0 99 33 50
        E 0 99 26 50
        E 120 89 33 40
        E 0 89 26 40
        E 0 99 24 50
        E 120 89 24 40
        E 0 99 33 50
        E 120 89 33 40
        E 0 99 24 50
        E 120 89 24 40
        E 0 99 33 50
        E 0 99 26 50
        E 240 89 33 40
        E 0 89 26 40
        E 0 99 33 50
        E 0 99 24 50
        E 240 89 33 40
        E 0 89 24 40
        E 0 99 33 50
        E 0 99 26 50
        E 120 89 33 40
        E 0 89 26 40
        E 0 99 24 50
        E 120 89 24 40
        E 0 99 33 50
        E 120 89 33 40
        E 0 99 24 50
        E 120 89 24 40
        E 0 99 33 50
        E 0 99 26 50
        E 240 89 33 40
        E 0 89 26 40
        E 0 99 31 50
        E 0 99 24 50
        E 240 89 31 40
        E 0 89 24 40
        E 0 99 33 50
        E 0 99 26 50
        E 120 89 33 40
        E 0 89 26 40
        E 0 99 24 50
        E 120 89 24 40
        E 0 99 33 50
        E 120 89 33 40
        E 0 99 24 50
        E 120 89 24 40
        E 0 99 33 50
        E 0 99 26 50
        E 240 89 33 40
        E 0 89 26 40
        E 0 99 33 50
        E 0 99 24 50
        E 240 89 33 40
        E 0 89 24 40
        E 0 99 33 50
        E 0 99 26 50
        E 120 89 33 40
        E 0 89 26 40
        E 0 99 24 50
        E 120 89 24 40
        E 0 99 33 50
        E 120 89 33 40
        E 0 99 24 50
        E 120 89 24 40
        E 0 99 33 50
        E 0 99 26 50
        E 240 89 33 40
        E 0 89 26 40
        E 0 99 31 50
        E 0 99 24 50
        E 240 89 31 40
        E 0 89 24 40
        E 0 99 33 50
        E 0 99 26 50
        E 120 89 33 40
        E 0 89 26 40
        E 0 99 24 50
        E 120 89 24 40
        E 0 99 33 50
        E 120 89 33 40
        E 0 99 24 50
        E 120 89 24 40
        E 0 99 33 50
        E 0 99 26 50
        E 240 89 33 40
        E 0 89 26 40
        E 0 99 33 50
        E 0 99 24 50
        E 240 89 33 40
        E 0 89 24 40
        E 0 99 33 50
        E 0 99 26 50
        E 120 89 33 40
        E 0 89 26 40
        E 0 99 24 50
        E 120 89 24 40
        E 0 99 33 50
        E 120 89 33 40
        E 0 99 24 50
        E 120 89 24 40
        E 0 99 33 50
        E 0 99 26 50
        E 240 89 33 40
        E 0 89 26 40
        E 0 99 31 50
        E 0 99 24 50
        E 240 89 31 40
        E 0 89 24 40
        E 0 99 33 50
        E 0 99 26 50
        E 120 89 33 40
        E 0 89 26 40
        E 0 99 24 50
        E 120 89 24 40
        E 0 99 33 50
        E 120 89 33 40
        E 0 99 24 50
        E 120 89 24 40
        E 0 99 33 50
        E 0 99 26 50
        E 240 89 33 40
        E 0 89 26 40
        E 0 99 33 50
        E 0 99 24 50
        E 240 89 33 40
        E 0 89 24 40
        E 0 99 33 50
        E 0 99 26 50
        E 120 89 33 40
        E 0 89 26 40
        E 0 99 24 50
        E 120 89 24 40
        E 0 99 33 50
        E 120 89 33 40
        E 0 99 24 50
        E 120 89 24 40
        E 0 99 33 50
        E 0 99 26 50
        E 240 89 33 40
        E 0 89 26 40
        E 0 99 31 50
        E 0 99 24 50
        E 240 89 31 40
        E 0 89 24 40
        E 0 99 33 50
        E 0 99 26 50
        E 120 89 33 40
        E 0 89 26 40
        E 0 99 24 50
        E 120 89 24 40
        E 0 99 33 50
        E 120 89 33 40
        E 0 99 24 50
        E 120 89 24 40
        E 0 99 33 50
        E 0 99 26 50
        E 240 89 33 40
        E 0 89 26 40
        E 0 99 33 50
        E 0 99 24 50
        E 240 89 33 40
        E 0 89 24 40
        E 0 99 33 50
        E 0 99 26 50
        E 120 89 33 40
        E 0 89 26 40
        E 0 99 24 50
        E 120 89 24 40
        E 0 99 33 50
        E 120 89 33 40
        E 0 99 24 50
        E 120 89 24 40
        E 0 99 33 50
        E 0 99 26 50
        E 240 89 33 40
        E 0 89 26 40
        E 0 99 31 50
        E 0 99 24 50
        E 240 89 31 40
        E 0 89 24 40
        E 0 99 33 50
        E 0 99 26 50
        E 120 89 33 40
        E 0 89 26 40
        E 0 99 24 50
        E 120 89 24 40
        E 0 99 33 50
        E 120 89 33 40
        E 0 99 24 50
        E 120 89 24 40
        E 0 99 33 50
        E 0 99 26 50
        E 240 89 33 40
        E 0 89 26 40
        E 0 99 33 50
        E 0 99 24 50
        E 240 89 33 40
        E 0 89 24 40
        E 0 99 33 50
        E 0 99 26 50
        E 120 89 33 40
        E 0 89 26 40
        E 0 99 24 50
        E 120 89 24 40
        E 0 99 33 50
        E 120 89 33 40
        E 0 99 24 50
        E 120 89 24 40
        E 0 99 33 50
        E 0 99 26 50
        E 240 89 33 40
        E 0 89 26 40
        E 0 99 31 50
        E 0 99 24 50
        E 240 89 31 40
        E 0 89 24 40
        E 0 99 33 50
        E 0 99 26 50
        E 120 89 33 40
        E 0 89 26 40
        E 0 99 24 50
        E 120 89 24 40
        E 0 99 33 50
        E 120 89 33 40
        E 0 99 24 50
        E 120 89 24 40
        E 0 99 33 50
        E 0 99 26 50
        E 240 89 33 40
        E 0 89 26 40
        E 0 99 33 50
        E 0 99 24 50
        E 240 89 33 40
        E 0 89 24 40
        E 0 99 33 50
        E 0 99 26 50
        E 120 89 33 40
        E 0 89 26 40
        E 0 99 24 50
        E 120 89 24 40
        E 0 99 33 50
        E 120 89 33 40
        E 0 99 24 50
        E 120 89 24 40
        E 0 99 33 50
        E 0 99 26 50
        E 240 89 33 40
        E 0 89 26 40
        E 0 99 31 50
        E 0 99 24 50
        E 240 89 31 40
        E 0 89 24 40
        E 0 99 33 50
        E 0 99 26 50
        E 120 89 33 40
        E 0 89 26 40
        E 0 99 24 50
        E 120 89 24 40
        E 0 99 33 50
        E 120 89 33 40
        E 0 99 24 50
        E 120 89 24 40
        E 0 99 33 50
        E 0 99 26 50
        E 240 89 33 40
        E 0 89 26 40
        E 0 99 33 50
        E 0 99 24 50
        E 240 89 33 40
        E 0 89 24 40
        E 0 99 33 50
        E 0 99 26 50
        E 120 89 33 40
        E 0 89 26 40
        E 0 99 24 50
        E 120 89 24 40
        E 0 99 33 50
        E 120 89 33 40
        E 0 99 24 50
        E 120 89 24 40
        E 0 99 33 50
        E 0 99 26 50
        E 240 89 33 40
        E 0 89 26 40
        E 0 99 31 50
        E 0 99 24 50
        E 240 89 31 40
        E 0 89 24 40
        E 0 99 33 50
        E 0 99 26 50
        E 120 89 33 40
        E 0 89 26 40
        E 0 99 24 50
        E 120 89 24 40
        E 0 99 33 50
        E 120 89 33 40
        E 0 99 24 50
        E 120 89 24 40
        E 0 99 33 50
        E 0 99 26 50
        E 240 89 33 40
        E 0 89 26 40
        E 0 99 33 50
        E 0 99 24 50
        E 240 89 33 40
        E 0 89 24 40
        E 0 99 33 50
        E 0 99 26 50
        E 120 89 33 40
        E 0 89 26 40
        E 0 99 24 50
        E 120 89 24 40
        E 0 99 33 50
        E 120 89 33 40
        E 0 99 24 50
        E 120 89 24 40
        E 0 99 33 50
        E 0 99 26 50
        E 240 89 33 40
        E 0 89 26 40
        E 0 99 31 50
        E 0 99 24 50
        E 240 89 31 40
        E 0 89 24 40
        E 0 99 33 50
        E 0 99 26 50
        E 120 89 33 40
        E 0 89 26 40
        E 0 99 24 50
        E 120 89 24 40
        E 0 99 33 50
        E 120 89 33 40
        E 0 99 24 50
        E 120 89 24 40
        E 0 99 33 50
        E 0 99 26 50
        E 240 89 33 40
        E 0 89 26 40
        E 0 99 33 50
        E 0 99 24 50
        E 240 89 33 40
        E 0 89 24 40
        E 0 99 33 50
        E 0 99 26 50
        E 120 89 33 40
        E 0 89 26 40
        E 0 99 24 50
        E 120 89 24 40
        E 0 99 33 50
        E 120 89 33 40
        E 0 99 24 50
        E 120 89 24 40
        E 0 99 33 50
        E 0 99 26 50
        E 240 89 33 40
        E 0 89 26 40
        E 0 99 26 48
        E 480 89 26 40
        E 0 99 26 48
        E 240 89 26 40
        E 0 99 26 48
        E 120 89 26 40
        E 0 99 26 48
        E 120 89 26 40
        E 0 99 26 48
        E 120 89 26 40
        E 0 99 26 48
        E 120 89 26 40
        E 0 99 26 48
        E 120 89 26 40
        E 0 99 26 48
        E 120 89 26 40
        E 0 99 26 48
        E 240 89 26 40
        E 0 99 26 48
        E 240 89 26 40
        E 0 99 26 48
        E 480 89 26 40
        E 0 99 26 48
        E 240 89 26 40
        E 0 99 26 48
        E 120 89 26 40
        E 0 99 26 48
        E 120 89 26 40
        E 0 99 26 48
        E 120 89 26 40
        E 0 99 26 48
        E 120 89 26 40
        E 0 99 26 48
        E 120 89 26 40
        E 0 99 26 48
        E 120 89 26 40
        E 0 99 26 48
        E 240 89 26 40
        E 0 99 26 48
        E 240 89 26 40
        E 0 99 26 48
        E 480 89 26 40
        E 0 99 26 48
        E 240 89 26 40
        E 0 99 26 48
        E 120 89 26 40
        E 0 99 26 48
        E 120 89 26 40
        E 0 99 26 48
        E 120 89 26 40
        E 0 99 26 48
        E 120 89 26 40
        E 0 99 26 48
        E 120 89 26 40
        E 0 99 26 48
        E 120 89 26 40
        E 0 99 26 48
        E 240 89 26 40
        E 0 99 26 48
        E 240 89 26 40
        E 0 99 26 48
        E 480 89 26 40
        E 0 99 26 48
        E 240 89 26 40
        E 0 99 26 48
        E 120 89 26 40
        E 0 99 26 48
        E 120 89 26 40
        E 0 99 26 48
        E 120 89 26 40
        E 0 99 26 48
        E 120 89 26 40
        E 0 99 26 48
        E 120 89 26 40
        E 0 99 26 48
        E 120 89 26 40
        E 0 99 26 48
        E 240 89 26 40
        E 0 99 26 48
        E 240 89 26 40
        E 0 99 26 48
        E 480 89 26 40
        E 0 99 26 48
        E 240 89 26 40
        E 0 99 26 48
        E 120 89 26 40
        E 0 99 26 48
        E 120 89 26 40
        E 0 99 26 48
        E 120 89 26 40
        E 0 99 26 48
        E 120 89 26 40
        E 0 99 26 48
        E 120 89 26 40
        E 0 99 26 48
        E 120 89 26 40
        E 0 99 26 48
        E 240 89 26 40
        E 0 99 26 48
        E 240 89 26 40
        E 0 99 26 48
        E 480 89 26 40
        E 0 99 26 48
        E 240 89 26 40
        E 0 99 26 48
        E 120 89 26 40
        E 0 99 26 48
        E 120 89 26 40
        E 0 99 26 48
        E 120 89 26 40
        E 0 99 26 48
        E 120 89 26 40
        E 0 99 26 48
        E 120 89 26 40
        E 0 99 26 48
        E 120 89 26 40
        E 0 99 26 48
        E 240 89 26 40
        E 0 99 26 48
        E 240 89 26 40
        E 0 99 26 48
        E 480 89 26 40
        E 0 99 26 48
        E 240 89 26 40
        E 0 99 26 48
        E 120 89 26 40
        E 0 99 26 48
        E 120 89 26 40
        E 0 99 26 48
        E 120 89 26 40
        E 0 99 26 48
        E 120 89 26 40
        E 0 99 26 48
        E 120 89 26 40
        E 0 99 26 48
        E 120 89 26 40
        E 0 99 26 48
        E 240 89 26 40
        E 0 99 26 48
        E 240 89 26 40
        E 0 99 26 48
        E 480 89 26 40
        E 0 99 26 48
        E 240 89 26 40
        E 0 99 26 48
        E 120 89 26 40
        E 0 99 26 48
        E 120 89 26 40
        E 0 99 26 48
        E 120 89 26 40
        E 0 99 26 48
        E 120 89 26 40
        E 0 99 26 48
        E 120 89 26 40
        E 0 99 26 48
        E 120 89 26 40
        E 0 99 26 48
        E 240 89 26 40
        E 0 99 26 48
        E 240 89 26 40
        E 0 99 2a 48
        E 0 99 24 48
        E 0 99 26 48
        E 240 89 2a 40
        E 0 89 24 40
        E 0 89 26 40
        E 0 99 24 48
        E 240 89 24 40
        E 0 99 24 48
        E 0 99 2a 48
        E 0 99 2d 48
        E 240 89 24 40
        E 0 89 2a 40
        E 0 89 2d 40
        E 0 99 24 48
        E 0 99 2f 48
        E 240 89 24 40
        E 0 89 2f 40
        E 0 99 24 48
        E 0 99 2a 48
        E 0 99 26 48
        E 240 89 24 40
        E 0 89 2a 40
        E 0 89 26 40
        E 0 99 24 48
        E 240 89 24 40
        E 0 99 24 48
        E 0 99 2d 48
        E 0 99 39 48
        E 240 89 24 40
        E 0 89 2d 40
        E 0 89 39 40
        E 0 99 24 48
        E 240 89 24 40
        E 0 99 2a 48
        E 0 99 24 48
        E 0 99 26 48
        E 240 89 2a 40
        E 0 89 24 40
        E 0 89 26 40
        E 0 99 24 48
        E 240 89 24 40
        E 0 99 24 48
        E 0 99 2a 48
        E 240 89 24 40
        E 0 89 2a 40
        E 0 99 24 48
        E 0 99 2d 48
        E 240 89 24 40
        E 0 89 2d 40
        E 0 99 24 48
        E 0 99 26 48
        E 0 99 39 48
        E 240 89 24 40
        E 0 89 26 40
        E 0 89 39 40
        E 0 99 24 48
        E 240 89 24 40
        E 0 99 24 48
        E 0 99 2a 48
        E 240 89 24 40
        E 0 89 2a 40
        E 0 99 24 48
        E 240 89 24 40
        E 0 99 2a 48
        E 0 99 24 48
        E 0 99 26 48
        E 240 89 2a 40
        E 0 89 24 40
        E 0 89 26 40
        E 0 99 24 48
        E 0 99 2f 48
        E 240 89 24 40
        E 0 89 2f 40
        E 0 99 24 48
        E 0 99 31 48
        E 240 89 24 40
        E 0 89 31 40
        E 0 99 24 48
        E 240 89 24 40
        E 0 99 24 48
        E 0 99 2a 48
        E 0 99 26 48
        E 240 89 24 40
        E 0 89 2a 40
        E 0 89 26 40
        E 0 99 24 48
        E 240 89 24 40
        E 0 99 24 48
        E 0 99 2a 48
        E 240 89 24 40
        E 0 89 2a 40
        E 0 99 24 48
        E 240 89 24 40
        E 0 99 2a 48
        E 0 99 24 48
        E 0 99 26 48
        E 240 89 2a 40
        E 0 89 24 40
        E 0 89 26 40
        E 0 99 24 48
        E 240 89 24 40
        E 0 99 24 48
        E 0 99 2a 48
        E 240 89 24 40
        E 0 89 2a 40
        E 0 99 24 48
        E 240 89 24 40
        E 0 99 24 48
        E 0 99 2a 48
        E 0 99 26 48
        E 240 89 24 40
        E 0 89 2a 40
        E 0 89 26 40
        E 0 99 24 48
        E 240 89 24 40
        E 0 99 24 48
        E 0 99 2a 48
        E 240 89 24 40
        E 0 89 2a 40
        E 0 99 24 48
        E 240 89 24 40
        E 0 99 2a 48
        E 0 99 24 48
        E 0 99 26 48
        E 240 89 2a 40
        E 0 89 24 40
        E 0 89 26 40
        E 0 99 24 48
        E 240 89 24 40
        E 0 99 24 48
        E 0 99 2a 48
        E 0 99 2d 48
        E 240 89 24 40
        E 0 89 2a 40
        E 0 89 2d 40
        E 0 99 24 48
        E 0 99 2f 48
        E 240 89 24 40
        E 0 89 2f 40
        E 0 99 24 48
        E 0 99 2a 48
        E 0 99 26 48
        E 240 89 24 40
        E 0 89 2a 40
        E 0 89 26 40
        E 0 99 24 48
        E 240 89 24 40
        E 0 99 24 48
        E 0 99 31 48
        E 0 99 2d 48
        E 240 89 24 40
        E 0 89 31 40
        E 0 89 2d 40
        E 0 99 24 48
        E 240 89 24 40
        E 0 99 2a 48
        E 0 99 24 48
        E 0 99 26 48
        E 240 89 2a 40
        E 0 89 24 40
        E 0 89 26 40
        E 0 99 24 48
        E 240 89 24 40
        E 0 99 24 48
        E 0 99 2a 48
        E 240 89 24 40
        E 0 89 2a 40
        E 0 99 24 48
        E 0 99 2d 48
        E 240 89 24 40
        E 0 89 2d 40
        E 0 99 24 48
        E 0 99 26 48
        E 0 99 39 48
        E 240 89 24 40
        E 0 89 26 40
        E 0 89 39 40
        E 0 99 24 48
        E 240 89 24 40
        E 0 99 24 48
        E 0 99 2a 48
        E 240 89 24 40
        E 0 89 2a 40
        E 0 99 24 48
        E 240 89 24 40
        E 0 99 2a 48
        E 0 99 24 48
        E 0 99 26 48
        E 240 89 2a 40
        E 0 89 24 40
        E 0 89 26 40
        E 0 99 24 48
        E 240 89 24 40
        E 0 99 24 48
        E 0 99 2a 48
        E 0 99 2b 48
        E 240 89 24 40
        E 0 89 2a 40
        E 0 89 2b 40
        E 0 99 24 48
        E 0 99 2d 48
        E 240 89 24 40
        E 0 89 2d 40
        E 0 99 24 48
        E 0 99 26 48
        E 0 99 2a 48
        E 240 89 24 40
        E 0 89 26 40
        E 0 89 2a 40
        E 0 99 24 48
        E 0 99 2f 48
        E 240 89 24 40
        E 0 89 2f 40
        E 0 99 24 48
        E 0 99 2d 48
        E 0 99 31 48
        E 240 89 24 40
        E 0 89 2d 40
        E 0 89 31 40
        E 0 99 24 48
        E 240 89 24 40
        E 0 99 24 48
        E 0 99 26 48
        E 0 99 2a 48
        E 240 89 24 40
        E 0 89 26 40
        E 0 89 2a 40
        E 0 99 24 48
        E 240 89 24 40
        E 0 99 24 48
        E 0 99 2a 48
        E 240 89 24 40
        E 0 89 2a 40
        E 0 99 24 48
        E 240 89 24 40
        E 0 99 24 48
        E 0 99 26 48
        E 0 99 2a 48
        E 240 89 24 40
        E 0 89 26 40
        E 0 89 2a 40
        E 0 99 24 48
        E 240 89 24 40
        E 0 99 24 48
        E 0 99 2a 48
        E 240 89 24 40
        E 0 89 2a 40
        E 0 99 24 48
        E 240 89 24 40
        E 0 99 2a 48
        E 0 99 24 48
        E 0 99 26 48
        E 240 89 2a 40
        E 0 89 24 40
        E 0 89 26 40
        E 0 99 24 48
        E 240 89 24 40
        E 0 99 24 48
        E 0 99 2a 48
        E 0 99 2d 48
        E 240 89 24 40
        E 0 89 2a 40
        E 0 89 2d 40
        E 0 99 24 48
        E 0 99 2f 48
        E 240 89 24 40
        E 0 89 2f 40
        E 0 99 24 48
        E 0 99 2a 48
        E 0 99 26 48
        E 240 89 24 40
        E 0 89 2a 40
        E 0 89 26 40
        E 0 99 24 48
        E 240 89 24 40
        E 0 99 24 48
        E 0 99 2d 48
        E 0 99 39 48
        E 240 89 24 40
        E 0 89 2d 40
        E 0 89 39 40
        E 0 99 24 48
        E 240 89 24 40
        E 0 99 2a 48
        E 0 99 24 48
        E 0 99 26 48
        E 240 89 2a 40
        E 0 89 24 40
        E 0 89 26 40
        E 0 99 24 48
        E 240 89 24 40
        E 0 99 24 48
        E 0 99 2a 48
        E 240 89 24 40
        E 0 89 2a 40
        E 0 99 24 48
        E 0 99 2d 48
        E 240 89 24 40
        E 0 89 2d 40
        E 0 99 24 48
        E 0 99 26 48
        E 0 99 39 48
        E 240 89 24 40
        E 0 89 26 40
        E 0 89 39 40
        E 0 99 24 48
        E 240 89 24 40
        E 0 99 24 48
        E 0 99 2a 48
        E 240 89 24 40
        E 0 89 2a 40
        E 0 99 24 48
        E 240 89 24 40
        E 0 99 2a 48
        E 0 99 24 48
        E 0 99 26 48
        E 240 89 2a 40
        E 0 89 24 40
        E 0 89 26 40
        E 0 99 24 48
        E 0 99 2f 48
        E 240 89 24 40
        E 0 89 2f 40
        E 0 99 24 48
        E 0 99 31 48
        E 240 89 24 40
        E 0 89 31 40
        E 0 99 24 48
        E 240 89 24 40
        E 0 99 24 48
        E 0 99 2a 48
        E 0 99 26 48
        E 240 89 24 40
        E 0 89 2a 40
        E 0 89 26 40
        E 0 99 24 48
        E 240 89 24 40
        E 0 99 24 48
        E 0 99 2a 48
        E 240 89 24 40
        E 0 89 2a 40
        E 0 99 24 48
        E 240 89 24 40
        E 0 99 2a 48
        E 0 99 24 48
        E 0 99 26 48
        E 240 89 2a 40
        E 0 89 24 40
        E 0 89 26 40
        E 0 99 24 48
        E 240 89 24 40
        E 0 99 24 48
        E 0 99 2a 48
        E 240 89 24 40
        E 0 89 2a 40
        E 0 99 24 48
        E 240 89 24 40
        E 0 99 24 48
        E 0 99 2a 48
        E 0 99 26 48
        E 240 89 24 40
        E 0 89 2a 40
        E 0 89 26 40
        E 0 99 24 48
        E 240 89 24 40
        E 0 99 24 48
        E 0 99 2a 48
        E 240 89 24 40
        E 0 89 2a 40
        E 0 99 24 48
        E 240 89 24 40
        E 0 99 2a 48
        E 0 99 24 48
        E 0 99 26 48
        E 240 89 2a 40
        E 0 89 24 40
        E 0 89 26 40
        E 0 99 24 48
        E 240 89 24 40
        E 0 99 24 48
        E 0 99 2a 48
        E 0 99 2d 48
        E 240 89 24 40
        E 0 89 2a 40
        E 0 89 2d 40
        E 0 99 24 48
        E 0 99 2f 48
        E 240 89 24 40
        E 0 89 2f 40
        E 0 99 24 48
        E 0 99 2a 48
        E 0 99 26 48
        E 240 89 24 40
        E 0 89 2a 40
        E 0 89 26 40
        E 0 99 24 48
        E 240 89 24 40
        E 0 99 24 48
        E 0 99 31 48
        E 0 99 2d 48
        E 240 89 24 40
        E 0 89 31 40
        E 0 89 2d 40
        E 0 99 24 48
        E 240 89 24 40
        E 0 99 2a 48
        E 0 99 24 48
        E 0 99 26 48
        E 240 89 2a 40
        E 0 89 24 40
        E 0 89 26 40
        E 0 99 24 48
        E 240 89 24 40
        E 0 99 24 48
        E 0 99 2a 48
        E 240 89 24 40
        E 0 89 2a 40
        E 0 99 24 48
        E 0 99 2d 48
        E 240 89 24 40
        E 0 89 2d 40
        E 0 99 24 48
        E 0 99 26 48
        E 0 99 39 48
        E 240 89 24 40
        E 0 89 26 40
        E 0 89 39 40
        E 0 99 24 48
        E 240 89 24 40
        E 0 99 24 48
        E 0 99 2a 48
        E 240 89 24 40
        E 0 89 2a 40
        E 0 99 24 48
        E 240 89 24 40
        E 0 99 2a 48
        E 0 99 24 48
        E 0 99 26 48
        E 240 89 2a 40
        E 0 89 24 40
        E 0 89 26 40
        E 0 99 24 48
        E 240 89 24 40
        E 0 99 24 48
        E 0 99 2a 48
        E 0 99 2b 48
        E 240 89 24 40
        E 0 89 2a 40
        E 0 89 2b 40
        E 0 99 24 48
        E 0 99 2d 48
        E 240 89 24 40
        E 0 89 2d 40
        E 0 99 24 48
        E 0 99 26 48
        E 0 99 2a 48
        E 240 89 24 40
        E 0 89 26 40
        E 0 89 2a 40
        E 0 99 24 48
        E 0 99 2f 48
        E 240 89 24 40
        E 0 89 2f 40
        E 0 99 24 48
        E 0 99 2d 48
        E 0 99 31 48
        E 240 89 24 40
        E 0 89 2d 40
        E 0 89 31 40
        E 0 99 24 48
        E 240 89 24 40
        E 5760 99 24 48
        E 480 89 24 40
        E 0 99 2a 48
        E 0 99 2d 48
        E 480 89 2a 40
        E 0 89 2d 40
        E 0 99 24 48
        E 480 89 24 40
        E 0 99 2a 48
        E 0 99 2d 48
        E 480 89 2a 40
        E 0 89 2d 40
        E 0 99 24 48
        E 480 89 24 40
        E 0 99 2a 48
        E 0 99 2d 48
        E 480 89 2a 40
        E 0 89 2d 40
        E 0 99 24 48
        E 480 89 24 40
        E 0 99 2a 48
        E 0 99 2d 48
        E 480 89 2a 40
        E 0 89 2d 40
        E 0 99 24 48
        E 480 89 24 40
        E 0 99 2a 48
        E 0 99 2d 48
        E 480 89 2a 40
        E 0 89 2d 40
        E 0 99 24 48
        E 480 89 24 40
        E 0 99 2a 48
        E 0 99 2d 48
        E 480 89 2a 40
        E 0 89 2d 40
        E 0 99 24 48
        E 480 89 24 40
        E 0 99 2a 48
        E 0 99 2d 48
        E 480 89 2a 40
        E 0 89 2d 40
        E 0 99 24 48
        E 480 89 24 40
        E 0 99 2a 48
        E 0 99 2d 48
        E 480 89 2a 40
        E 0 89 2d 40
        E 0 99 24 48
        E 480 89 24 40
        E 0 99 2a 48
        E 0 99 2d 48
        E 480 89 2a 40
        E 0 89 2d 40
        E 0 99 24 48
        E 480 89 24 40
        E 0 99 2a 48
        E 0 99 2d 48
        E 480 89 2a 40
        E 0 89 2d 40
        E 0 99 24 48
        E 480 89 24 40
        E 0 99 2a 48
        E 0 99 2d 48
        E 480 89 2a 40
        E 0 89 2d 40
        E 0 99 24 48
        E 480 89 24 40
        E 0 99 2a 48
        E 0 99 2d 48
        E 480 89 2a 40
        E 0 89 2d 40
        E 0 99 24 48
        E 480 89 24 40
        E 0 99 2a 48
        E 0 99 2d 48
        E 480 89 2a 40
        E 0 89 2d 40
        E 0 99 24 48
        E 480 89 24 40
        E 0 99 2a 48
        E 0 99 2d 48
        E 480 89 2a 40
        E 0 89 2d 40
        E 0 99 24 48
        E 480 89 24 40
        E 0 99 2a 48
        E 0 99 2d 48
        E 480 89 2a 40
        E 0 89 2d 40
        E 0 99 24 48
        E 480 89 24 40
        E 0 99 2a 48
        E 0 99 2d 48
        E 480 89 2a 40
        E 0 89 2d 40
        E 0 99 24 48
        E 480 89 24 40
        E 0 99 2a 48
        E 0 99 2d 48
        E 0 99 24 48
        E 480 89 2a 40
        E 0 89 2d 40
        E 0 89 24 40
        E 0 99 24 48
        E 480 89 24 40
        E 0 99 2a 48
        E 0 99 2d 48
        E 0 99 24 48
        E 480 89 2a 40
        E 0 89 2d 40
        E 0 89 24 40
        E 0 99 24 48
        E 480 89 24 40
        E 0 99 2a 48
        E 0 99 2d 48
        E 0 99 24 48
        E 480 89 2a 40
        E 0 89 2d 40
        E 0 89 24 40
        E 0 99 24 48
        E 480 89 24 40
        E 0 99 2a 48
        E 0 99 2d 48
        E 0 99 24 48
        E 480 89 2a 40
        E 0 89 2d 40
        E 0 89 24 40
        E 0 99 33 48
        E 0 99 24 48
        E 240 89 33 40
        E 0 89 24 40
        E 0 99 24 48
        E 240 89 24 40
        E 0 99 2d 48
        E 0 99 33 48
        E 0 99 24 48
        E 240 89 2d 40
        E 0 89 33 40
        E 0 89 24 40
        E 0 99 24 48
        E 240 89 24 40
        E 0 99 33 48
        E 0 99 24 48
        E 240 89 33 40
        E 0 89 24 40
        E 0 99 24 48
        E 240 89 24 40
        E 0 99 2d 48
        E 0 99 33 48
        E 0 99 24 48
        E 240 89 2d 40
        E 0 89 33 40
        E 0 89 24 40
        E 0 99 33 48
        E 0 99 24 48
        E 240 89 33 40
        E 0 89 24 40
        E 0 99 2f 48
        E 0 99 24 48
        E 0 99 33 48
        E 240 89 2f 40
        E 0 89 24 40
        E 0 89 33 40
        E 0 99 2f 48
        E 0 99 24 48
        E 240 89 2f 40
        E 0 89 24 40
        E 0 99 2f 48
        E 0 99 24 48
        E 0 99 33 48
        E 240 89 2f 40
        E 0 89 24 40
        E 0 89 33 40
        E 0 99 2f 48
        E 0 99 24 48
        E 240 89 2f 40
        E 0 89 24 40
        E 0 99 2f 48
        E 0 99 24 48
        E 0 99 33 48
        E 240 89 2f 40
        E 0 89 24 40
        E 0 89 33 40
        E 0 99 2f 48
        E 0 99 24 48
        E 0 99 33 48
        E 240 89 2f 40
        E 0 89 24 40
        E 0 89 33 40
        E 0 99 2f 48
        E 0 99 24 48
        E 0 99 33 48
        E 240 89 2f 40
        E 0 89 24 40
        E 0 89 33 40
        E 0 99 2f 48
        E 0 99 24 48
        E 0 99 33 48
        E 240 89 2f 40
        E 0 89 24 40
        E 0 89 33 40
        E 0 99 2e 58
        E 0 99 24 58
        E 120 89 2e 40
        E 0 89 24 40
        E 0 99 24 58
        E 120 89 24 40
        E 0 99 24 58
        E 120 89 24 40
        E 0 99 24 58
        E 120 89 24 40
        E 0 99 2e 58
        E 0 99 26 58
        E 0 99 24 58
        E 120 89 2e 40
        E 0 89 26 40
        E 0 89 24 40
        E 0 99 24 58
        E 120 89 24 40
        E 0 99 24 58
        E 120 89 24 40
        E 0 99 24 58
        E 120 89 24 40
        E 0 99 2e 58
        E 0 99 24 58
        E 120 89 2e 40
        E 0 89 24 40
        E 0 99 24 58
        E 120 89 24 40
        E 0 99 24 58
        E 120 89 24 40
        E 0 99 24 58
        E 120 89 24 40
        E 0 99 2e 58
        E 0 99 26 58
        E 0 99 24 58
        E 120 89 2e 40
        E 0 89 26 40
        E 0 89 24 40
        E 0 99 24 58
        E 120 89 24 40
        E 0 99 24 58
        E 120 89 24 40
        E 0 99 24 58
        E 120 89 24 40
        E 0 99 2e 58
        E 0 99 24 58
        E 120 89 2e 40
        E 0 89 24 40
        E 0 99 24 58
        E 120 89 24 40
        E 0 99 24 58
        E 120 89 24 40
        E 0 99 24 58
        E 120 89 24 40
        E 0 99 2e 58
        E 0 99 26 58
        E 0 99 24 58
        E 120 89 2e 40
        E 0 89 26 40
        E 0 89 24 40
        E 0 99 24 58
        E 120 89 24 40
        E 0 99 24 58
        E 120 89 24 40
        E 0 99 24 58
        E 120 89 24 40
        E 0 99 2e 58
        E 0 99 24 58
        E 120 89 2e 40
        E 0 89 24 40
        E 0 99 24 58
        E 120 89 24 40
        E 0 99 24 58
        E 120 89 24 40
        E 0 99 24 58
        E 120 89 24 40
        E 0 99 2e 58
        E 0 99 26 58
        E 0 99 24 58
        E 120 89 2e 40
        E 0 89 26 40
        E 0 89 24 40
        E 0 99 24 58
        E 120 89 24 40
        E 0 99 24 58
        E 120 89 24 40
        E 0 99 26 58
        E 0 99 24 58
        E 120 89 26 40
        E 0 89 24 40
        E 0 99 2e 58
        E 0 99 24 58
        E 120 89 2e 40
        E 0 89 24 40
        E 0 99 24 58
        E 120 89 24 40
        E 0 99 24 58
        E 120 89 24 40
        E 0 99 24 58
        E 120 89 24 40
        E 0 99 2e 58
        E 0 99 26 58
        E 0 99 24 58
        E 120 89 2e 40
        E 0 89 26 40
        E 0 89 24 40
        E 0 99 24 58
        E 120 89 24 40
        E 0 99 24 58
        E 120 89 24 40
        E 0 99 24 58
        E 120 89 24 40
        E 0 99 2e 58
        E 0 99 24 58
        E 120 89 2e 40
        E 0 89 24 40
        E 0 99 24 58
        E 120 89 24 40
        E 0 99 24 58
        E 120 89 24 40
        E 0 99 24 58
        E 120 89 24 40
        E 0 99 2e 58
        E 0 99 26 58
        E 0 99 24 58
        E 120 89 2e 40
        E 0 89 26 40
        E 0 89 24 40
        E 0 99 24 58
        E 120 89 24 40
        E 0 99 24 58
        E 120 89 24 40
        E 0 99 24 58
        E 120 89 24 40
        E 0 99 2e 58
        E 0 99 26 58
        E 0 99 24 58
        E 120 89 2e 40
        E 0 89 26 40
        E 0 89 24 40
        E 0 99 24 58
        E 120 89 24 40
        E 0 99 24 58
        E 120 89 24 40
        E 0 99 2e 58
        E 0 99 26 58
        E 0 99 24 58
        E 120 89 2e 40
        E 0 89 26 40
        E 0 89 24 40
        E 0 99 24 58
        E 120 89 24 40
        E 0 99 24 58
        E 120 89 24 40
        E 0 99 2e 58
        E 0 99 26 58
        E 0 99 24 58
        E 120 89 2e 40
        E 0 89 26 40
        E 0 89 24 40
        E 0 99 24 58
        E 120 89 24 40
        E 0 99 24 58
        E 120 89 24 40
        E 0 99 2e 58
        E 0 99 26 58
        E 0 99 24 58
        E 120 89 2e 40
        E 0 89 26 40
        E 0 89 24 40
        E 0 99 24 58
        E 120 89 24 40
        E 0 99 24 58
        E 120 89 24 40
        E 0 99 2e 58
        E 0 99 26 58
        E 0 99 24 58
        E 120 89 2e 40
        E 0 89 26 40
        E 0 89 24 40
        E 0 99 24 58
        E 120 89 24 40
        E 0 99 37 58
        E 0 99 26 58
        E 0 99 24 58
        E 120 89 37 40
        E 0 89 26 40
        E 0 89 24 40
        E 0 99 26 58
        E 0 99 24 58
        E 120 89 26 40
        E 0 89 24 40
        E 0 99 2e 58
        E 0 99 24 58
        E 120 89 2e 40
        E 0 89 24 40
        E 0 99 24 58
        E 120 89 24 40
        E 0 99 24 58
        E 120 89 24 40
        E 0 99 24 58
        E 120 89 24 40
        E 0 99 2e 58
        E 0 99 26 58
        E 0 99 24 58
        E 120 89 2e 40
        E 0 89 26 40
        E 0 89 24 40
        E 0 99 24 58
        E 120 89 24 40
        E 0 99 24 58
        E 120 89 24 40
        E 0 99 24 58
        E 120 89 24 40
        E 0 99 2e 58
        E 0 99 24 58
        E 120 89 2e 40
        E 0 89 24 40
        E 0 99 24 58
        E 120 89 24 40
        E 0 99 24 58
        E 120 89 24 40
        E 0 99 24 58
        E 120 89 24 40
        E 0 99 2e 58
        E 0 99 26 58
        E 0 99 24 58
        E 120 89 2e 40
        E 0 89 26 40
        E 0 89 24 40
        E 0 99 24 58
        E 120 89 24 40
        E 0 99 24 58
        E 120 89 24 40
        E 0 99 24 58
        E 120 89 24 40
        E 0 99 2e 58
        E 0 99 24 58
        E 120 89 2e 40
        E 0 89 24 40
        E 0 99 24 58
        E 120 89 24 40
        E 0 99 24 58
        E 120 89 24 40
        E 0 99 24 58
        E 120 89 24 40
        E 0 99 2e 58
        E 0 99 26 58
        E 0 99 24 58
        E 120 89 2e 40
        E 0 89 26 40
        E 0 89 24 40
        E 0 99 24 58
        E 120 89 24 40
        E 0 99 24 58
        E 120 89 24 40
        E 0 99 24 58
        E 120 89 24 40
        E 0 99 2e 58
        E 0 99 24 58
        E 120 89 2e 40
        E 0 89 24 40
        E 0 99 24 58
        E 120 89 24 40
        E 0 99 24 58
        E 120 89 24 40
        E 0 99 24 58
        E 120 89 24 40
        E 0 99 2e 58
        E 0 99 26 58
        E 0 99 24 58
        E 120 89 2e 40
        E 0 89 26 40
        E 0 89 24 40
        E 0 99 24 58
        E 120 89 24 40
        E 0 99 24 58
        E 120 89 24 40
        E 0 99 24 58
        E 120 89 24 40
        E 0 99 39 48
        E 0 99 26 48
        E 0 99 24 48
        E 120 89 39 40
        E 0 89 26 40
        E 0 89 24 40
        E 0 99 26 48
        E 0 99 24 48
        E 120 89 26 40
        E 0 89 24 40
        E 0 99 24 48
        E 120 89 24 40
        E 0 99 24 48
        E 120 89 24 40
        E 0 99 26 48
        E 0 99 24 48
        E 120 89 26 40
        E 0 89 24 40
        E 0 99 26 48
        E 0 99 24 48
        E 120 89 26 40
        E 0 89 24 40
        E 0 99 26 48
        E 0 99 24 48
        E 120 89 26 40
        E 0 89 24 40
        E 0 99 26 48
        E 0 99 24 48
        E 120 89 26 40
        E 0 89 24 40
        E 0 99 2d 48
        E 0 99 24 48
        E 120 89 2d 40
        E 0 89 24 40
        E 0 99 2d 48
        E 0 99 24 48
        E 120 89 2d 40
        E 0 89 24 40
        E 0 99 2d 48
        E 0 99 24 48
        E 120 89 2d 40
        E 0 89 24 40
        E 0 99 2d 48
        E 0 99 24 48
        E 120 89 2d 40
        E 0 89 24 40
        E 0 99 2b 48
        E 0 99 24 48
        E 120 89 2b 40
        E 0 89 24 40
        E 0 99 2b 48
        E 0 99 24 48
        E 120 89 2b 40
        E 0 89 24 40
        E 0 99 2b 48
        E 0 99 24 48
        E 120 89 2b 40
        E 0 89 24 40
        E 0 99 2b 48
        E 0 99 24 48
        E 120 89 2b 40
        E 0 89 24 40
        E 0 99 2e 48
        E 0 99 26 48
        E 0 99 24 48
        E 120 89 2e 40
        E 0 89 26 40
        E 0 89 24 40
        E 0 99 24 48
        E 120 89 24 40
        E 0 99 24 48
        E 120 89 24 40
        E 0 99 24 48
        E 120 89 24 40
        E 0 99 2e 48
        E 0 99 26 48
        E 0 99 24 48
        E 120 89 2e 40
        E 0 89 26 40
        E 0 89 24 40
        E 0 99 24 48
        E 120 89 24 40
        E 0 99 24 48
        E 120 89 24 40
        E 0 99 24 48
        E 120 89 24 40
        E 0 99 2e 48
        E 0 99 26 48
        E 0 99 24 48
        E 120 89 2e 40
        E 0 89 26 40
        E 0 89 24 40
        E 0 99 24 48
        E 120 89 24 40
        E 0 99 24 48
        E 120 89 24 40
        E 0 99 24 48
        E 120 89 24 40
        E 0 99 31 48
        E 0 99 26 48
        E 0 99 24 48
        E 120 89 31 40
        E 0 89 26 40
        E 0 89 24 40
        E 0 99 24 48
        E 120 89 24 40
        E 0 99 31 48
        E 0 99 26 48
        E 0 99 24 48
        E 120 89 31 40
        E 0 89 26 40
        E 0 89 24 40
        E 0 99 26 48
        E 0 99 24 48
        E 120 89 26 40
        E 0 89 24 40
        E 0 99 2e 58
        E 0 99 24 58
        E 120 89 2e 40
        E 0 89 24 40
        E 0 99 24 58
        E 120 89 24 40
        E 0 99 24 58
        E 120 89 24 40
        E 0 99 24 58
        E 120 89 24 40
        E 0 99 2e 58
        E 0 99 26 58
        E 0 99 24 58
        E 120 89 2e 40
        E 0 89 26 40
        E 0 89 24 40
        E 0 99 24 58
        E 120 89 24 40
        E 0 99 24 58
        E 120 89 24 40
        E 0 99 24 58
        E 120 89 24 40
        E 0 99 2e 58
        E 0 99 24 58
        E 120 89 2e 40
        E 0 89 24 40
        E 0 99 24 58
        E 120 89 24 40
        E 0 99 24 58
        E 120 89 24 40
        E 0 99 24 58
        E 120 89 24 40
        E 0 99 2e 58
        E 0 99 26 58
        E 0 99 24 58
        E 120 89 2e 40
        E 0 89 26 40
        E 0 89 24 40
        E 0 99 24 58
        E 120 89 24 40
        E 0 99 24 58
        E 120 89 24 40
        E 0 99 24 58
        E 120 89 24 40
        E 0 99 2e 58
        E 0 99 24 58
        E 120 89 2e 40
        E 0 89 24 40
        E 0 99 24 58
        E 120 89 24 40
        E 0 99 24 58
        E 120 89 24 40
        E 0 99 24 58
        E 120 89 24 40
        E 0 99 2e 58
        E 0 99 26 58
        E 0 99 24 58
        E 120 89 2e 40
        E 0 89 26 40
        E 0 89 24 40
        E 0 99 24 58
        E 120 89 24 40
        E 0 99 24 58
        E 120 89 24 40
        E 0 99 24 58
        E 120 89 24 40
        E 0 99 2e 58
        E 0 99 24 58
        E 120 89 2e 40
        E 0 89 24 40
        E 0 99 24 58
        E 120 89 24 40
        E 0 99 24 58
        E 120 89 24 40
        E 0 99 24 58
        E 120 89 24 40
        E 0 99 2e 58
        E 0 99 26 58
        E 0 99 24 58
        E 120 89 2e 40
        E 0 89 26 40
        E 0 89 24 40
        E 0 99 24 58
        E 120 89 24 40
        E 0 99 24 58
        E 120 89 24 40
        E 0 99 26 58
        E 0 99 24 58
        E 120 89 26 40
        E 0 89 24 40
        E 0 99 2e 58
        E 0 99 24 58
        E 120 89 2e 40
        E 0 89 24 40
        E 0 99 24 58
        E 120 89 24 40
        E 0 99 24 58
        E 120 89 24 40
        E 0 99 24 58
        E 120 89 24 40
        E 0 99 2e 58
        E 0 99 26 58
        E 0 99 24 58
        E 120 89 2e 40
        E 0 89 26 40
        E 0 89 24 40
        E 0 99 24 58
        E 120 89 24 40
        E 0 99 24 58
        E 120 89 24 40
        E 0 99 24 58
        E 120 89 24 40
        E 0 99 2e 58
        E 0 99 24 58
        E 120 89 2e 40
        E 0 89 24 40
        E 0 99 24 58
        E 120 89 24 40
        E 0 99 24 58
        E 120 89 24 40
        E 0 99 24 58
        E 120 89 24 40
        E 0 99 2e 58
        E 0 99 26 58
        E 0 99 24 58
        E 120 89 2e 40
        E 0 89 26 40
        E 0 89 24 40
        E 0 99 24 58
        E 120 89 24 40
        E 0 99 24 58
        E 120 89 24 40
        E 0 99 24 58
        E 120 89 24 40
        E 0 99 2e 58
        E 0 99 26 58
        E 0 99 24 58
        E 120 89 2e 40
        E 0 89 26 40
        E 0 89 24 40
        E 0 99 24 58
        E 120 89 24 40
        E 0 99 24 58
        E 120 89 24 40
        E 0 99 2e 58
        E 0 99 26 58
        E 0 99 24 58
        E 120 89 2e 40
        E 0 89 26 40
        E 0 89 24 40
        E 0 99 24 58
        E 120 89 24 40
        E 0 99 24 58
        E 120 89 24 40
        E 0 99 2e 58
        E 0 99 26 58
        E 0 99 24 58
        E 120 89 2e 40
        E 0 89 26 40
        E 0 89 24 40
        E 0 99 24 58
        E 120 89 24 40
        E 0 99 24 58
        E 120 89 24 40
        E 0 99 2e 58
        E 0 99 26 58
        E 0 99 24 58
        E 120 89 2e 40
        E 0 89 26 40
        E 0 89 24 40
        E 0 99 24 58
        E 120 89 24 40
        E 0 99 24 58
        E 120 89 24 40
        E 0 99 2e 58
        E 0 99 26 58
        E 0 99 24 58
        E 120 89 2e 40
        E 0 89 26 40
        E 0 89 24 40
        E 0 99 24 58
        E 120 89 24 40
        E 0 99 37 58
        E 0 99 26 58
        E 0 99 24 58
        E 120 89 37 40
        E 0 89 26 40
        E 0 89 24 40
        E 0 99 26 58
        E 0 99 24 58
        E 120 89 26 40
        E 0 89 24 40
        E 0 99 2e 58
        E 0 99 24 58
        E 120 89 2e 40
        E 0 89 24 40
        E 0 99 24 58
        E 120 89 24 40
        E 0 99 24 58
        E 120 89 24 40
        E 0 99 24 58
        E 120 89 24 40
        E 0 99 2e 58
        E 0 99 26 58
        E 0 99 24 58
        E 120 89 2e 40
        E 0 89 26 40
        E 0 89 24 40
        E 0 99 24 58
        E 120 89 24 40
        E 0 99 24 58
        E 120 89 24 40
        E 0 99 24 58
        E 120 89 24 40
        E 0 99 2e 58
        E 0 99 24 58
        E 120 89 2e 40
        E 0 89 24 40
        E 0 99 24 58
        E 120 89 24 40
        E 0 99 24 58
        E 120 89 24 40
        E 0 99 24 58
        E 120 89 24 40
        E 0 99 2e 58
        E 0 99 26 58
        E 0 99 24 58
        E 120 89 2e 40
        E 0 89 26 40
        E 0 89 24 40
        E 0 99 24 58
        E 120 89 24 40
        E 0 99 24 58
        E 120 89 24 40
        E 0 99 24 58
        E 120 89 24 40
        E 0 99 2e 58
        E 0 99 24 58
        E 120 89 2e 40
        E 0 89 24 40
        E 0 99 24 58
        E 120 89 24 40
        E 0 99 24 58
        E 120 89 24 40
        E 0 99 24 58
        E 120 89 24 40
        E 0 99 2e 58
        E 0 99 26 58
        E 0 99 24 58
        E 120 89 2e 40
        E 0 89 26 40
        E 0 89 24 40
        E 0 99 24 58
        E 120 89 24 40
        E 0 99 24 58
        E 120 89 24 40
        E 0 99 24 58
        E 120 89 24 40
        E 0 99 2e 58
        E 0 99 24 58
        E 120 89 2e 40
        E 0 89 24 40
        E 0 99 24 58
        E 120 89 24 40
        E 0 99 24 58
        E 120 89 24 40
        E 0 99 24 58
        E 120 89 24 40
        E 0 99 2e 58
        E 0 99 26 58
        E 0 99 24 58
        E 120 89 2e 40
        E 0 89 26 40
        E 0 89 24 40
        E 0 99 24 58
        E 120 89 24 40
        E 0 99 24 58
        E 120 89 24 40
        E 0 99 24 58
        E 120 89 24 40
        E 0 99 39 48
        E 0 99 26 48
        E 0 99 24 48
        E 120 89 39 40
        E 0 89 26 40
        E 0 89 24 40
        E 0 99 26 48
        E 0 99 24 48
        E 120 89 26 40
        E 0 89 24 40
        E 0 99 24 48
        E 120 89 24 40
        E 0 99 24 48
        E 120 89 24 40
        E 0 99 26 48
        E 0 99 24 48
        E 120 89 26 40
        E 0 89 24 40
        E 0 99 26 48
        E 0 99 24 48
        E 120 89 26 40
        E 0 89 24 40
        E 0 99 26 48
        E 0 99 24 48
        E 120 89 26 40
        E 0 89 24 40
        E 0 99 26 48
        E 0 99 24 48
        E 120 89 26 40
        E 0 89 24 40
        E 0 99 2d 48
        E 0 99 24 48
        E 120 89 2d 40
        E 0 89 24 40
        E 0 99 2d 48
        E 0 99 24 48
        E 120 89 2d 40
        E 0 89 24 40
        E 0 99 2d 48
        E 0 99 24 48
        E 120 89 2d 40
        E 0 89 24 40
        E 0 99 2d 48
        E 0 99 24 48
        E 120 89 2d 40
        E 0 89 24 40
        E 0 99 2b 48
        E 0 99 24 48
        E 120 89 2b 40
        E 0 89 24 40
        E 0 99 2b 48
        E 0 99 24 48
        E 120 89 2b 40
        E 0 89 24 40
        E 0 99 2b 48
        E 0 99 24 48
        E 120 89 2b 40
        E 0 89 24 40
        E 0 99 2b 48
        E 0 99 24 48
        E 120 89 2b 40
        E 0 89 24 40
        E 0 99 2e 48
        E 0 99 26 48
        E 0 99 24 48
        E 120 89 2e 40
        E 0 89 26 40
        E 0 89 24 40
        E 0 99 24 48
        E 120 89 24 40
        E 0 99 24 48
        E 120 89 24 40
        E 0 99 24 48
        E 120 89 24 40
        E 0 99 2e 48
        E 0 99 26 48
        E 0 99 24 48
        E 120 89 2e 40
        E 0 89 26 40
        E 0 89 24 40
        E 0 99 24 48
        E 120 89 24 40
        E 0 99 24 48
        E 120 89 24 40
        E 0 99 24 48
        E 120 89 24 40
        E 0 99 2e 48
        E 0 99 26 48
        E 0 99 24 48
        E 120 89 2e 40
        E 0 89 26 40
        E 0 89 24 40
        E 0 99 24 48
        E 120 89 24 40
        E 0 99 24 48
        E 120 89 24 40
        E 0 99 24 48
        E 120 89 24 40
        E 0 99 31 48
        E 0 99 26 48
        E 0 99 24 48
        E 120 89 31 40
        E 0 89 26 40
        E 0 89 24 40
        E 0 99 24 48
        E 120 89 24 40
        E 0 99 31 48
        E 0 99 26 48
        E 0 99 24 48
        E 120 89 31 40
        E 0 89 26 40
        E 0 89 24 40
        E 0 99 26 48
        E 0 99 24 48
        E 120 89 26 40
        E 0 89 24 40
        E 0 99 31 48
        E 0 99 24 48
        E 0 99 26 48
        E 1920 89 31 40
        E 0 89 24 40
        E 0 89 26 40
        E 3840 99 31 48
        E 0 99 24 48
        E 0 99 26 48
        E 1919 89 31 40
        E 0 89 24 40
        E 0 89 26 40
        E 1 b0 7b 00
        GUID {06AAFBD0-4CEB-4BBF-9EE2-A82708AACFB7}
        IGNTEMPO 0 120.00000000 4 4
        SRCCOLOR 39
      >
    >
  >
>
